<?xml version="1.0" encoding="UTF-8"?>
<svg width="291px" height="292px" viewBox="0 0 291 292" version="1.1" xmlns="http://www.w3.org/2000/svg" xmlns:xlink="http://www.w3.org/1999/xlink">
    <title>O_10</title>
    <g id="Page-1" stroke="none" stroke-width="1" fill="none" fill-rule="evenodd">
        <g id="ui_kit-copy" transform="translate(-479.000000, -3018.000000)" fill="#707376">
            <g id="O_10" transform="translate(479.000000, 3018.000000)">
                <path d="M1.02770924,136.895971 L1.98710921,32.6931954 L6.60587384,105.044745 C6.87535863,104.127132 7.15081302,103.211225 7.43905941,102.301287 L3.70379554,29.3979764 L11.8215984,90.3168893 C12.0996112,89.649147 12.3852992,88.9865214 12.6735456,88.3247486 L5.25418589,26.3551861 L16.6467407,79.9195521 C16.9256063,79.3788769 17.2129998,78.8441713 17.497835,78.3069074 L6.66215864,23.5827334 L21.2817085,71.6013412 C21.5597213,71.1391236 21.8394397,70.6794644 22.1225693,70.2206581 L7.95841459,21.0882935 L25.8313963,64.5026343 C26.1077035,64.0975543 26.3882747,63.6967383 26.6679931,63.2950695 L9.17791854,18.8556631 L30.3802314,58.2157929 C30.6573914,57.8525001 30.9328457,57.4883545 31.2134169,57.1276201 L10.3684273,16.8814312 L34.990468,52.4900939 C35.2710392,52.1592075 35.5481992,51.8240571 35.8330344,51.4948764 L11.5811089,15.1391609 L39.7303302,47.1711805 C40.0185766,46.8624669 40.302559,46.5486365 40.5942166,46.2424813 L12.8748064,13.5981513 L44.6688948,42.1430719 C44.970786,41.8497087 45.2675604,41.5520815 45.57201,41.2621295 L14.300688,12.2106458 L49.8940002,37.3179297 C50.2155058,37.0348001 50.534453,36.7482593 50.8593698,36.4685409 L15.9099215,10.9229178 L55.513952,32.6198546 C55.8653056,32.3418419 56.2166592,32.0655347 56.5705712,31.7900803 L17.740883,9.67868268 L61.6848126,27.97977 C62.0762478,27.7017572 62.4745054,27.433978 62.868499,27.1593764 L19.8165982,8.42250833 L68.666686,23.3311574 C69.1084363,23.0548502 69.5484811,22.7751318 69.9936427,22.5030886 L22.1558285,7.10407958 L76.8339513,18.5759448 C77.3541592,18.2953736 77.879484,18.0216248 78.4031032,17.747876 L24.767102,5.68246203 L87.0325861,13.5964457 C87.6645109,13.318433 88.2938772,13.0361562 88.9309188,12.7666714 L27.6393323,4.12183809 L101.401413,8.15984594 C102.270416,7.88353875 103.141977,7.61831796 104.017803,7.35821397 L30.774225,2.39918215 L141.259578,1.39202539 L141.257872,0.82406061 L1.13430924,0.395102226 L1.13772044,1.52591498 L1.13772044,1.53188458 L8.52799969e-05,1.52847338 L0.378728466,145.545068 L0.744579653,145.545068 C0.751402052,142.640431 0.851179649,139.757968 1.02770924,136.895971" id="Fill-1"></path>
                <path d="M290.596621,289.855282 L290.168515,149.730013 L289.726765,149.730013 C289.6918,151.076585 289.634662,152.418039 289.563027,153.756082 L288.592541,260.205985 L283.673591,187.550839 C283.410928,188.422401 283.141444,189.290551 282.863431,190.15529 L286.870738,263.351112 L278.283042,202.463752 C278.010146,203.103352 277.728722,203.737835 277.448151,204.372319 L285.310967,266.2259 L273.318893,212.917374 C273.042586,213.443552 272.76969,213.971435 272.487414,214.493349 L283.887644,268.831204 L268.579031,221.275667 C268.305282,221.722534 268.025564,222.164284 267.747551,222.60774 L282.570068,271.171287 L263.939799,228.364993 C263.664345,228.760692 263.395713,229.160655 263.115995,229.552943 L281.313893,273.249561 L259.325299,234.634778 C259.049844,234.989543 258.770979,235.341749 258.492113,235.693103 L280.069658,275.07967 L254.663041,240.322101 C254.38247,240.647018 254.095077,240.965965 253.811094,241.289176 L278.783636,276.689756 L249.889067,245.586435 C249.59741,245.891738 249.298077,246.189365 249.004714,246.492962 L277.395277,278.114785 L244.926624,250.54632 C244.620469,250.83883 244.305786,251.123666 243.995367,251.412765 L275.853415,279.408482 L239.696402,255.289594 C239.367221,255.574429 239.030365,255.852441 238.698626,256.133865 L274.11285,280.622017 L234.088389,259.892155 C233.727655,260.173579 233.362657,260.449886 232.998511,260.727899 L272.136913,281.811673 L227.951641,264.421376 C227.549119,264.7028 227.146598,264.983371 226.741518,265.260531 L269.905988,283.032029 L221.063575,268.950596 C220.603916,269.234579 220.144257,269.517708 219.681187,269.796574 L267.408137,284.32658 L213.029347,273.55998 C212.490377,273.846521 211.952261,274.133914 211.410733,274.413633 L264.636537,285.734552 L203.091669,278.365508 C202.429043,278.65546 201.768123,278.944559 201.102087,279.224277 L261.592894,287.285796 L189.268634,283.58038 C188.362108,283.869479 187.451317,284.149197 186.537116,284.420388 L258.295116,289.001629 L157.021709,289.934592 C153.202871,290.242453 149.343951,290.406191 145.447508,290.410455 L145.447508,290.61001 L289.464103,290.988653 L289.459839,289.851871 L290.596621,289.855282 Z" id="Fill-3"></path>
                <path d="M133.947927,289.974759 L30.7761864,289.034121 L103.043309,284.141607 C102.179422,283.878945 101.320653,283.604343 100.463589,283.325478 L27.6438521,287.311465 L88.3154531,278.75447 C87.6750003,278.479868 87.0371059,278.201003 86.4026228,277.91702 L24.7673578,285.751694 L77.9309079,273.79288 C77.4047303,273.514867 76.8742887,273.242824 76.3523751,272.958841 L22.1577899,284.329223 L69.6178138,269.052165 C69.1717994,268.777563 68.7266378,268.498698 68.2840346,268.218979 L19.8142956,283.0125 L62.552366,264.411227 C62.1592252,264.136626 61.7626733,263.86373 61.3712381,263.584864 L17.7402861,281.755473 L56.3039007,259.795874 C55.9508415,259.519567 55.6020463,259.238143 55.2515455,258.957571 L15.9101773,280.511238 L50.6353393,255.130205 C50.3104225,254.847928 49.9923281,254.557976 49.6708225,254.273994 L14.2992382,279.225216 L45.3846499,250.345997 C45.0802003,250.05434 44.7817203,249.75586 44.4789763,249.461644 L12.8733566,277.836857 L40.4367044,245.377585 C40.144194,245.069724 39.8585061,244.756746 39.5685541,244.446327 L11.5813647,276.294142 L35.7002534,240.137982 C35.4154182,239.807948 35.1365526,239.471945 34.8551286,239.139353 L10.3686831,274.552724 L31.1036616,234.51803 C30.8222376,234.156443 30.5459304,233.792297 30.2679176,233.427299 L9.17732158,272.578493 L26.5795577,228.365931 C26.2989866,227.962557 26.015857,227.560035 25.7395498,227.154955 L7.95867043,270.345009 L22.0528955,221.456546 C21.7689131,220.996034 21.4891947,220.53211 21.2103291,220.067334 L6.66241448,267.851422 L17.4469229,213.385647 C17.1620877,212.846677 16.8712829,212.310266 16.5932701,211.767032 L5.25444173,265.07897 L12.6405423,203.389125 C12.3514431,202.723089 12.0649023,202.056199 11.7860367,201.385898 L3.70319858,262.036179 L7.42311205,189.439876 C7.13401286,188.525675 6.85770567,187.604651 6.58651528,186.682774 L1.98736505,258.74096 L1.03137628,154.954351 C0.846318689,151.957612 0.740571493,148.9387 0.740571493,145.895057 L0.740571493,145.889088 L0.378984306,145.889088 L0.000341119987,289.90483 L1.13627068,289.901418 L1.13797628,289.901418 L1.13797628,289.902271 L1.13797628,289.908241 L1.13456508,291.039053 L141.258128,290.610095 L141.258128,290.355961 C138.805475,290.289442 136.368173,290.162375 133.947927,289.974759" id="Fill-5"></path>
                <path d="M40.6512689,244.534507 C27.1949382,230.418962 16.605721,213.546314 9.83704764,195.216232 C4.95562062,182.000391 2.08339032,168.055406 1.23911835,153.980795 L1.30990075,153.976531 C0.26180959,134.460204 3.15877108,114.74091 9.90356604,96.4125329 C16.6458026,78.0824504 27.2102886,61.2004222 40.6495633,47.0678212 C54.0768988,32.9224281 70.3824342,21.5290205 88.2920864,13.8478512 C106.191505,6.13342266 125.681395,2.2079844 145.15423,2.27365 L145.138879,8.52799969e-05 C125.365007,0.0759844772 105.621835,4.21035873 87.5501504,12.155896 C69.4656743,20.0698797 53.0637725,31.7157161 39.6100001,46.0981876 C26.1442886,60.4678671 15.6198842,77.5716232 8.96804447,96.0765298 C4.16763345,109.418585 1.40456155,123.458231 0.677123175,137.592538 L0.596959978,137.588274 C-0.573934379,157.191587 2.21727992,177.05074 8.90237887,195.557352 C15.5832138,214.063964 26.134055,231.158339 39.6176753,245.510963 C53.0910621,259.875525 69.5049031,271.497483 87.590232,279.383325 C105.663622,287.301572 125.398266,291.40354 145.15423,291.455561 L145.15423,289.181996 C125.70101,289.27154 106.221353,285.375097 88.3219344,277.686253 C70.4122822,270.030667 54.0965132,258.662844 40.6512689,244.534507" id="Fill-7"></path>
                <path d="M44.9343715,48.4762203 C57.4739422,34.2029072 72.8968296,22.4555877 90.0943938,14.443532 C107.271491,6.40248105 126.211325,2.190502 145.154571,2.2834572 L145.154571,0.00989247964 C125.878733,0.0576492779 106.662592,4.48794512 89.3072594,12.7711912 C71.9289017,21.0262949 56.4190287,33.0345713 43.8624019,47.5424043 C31.2733688,62.0382982 21.6768107,79.0661552 15.6048749,97.2367641 C11.2121023,110.340036 8.680992,124.039414 7.99960483,137.824073 L7.89726883,137.819809 C6.85429447,156.94129 9.39478558,176.275971 15.5059502,194.452549 C21.5975003,212.625717 31.2145256,229.650162 43.8299955,244.124736 C56.4122063,258.611249 71.9451049,270.583708 89.3311378,278.79873 C106.693292,287.041895 125.900906,291.432109 145.154571,291.455135 L145.140073,289.180717 C126.218148,289.296698 107.2894,285.123948 90.106333,277.121273 C72.9027992,269.147593 57.4594446,257.435238 44.8951427,243.184098 C32.2984343,228.94575 22.6310939,212.134504 16.4465885,194.127633 C11.9745055,181.143753 9.34617598,167.533066 8.55818881,153.806397 L8.6016816,153.804692 C7.69515524,134.763374 10.3618607,115.562583 16.5480717,97.5565641 C22.7121099,79.5513984 32.3623943,62.7367414 44.9343715,48.4762203" id="Fill-9"></path>
                <path d="M49.4323796,50.0673745 C60.9989056,35.646527 75.5127083,23.5632043 91.9461637,15.1690942 C108.355741,6.75536967 126.734433,2.20824024 145.154059,2.29352024 L145.154059,0.0199555193 C126.367729,0.0753875172 107.689704,4.85788974 91.0976277,13.5266014 C74.4816731,22.1765515 59.892824,34.5268007 48.3228869,49.1796097 C36.7145737,63.818774 27.9870188,80.6666902 22.4804894,98.4723007 C18.500472,111.31291 16.2132624,124.655818 15.5924241,138.069509 L15.4875297,138.065245 C14.5434801,156.67334 16.8213088,175.462229 22.3508638,193.278926 C27.8676268,211.090506 36.6207657,227.934158 48.2597797,242.550297 C59.8612704,257.179228 74.4816731,269.48769 91.1155365,278.082208 C107.722963,286.697193 126.39246,291.424263 145.154059,291.455817 L145.141267,289.181399 C126.743814,289.287999 108.373649,284.795449 91.9495749,276.432893 C75.5016219,268.094214 60.958824,256.051826 49.3641556,241.654004 C37.7302585,227.272386 28.9140124,210.6317 23.2991774,192.976182 C19.2415551,180.244731 16.8639488,166.983692 16.146744,153.622875 L16.1834144,153.621169 C15.3911633,135.087267 17.8105568,116.42374 23.4296558,98.7699279 C29.0359628,81.1203797 37.8283305,64.4745772 49.4323796,50.0673745" id="Fill-11"></path>
                <path d="M54.0595017,51.7433823 C59.3997351,44.5065217 65.4179445,37.7719604 72.066373,31.7298726 C73.712277,30.2016551 75.4716033,28.8022103 77.1686752,27.3319832 C78.9169152,25.9265688 80.7222927,24.5902313 82.4969695,23.2163705 C84.3526622,21.956785 86.1776541,20.6485898 88.0580781,19.4273802 L90.9260443,17.6689067 C91.8845915,17.0864443 92.8269355,16.4766924 93.8255642,15.9658652 C101.643182,11.5765037 109.98186,8.12181106 118.626693,5.79878395 C127.268968,3.47149283 136.210575,2.28439528 145.153889,2.30400968 L145.153889,0.0295921589 C136.009315,0.080760157 126.881797,1.36678251 118.085165,3.81090722 C109.285122,6.24906233 100.821935,9.835939 92.9130683,14.3600428 C91.9016475,14.8870732 90.9490699,15.5138812 89.9802892,16.1133996 L87.0824749,17.9221883 C85.1815838,19.1766571 83.3403886,20.5181114 81.4676399,21.811809 C79.6784656,23.2189289 77.8594432,24.5885257 76.0975585,26.0271992 C74.3894002,27.5298328 72.6189874,28.9633895 70.9637027,30.5231606 C64.2794565,36.694874 58.2476023,43.5530914 52.9133385,50.9042271 C42.2405469,65.6141738 34.3581168,82.2650931 29.3914098,99.6954717 C25.8062387,112.270007 23.7484324,125.259856 23.1855844,138.308549 L23.0789844,138.304285 C22.2278901,156.407522 24.2601124,174.661706 29.2353474,192.109993 C34.2029072,209.549752 42.1066573,226.200672 52.8169721,240.885887 C58.1682919,248.223378 64.2206133,255.063687 70.9244739,261.211522 C77.6198064,267.365326 84.9871454,272.811307 92.9207435,277.28936 C100.843255,281.780204 109.312412,285.331263 118.109896,287.740423 C126.903969,290.153847 136.022959,291.415991 145.153889,291.45522 L145.141097,289.180802 C136.209723,289.211503 127.276643,288.046578 118.637779,285.748282 C109.994652,283.453398 101.650857,280.032817 93.8213002,275.675009 C85.9806573,271.331699 78.6755728,266.020461 72.0186162,259.996282 C65.3514261,253.978072 59.3136023,247.26142 53.9580185,240.038204 C43.2400285,225.582392 35.2620848,209.1225 30.1896306,191.829422 C26.5268547,179.355517 24.3863268,166.439861 23.7364932,153.439779 L23.767194,153.438926 C23.08069,135.403912 25.268122,117.266562 30.3473986,99.9726317 C35.4198528,82.6872291 43.3773293,66.2256313 54.0595017,51.7433823" id="Fill-13"></path>
                <path d="M58.7881922,53.4685113 C68.5399599,38.9692063 80.9720778,26.1541811 95.7562181,16.8637783 C103.138055,12.2271048 111.133907,8.58564897 119.461499,6.08950346 C127.789943,3.59762195 136.469741,2.3039244 145.153803,2.314158 L145.153803,0.0397404785 C136.243749,0.100289276 127.358427,1.50058682 118.862833,4.11782993 C110.36724,6.73848423 102.243467,10.5232105 94.7703813,15.3005959 C79.8054475,24.8749812 67.3341007,37.9603439 57.6053587,52.6805241 C47.8629718,67.4288468 40.7941129,83.854627 36.3399387,100.90551 C33.1299996,113.208002 31.2836877,125.849909 30.7788301,138.541278 L30.6705245,138.537014 C29.9072685,156.143922 31.708382,173.876192 36.1565867,190.949247 C40.6039385,208.010363 47.6915591,224.439555 57.4740275,239.163999 C67.2402927,253.860301 79.7704827,266.890231 94.7703813,276.387865 C102.258818,281.131138 110.395382,284.86896 118.88927,287.45465 C127.384863,290.035223 136.259953,291.407378 145.153803,291.455135 L145.141011,289.180717 C127.776299,289.256616 110.528419,284.011044 95.7417205,274.816154 C80.9260266,265.601651 68.4384767,252.843763 58.6517442,238.367484 C48.8479558,223.86562 41.6742025,207.615517 37.1168394,190.689996 C33.8301484,178.479606 31.9122012,165.904218 31.3271805,153.258047 L31.3595868,153.256341 C30.7575101,135.711688 32.7385644,118.088576 37.301897,101.16135 C41.8669353,84.2452094 49.021927,67.9959588 58.7881922,53.4685113" id="Fill-15"></path>
                <path d="M63.626894,55.2386682 C72.4772521,40.7350991 83.8681012,27.6352388 97.7764159,17.9073496 C104.713091,13.0532122 112.273163,9.06210831 120.300569,6.4192812 C128.307508,3.7431949 136.724643,2.32498855 145.154571,2.32413575 L145.154571,0.0497182382 C136.470509,0.121353436 127.823117,1.65554058 119.636238,4.46892768 C111.428038,7.24820277 103.736635,11.3936634 96.7129744,16.3953352 C82.6306885,26.4234101 71.2236361,39.7901968 62.4108012,54.5035546 C53.5894384,69.2561413 47.294069,85.4311983 43.3251379,102.099174 C40.472522,114.124506 38.8240597,126.426146 38.3746341,138.766161 L38.2646229,138.76275 C37.5815301,155.883562 39.1677381,173.10671 43.1179075,189.798564 C47.0646658,206.481037 53.3898832,222.654388 62.2436524,237.388214 C71.0923049,252.083663 82.5718453,265.394165 96.6993296,275.334401 C103.747721,280.29258 111.452769,284.391989 119.663527,287.126919 C127.852965,289.896813 136.488418,291.396036 145.154571,291.455732 L145.141779,289.181314 C136.727202,289.190695 128.3203,287.804895 120.310802,285.170596 C112.281691,282.570409 104.707974,278.622798 97.7482735,273.813006 C83.7973188,264.171249 72.3382457,251.130232 63.4554812,236.646278 C54.5650415,222.125652 48.1460162,206.117744 44.0841299,189.560633 C41.1522036,177.616317 39.4457509,165.376079 38.9187205,153.076997 L38.9553909,153.075292 C38.4275077,136.011617 40.2183876,118.889099 44.2922131,102.333694 C48.3762721,85.7902271 54.7671551,69.7797605 63.626894,55.2386682" id="Fill-17"></path>
                <path d="M68.6395669,57.0779872 C72.6264068,49.8291875 77.1854754,42.8942181 82.3679408,36.4615479 C87.5367614,30.0229082 93.3809996,24.1206796 99.8691018,19.049931 C106.355498,13.9919744 113.4832,9.72200492 121.149019,6.79604823 C128.821661,3.91187874 136.976134,2.34784359 145.154486,2.33419879 L145.154486,0.0597812778 C136.687888,0.144208475 128.27331,1.83786921 120.407083,4.8729843 C112.546826,7.95159219 105.291204,12.3878576 98.7229386,17.600171 C92.1521149,22.826982 86.2729119,28.8733338 81.0921521,35.4398936 C75.8986003,42.0013365 71.3514708,49.0497283 67.3910678,56.3983056 C59.4924345,71.1142219 53.8460459,86.9822709 50.3478604,103.27075 C47.8286893,115.018923 46.3661373,126.985412 45.9695854,138.982602 L45.8595742,138.980043 C45.2498222,155.625846 46.6364749,172.353517 50.1176044,188.661611 C53.6388155,204.950943 59.2545033,220.834343 67.2008934,235.529792 C71.1792052,242.869841 75.7510659,249.90203 80.9744657,256.437036 C86.1859263,262.976306 92.0873021,268.998779 98.6930906,274.172717 C105.291204,279.339832 112.571557,283.71896 120.434373,286.748105 C128.30657,289.732052 136.707502,291.383926 145.154486,291.455561 L145.141694,289.181143 C136.981251,289.178585 128.837864,287.653779 121.1584,284.818219 C113.48917,281.936608 106.338442,277.724629 99.8247562,272.71187 C93.302542,267.693143 87.4395422,261.815645 82.2417264,255.404295 C77.0319714,248.998062 72.4481716,242.081001 68.4442757,234.842435 C60.4475704,220.349952 54.7295466,204.618351 51.0889436,188.445 C48.4930205,176.770168 46.9810061,164.857406 46.5111133,152.896886 L46.5529005,152.89518 C46.0940941,136.302251 47.7050333,119.66583 51.3191996,103.485656 C54.9384826,87.3105989 60.68806,71.5934955 68.6395669,57.0779872" id="Fill-19"></path>
                <path d="M73.7838269,58.9442546 C80.898737,44.5489912 90.1277383,31.0304061 102.060968,20.3081521 C108.047624,15.0028834 114.755749,10.5052164 122.034396,7.27822133 C129.313897,4.05804865 137.234703,2.39679431 145.153803,2.34392071 L145.153803,0.0695031975 C136.902964,0.192306393 128.68453,2.00365353 121.202916,5.3935334 C113.717891,8.78853008 106.88611,13.4678435 100.82782,18.9325857 C94.7925541,24.4348511 89.4727879,30.6637021 84.7840937,37.3044554 C80.0945467,43.9494728 76.0309548,51.0132149 72.5063325,58.3217107 C65.4681744,72.9531997 60.5466658,88.5321496 57.4075091,104.418107 C55.2021684,115.887414 53.9238212,127.527281 53.575026,139.191879 L53.4547812,139.188468 C52.9251925,155.369494 54.0943812,171.624715 57.1806643,187.537962 C60.2959426,203.433301 65.2072176,219.023337 72.2828989,233.641181 C75.8245772,240.942002 79.9129003,247.992099 84.6348537,254.612385 C89.3559543,261.22926 94.7123909,267.422293 100.782621,272.877655 C106.867349,278.305727 113.737505,282.914258 121.230206,286.253822 C128.722906,289.586565 136.927695,291.345891 145.153803,291.455902 L145.142717,289.180632 C137.242378,289.138845 129.332658,287.527905 122.042072,284.359754 C114.755749,281.186485 108.011806,276.758747 102.001272,271.488444 C90.0023767,260.862556 80.7008874,247.390022 73.5561293,233.010109 C66.416488,218.583292 61.3934961,203.131409 58.1562675,187.340112 C55.8417684,175.943294 54.530162,164.350331 54.1148484,152.718992 L54.1498132,152.717286 C53.7558196,136.582311 55.2004628,120.417488 58.3822595,104.613399 C61.6459249,88.8306295 66.6782976,73.3889805 73.7838269,58.9442546" id="Fill-21"></path>
                <path d="M65.503992,105.715898 C68.3830447,90.3109197 72.7800813,75.1660451 79.0575419,60.8219496 C82.2009626,53.6584299 85.8228041,46.7004349 90.0160215,40.1108496 C94.2092389,33.526381 98.979802,27.3000884 104.434311,21.7492134 C107.129158,18.9392375 110.095197,16.4192136 113.134576,14.0092009 C116.277997,11.7501338 119.476849,9.53455949 122.963948,7.86136595 C129.816196,4.27960608 137.483721,2.41879655 145.152951,2.35398375 L145.152951,0.0795662371 C137.095697,0.213455832 129.087052,2.25505896 122.025868,6.02614042 C118.429611,7.79570035 115.154006,10.1050827 111.94492,12.4588106 C108.846698,14.9583673 105.835461,17.568788 103.112471,20.4580743 C97.5991188,26.1726869 92.8174694,32.5362802 88.6327799,39.2401408 C84.4489433,45.9491182 80.8578026,53.0051851 77.7527579,60.2565432 C67.1609823,85.2879279 61.8949425,112.320834 61.1820018,139.390411 L61.0515234,139.387 C60.810181,147.254932 60.9525986,155.133951 61.4796289,162.989091 C61.9981313,170.845085 62.9242721,178.6772 64.2896048,186.434268 C67.0023615,201.944994 71.272331,217.224611 77.4994764,231.731591 C80.6181658,238.977833 84.2331849,246.022813 88.4502808,252.710471 C92.6682294,259.392158 97.4899604,265.724198 103.044247,271.391907 C105.78344,274.262431 108.817702,276.842151 111.932981,279.31186 C115.154859,281.640004 118.449225,283.912716 122.052305,285.650722 C129.131398,289.355285 137.123839,291.335487 145.152951,291.455732 L145.142717,289.180461 C137.493954,289.129293 129.838369,287.32221 122.968212,283.805263 C119.475144,282.160212 116.259235,279.982161 113.103875,277.746972 C110.049146,275.366807 107.060934,272.876631 104.352442,270.08627 C98.8595572,264.582299 94.051471,258.390118 89.8266999,251.828675 C85.6019289,245.261263 81.9570618,238.316913 78.7999963,231.15851 C72.4943933,216.828059 68.1075903,201.672951 65.269472,186.256886 C63.8384737,178.546721 62.8458145,170.753835 62.2582353,162.929395 C61.9955729,159.472997 61.8198961,156.009777 61.7064737,152.543145 L61.7474081,152.542292 C61.5444417,144.696532 61.8395105,136.845656 62.4501153,129.028891 C63.0854513,121.213832 64.0610545,113.421799 65.503992,105.715898" id="Fill-23"></path>
                <path d="M72.6595807,106.783945 C75.1830158,91.7533456 78.9609197,76.9018341 84.4904747,62.7086843 C87.2501354,55.6159469 90.4285208,48.6852416 94.1237031,42.045341 C97.8274134,35.4173797 102.018072,29.0418471 106.955784,23.2999449 C108.218781,21.8936778 109.418671,20.426009 110.779739,19.1152555 L112.769322,17.0983835 L114.874032,15.2094316 C116.240217,13.9037949 117.782933,12.8198861 119.246337,11.6370525 C119.994243,11.0673822 120.795022,10.5744638 121.567659,10.0389054 C122.345412,9.51358061 123.111227,8.96864143 123.942707,8.53286065 L126.386832,7.1453551 C127.219164,6.71895511 128.079639,6.35225113 128.925617,5.95228794 L130.197142,5.36385596 L131.515571,4.89311038 C132.397366,4.59207199 133.262958,4.2364544 134.156692,3.97805601 C137.738452,2.93081765 141.441309,2.43107687 145.153548,2.36370567 L145.153548,0.0901409567 C141.211906,0.192476953 137.291585,0.763000132 133.529031,1.90404649 C132.590098,2.18547048 131.683572,2.56411367 130.75999,2.88988325 L129.381012,3.39900484 L128.054908,4.02496001 C127.175671,4.4505072 126.277673,4.84450078 125.413787,5.29819037 L122.883529,6.76500631 C122.023054,7.22892949 121.233361,7.79945267 120.432582,8.35036145 C119.637773,8.91150383 118.813115,9.43256461 118.046448,10.027819 C116.547225,11.2592621 114.964429,12.3986029 113.575218,13.7494381 L111.431278,15.7117308 L109.412701,17.7942683 C108.031165,19.1519259 106.820189,20.6579706 105.5444,22.1077305 C100.564048,28.0116647 96.3776534,34.5168229 92.691852,41.256501 C89.0179897,48.0064128 85.8771274,55.0292205 83.1626651,62.2012683 C77.7260653,76.5513334 74.0701118,91.5120032 71.6780079,106.626177 C70.4738544,114.187102 69.6798976,121.808575 69.1972128,129.443693 C68.9925408,132.819075 68.8484176,136.198722 68.7622848,139.579221 L68.650568,139.576662 C68.2403713,154.873335 69.0667344,170.224588 71.4324015,185.360081 C73.7613983,200.491311 77.4454941,215.452834 82.9042667,229.795224 C85.6289626,236.96386 88.7894393,243.97814 92.4948552,250.710143 C96.2147686,257.427648 100.4276,263.914898 105.448887,269.777897 C106.746848,271.206337 107.954413,272.715793 109.351299,274.054689 L111.390344,276.115054 C112.096462,276.774268 112.829018,277.409604 113.546222,278.057732 C114.951637,279.390659 116.531875,280.522324 118.047301,281.731595 C118.812262,282.325996 119.647153,282.830854 120.443669,283.384321 C121.25127,283.923291 122.04011,284.491255 122.903996,284.944945 L125.444488,286.383618 C126.308374,286.831338 127.208931,287.21254 128.08902,287.630412 L129.417683,288.242722 L130.795807,288.739905 C131.71939,289.057999 132.626769,289.425556 133.564849,289.701863 C137.322286,290.810503 141.228109,291.361412 145.153548,291.45522 L145.142461,289.180802 C141.442162,289.122812 137.748686,288.637569 134.170337,287.621031 C133.278308,287.366044 132.410158,287.022366 131.528363,286.72815 L130.210787,286.267638 L128.935851,285.69285 C128.090726,285.300562 127.225987,284.947503 126.394507,284.523662 L123.941001,283.164299 C123.106963,282.738751 122.342001,282.193812 121.556573,281.682132 C120.783083,281.153396 119.972923,280.677534 119.226723,280.107011 C117.749673,278.947203 116.206958,277.869264 114.827981,276.581536 C114.123568,275.957286 113.40551,275.347534 112.711331,274.711345 L110.702987,272.718352 C109.327421,271.42636 108.131795,269.95528 106.847479,268.570333 C101.873096,262.870218 97.6568534,256.513447 93.9198839,249.910217 C90.1948537,243.289078 86.9985594,236.368606 84.2286651,229.280985 C78.6803485,215.098069 74.8734494,200.24741 72.4148271,185.201461 C70.616272,174.350434 69.6210544,163.37234 69.3012544,152.370367 L69.3456,152.369515 C69.166512,144.73866 69.4445248,137.104395 69.9775248,129.496567 C70.5292864,121.889591 71.3906143,114.303082 72.6595807,106.783945" id="Fill-25"></path>
                <path d="M78.4376416,118.850979 L79.0874752,113.323983 C79.2938528,111.480229 79.595744,109.649268 79.8456144,107.811484 C80.9278175,100.472287 82.2931503,93.1765835 83.9731662,85.9542205 C85.6753549,78.7378272 87.6999021,71.5990387 90.0843308,64.5856117 C92.4713179,57.5747432 95.2241562,50.6866778 98.4451817,44.0305741 C101.668766,37.3795871 105.361389,30.9503281 109.697024,24.9926676 C114.001959,19.0239206 119.104261,13.6154632 125.009901,9.33611294 C125.741603,8.79202656 126.53556,8.34601217 127.294552,7.84627139 L128.445832,7.11456902 C128.839825,6.89113543 129.248317,6.69413863 129.649133,6.48264424 C130.460145,6.08012266 131.246427,5.62046347 132.075348,5.26314029 L134.591108,4.25598352 C137.998044,3.07229717 141.562748,2.41052439 145.153036,2.37385399 L145.153036,0.0994364764 C141.28303,0.171071674 137.46078,0.922388446 133.850025,2.2194972 L131.190995,3.31363956 C130.316875,3.70081074 129.493923,4.18946513 128.643681,4.62354031 C128.224104,4.8495323 127.795145,5.06273229 127.384096,5.30151629 L126.185059,6.07756426 C125.396219,6.60715304 124.569003,7.08642662 123.81257,7.6586554 C117.700552,12.175084 112.531732,17.7873606 108.200361,23.9087588 C103.840847,30.021629 100.165279,36.5728383 96.9706905,43.3253085 C93.779513,50.0828954 91.0727259,57.0528296 88.7369068,64.1344805 C86.4044989,71.2186899 84.4370894,78.4163216 82.7954494,85.6838829 C81.1776879,92.9565611 79.8763152,100.295758 78.8606304,107.671625 C78.627816,109.518789 78.3429808,111.359132 78.1528064,113.21056 L77.5541408,118.762288 C77.2411632,122.471115 76.9085713,126.178237 76.7303361,129.896445 C76.5555121,133.180577 76.4327089,136.468121 76.3585153,139.756518 L76.2502097,139.753959 C75.8766833,154.635319 76.5947409,169.55676 78.6090544,184.318727 C80.5730527,199.0824 83.7855502,213.700245 88.4580412,227.869516 C90.8015355,234.949461 93.5253786,241.913426 96.7455513,248.656515 C99.9674296,255.395341 103.683079,261.923524 108.089497,267.998019 C112.465213,274.081041 117.673263,279.648972 123.829626,284.081826 C124.584354,284.652349 125.420097,285.114567 126.212349,285.635628 L127.415649,286.396325 C127.825846,286.635962 128.258216,286.838928 128.677793,287.062362 C129.529741,287.486204 130.356956,287.961213 131.230224,288.342415 L133.889254,289.406709 C137.497451,290.668 141.305202,291.390322 145.153036,291.455135 L145.142802,289.180717 C141.566159,289.151722 138.012542,288.512975 134.607312,287.360842 L132.089846,286.381828 C131.260924,286.028768 130.471232,285.582754 129.659366,285.18876 C129.257697,284.980677 128.844942,284.794767 128.452654,284.568775 L127.29711,283.852423 C126.53556,283.360357 125.733928,282.931399 125.003931,282.389018 C119.057357,278.191537 113.920943,272.825719 109.573368,266.897907 C105.195093,260.981181 101.464946,254.5758 98.2140729,247.941016 C94.9657578,241.29941 92.1975691,234.419873 89.8037596,227.411563 C85.0297854,213.386414 81.6893679,198.866642 79.5931856,184.178015 C78.0462064,173.589651 77.1772032,162.90492 76.8940737,152.199722 L76.9443889,152.198869 C76.7942961,144.775246 77.0467249,137.349063 77.5097952,129.943349 C77.723848,126.237933 78.0914048,122.544456 78.4376416,118.850979" id="Fill-27"></path>
                <path d="M281.749589,95.9715501 C275.036347,77.4453236 264.451394,60.3424202 250.93622,45.9923551 C237.43128,31.6286452 220.991002,20.0194793 202.886059,12.1515468 C184.793907,4.25035504 165.04903,0.172265594 145.293066,0.144975995 L145.307563,2.41939351 C164.759078,2.30597112 184.248115,6.18194697 202.165443,13.8528827 C220.092151,21.491412 236.434357,32.8481492 249.908596,46.9747807 C263.394775,61.0877674 274.018104,77.9689427 280.816626,96.3186397 C285.721078,109.547273 288.614628,123.511019 289.477662,137.608656 L289.426494,137.612067 C290.452412,157.167623 287.523897,176.917618 280.745843,195.265609 C273.9712,213.614453 263.370897,230.504156 249.900921,244.633346 C236.442885,258.776181 220.110913,270.155944 202.181646,277.819204 C184.264319,285.515724 164.765047,289.416431 145.293066,289.326034 L145.293066,291.600452 C165.068644,291.548431 184.822903,287.443052 202.914201,279.516276 C221.018292,271.621907 237.448336,259.989715 250.933662,245.609802 C264.43178,231.243534 274.992855,214.132103 281.680512,195.606729 C286.505654,182.250176 289.292604,168.18921 290.038804,154.027614 L290.138582,154.03273 C291.288156,134.389336 288.467094,114.498629 281.749589,95.9715501" id="Fill-47"></path>
                <path d="M274.704011,97.2832417 C268.638898,79.1296888 259.051721,62.1197406 246.474627,47.6374915 C233.930792,33.1441561 218.437122,21.1478189 201.077526,12.902096 C183.740955,4.62823071 164.546986,0.202198873 145.293322,0.154442074 L145.293322,2.42885959 C164.214394,2.33505159 183.132909,6.54276664 200.291244,14.5744367 C217.470047,22.5779645 232.875878,34.3133448 245.40351,48.5713075 C257.962695,62.817331 267.603599,79.6157848 273.76252,97.6030417 C278.217547,110.572424 280.835643,124.16435 281.615102,137.867992 L281.547731,137.872256 C282.491781,156.875198 279.871979,176.050405 273.724997,194.040221 C267.596776,212.02833 257.985721,228.839576 245.436769,243.09498 C232.920224,257.364029 217.515245,269.109643 200.330473,277.126816 C183.167021,285.171278 164.236567,289.395196 145.293322,289.326119 L145.307819,291.599684 C164.580246,291.526343 183.785301,287.08155 201.126988,278.79404 C218.489996,270.534672 233.98196,258.527249 246.513855,244.022827 C259.07901,229.531197 268.635487,212.506751 274.668194,194.354051 C279.031971,181.264424 281.530675,167.582102 282.182214,153.822174 L282.268347,153.826438 C283.318996,134.740775 280.791297,115.4385 274.704011,97.2832417" id="Fill-49"></path>
                <path d="M267.828311,98.5153671 C262.327752,80.7259598 253.607872,63.8950996 242.011498,49.2695801 C230.452647,34.6312686 215.878296,22.2946643 199.281956,13.6549478 C182.710347,4.99646974 164.055347,0.219937112 145.292895,0.164505114 L145.292895,2.43892263 C163.690349,2.35364263 182.04431,6.89394967 198.435125,15.2974406 C214.848113,23.6821699 229.347418,35.750995 240.902005,50.1581977 C252.494115,64.55005 261.277955,81.1796493 266.879145,98.8129943 C270.927387,111.529947 273.303287,124.771373 274.023903,138.11087 L273.957385,138.114281 C274.801657,156.612365 272.442812,175.253719 266.869764,192.895592 C261.309508,210.532349 252.5504,227.173034 240.96426,241.570856 C229.418201,255.982323 214.914632,268.056265 198.487146,276.438436 C182.084391,284.841927 163.714227,289.386498 145.292895,289.326802 L145.30654,291.600366 C164.090312,291.517645 182.758103,286.735995 199.340799,278.076665 C215.951637,269.439506 230.529399,257.096932 242.079722,242.452651 C253.668421,227.821162 262.362716,210.979216 267.820636,193.18725 C271.766542,180.356022 274.012817,167.028464 274.593574,153.636946 L274.686529,153.64121 C275.623756,135.065521 273.342516,116.309038 267.828311,98.5153671" id="Fill-51"></path>
                <path d="M260.915941,99.7363208 C255.953498,82.3204399 248.079596,65.6848709 237.416185,50.9894218 C232.087891,43.6459613 226.062859,36.7945663 219.385436,30.6296754 C217.731856,29.0716098 215.963149,27.6406115 214.257549,26.1396835 C212.498223,24.7018628 210.680906,23.3339716 208.893438,21.9294101 C207.023247,20.6365653 205.183758,19.2959638 203.286278,18.0440534 L200.391022,16.2369703 C199.423947,15.6383047 198.472222,15.0123495 197.46336,14.4853191 C189.563021,9.96718491 181.11092,6.38542505 172.323669,3.95068114 C163.53983,1.50996762 154.425104,0.225650872 145.293322,0.174482874 L145.293322,2.44890039 C154.223843,2.42928599 163.152658,3.61467795 171.782141,5.93855786 C180.415035,8.25817378 188.741774,11.7077497 196.550011,16.0919943 C197.547787,16.6019687 198.489278,17.2108678 199.445267,17.7933302 L202.309822,19.5492454 C204.187687,20.7678965 206.010121,22.0752389 207.864961,23.3339716 C209.636226,24.705274 211.439046,26.0399059 213.186433,27.4436147 C214.881799,28.9121362 216.638567,30.3107282 218.282765,31.8363873 C224.923519,37.8716527 230.936611,44.5993916 236.270875,51.828577 C246.941961,66.2963284 254.892615,82.7425758 259.960805,100.012628 C263.619317,112.471183 265.768373,125.367224 266.430146,138.347692 L266.367039,138.351103 C267.117503,156.351152 265.004264,174.470593 259.977009,191.755143 C254.959134,209.031165 247.035769,225.488499 236.367241,239.958808 C231.036389,247.189699 225.019885,253.916586 218.373162,259.94844 C211.734967,265.987969 204.446086,271.315411 196.616529,275.680041 C188.798912,280.058316 180.460234,283.501922 171.817106,285.820685 C163.17739,288.144565 154.236635,289.334221 145.293322,289.325693 L145.306966,291.600111 C154.449835,291.535298 163.573089,290.246717 172.367162,287.806856 C181.163794,285.372112 189.624422,281.796322 197.534995,277.284158 C205.456654,272.784785 212.806084,267.31919 219.480096,261.150888 C226.16349,254.988555 232.19108,248.138013 237.517669,240.792847 C248.176815,226.093987 256.023428,209.445626 260.934703,192.024628 C264.481498,179.45862 266.489842,166.481563 267.00408,153.452485 L267.103005,153.457602 C267.933632,135.38336 265.884354,117.16073 260.915941,99.7363208" id="Fill-53"></path>
                <path d="M253.966986,100.943033 C249.516223,83.905795 242.453334,67.4945124 232.720328,52.7606873 C223.001819,38.0558575 210.544117,24.9849924 195.599651,15.4225463 C188.136798,10.6519833 180.024112,6.87322663 171.542163,4.25683632 C163.059362,1.64300442 154.188537,0.245265271 145.29298,0.184716473 L145.29298,2.45913399 C153.963398,2.44890039 162.628698,3.74089234 170.943498,6.22850985 C179.258298,8.72039136 187.241358,12.3558776 194.612961,16.9857287 C209.377487,26.2633395 221.79596,39.0630142 231.537494,53.5486745 C241.295231,68.0616244 248.444253,84.2963774 253.00588,101.198873 C256.293424,113.39306 258.231839,125.949686 258.836474,138.577095 L258.774219,138.580507 C259.439403,156.091901 257.553863,173.700515 253.04852,190.621772 C248.544884,207.53109 241.42571,223.779487 231.670531,238.294143 C221.932408,252.781509 209.489204,265.567539 194.696535,274.821271 C179.933715,284.055389 162.688394,289.355541 145.29298,289.325693 L145.305772,291.600111 C154.214121,291.525917 163.09518,290.127325 171.589067,287.521168 C180.082102,284.909042 188.211844,281.147341 195.684931,276.381895 C210.658392,266.843327 223.141678,253.785254 232.857628,239.077013 C242.588076,224.34063 249.619412,207.91485 254.011332,190.869937 C257.179484,178.573414 258.962688,165.942594 259.412967,153.269133 L259.510186,153.273397 C260.256386,135.692926 258.415191,117.991357 253.966986,100.943033" id="Fill-55"></path>
                <path d="M246.98136,102.133115 C243.014988,85.4787845 236.725588,69.3173723 227.912753,54.5784305 C219.107593,39.8787174 207.71248,26.5272811 193.650662,16.5145567 C186.636382,11.5188545 178.957771,7.38021621 170.764069,4.60605791 C162.591687,1.79778761 153.960498,0.26615887 145.293492,0.194523673 L145.293492,2.46894119 C153.706364,2.46979399 162.107296,3.88544194 170.099738,6.55641144 C178.111793,9.19412174 185.660779,13.1784032 192.588073,18.0257182 C206.47592,27.7391099 217.855683,40.8236198 226.695808,55.3135441 C235.547018,69.8401387 241.932785,85.8378133 246.014285,102.367635 C248.949623,114.294895 250.691893,126.517225 251.241096,138.79925 L251.180547,138.802661 C251.765568,155.835635 250.093227,172.946213 246.079951,189.498208 C242.070938,206.040822 235.704786,222.046172 226.862956,236.577883 C218.028801,251.072071 206.614927,264.13782 192.690409,273.818805 C185.744353,278.648211 178.178312,282.617995 170.148347,285.24206 C162.13885,287.901944 153.724273,289.313327 145.293492,289.326119 L145.305431,291.599684 C153.986935,291.515257 162.630063,289.987892 170.816942,287.191561 C179.026848,284.431048 186.721662,280.306054 193.755556,275.329114 C207.854045,265.347943 219.285829,252.01271 228.083313,237.307027 C236.885914,222.562116 243.156553,206.392175 247.048732,189.725906 C249.858707,177.703132 251.432976,165.410873 251.822706,153.087913 L251.914808,153.090472 C252.585962,135.994391 250.935794,118.799385 246.98136,102.133115" id="Fill-57"></path>
                <path d="M239.958297,103.301963 C236.461817,87.0254226 230.819692,71.1701655 222.927881,56.4678941 C218.972595,49.1252864 214.428877,42.083717 209.242148,35.5308021 C204.066505,28.9710647 198.194124,22.9332409 191.633534,17.7141051 C185.076355,12.5086141 177.831819,8.08002386 169.987765,5.00823838 C162.136888,1.97824009 153.741073,0.289696149 145.293236,0.204416153 L145.293236,2.47883367 C153.451974,2.49333127 161.588538,4.05310241 169.245829,6.93044951 C176.896298,9.8512894 184.011208,14.1135836 190.487371,19.1630123 C196.966945,24.2269385 202.803508,30.1206391 207.966359,36.5524564 C213.142855,42.9774514 217.696806,49.9055983 221.679382,57.1467229 C229.62492,71.6485863 235.370233,87.3537506 238.986105,103.516868 C241.590556,115.173791 243.147769,127.069498 243.645804,139.013814 L243.585255,139.016373 C244.097788,155.582865 242.623297,172.2082 239.073943,188.387521 C235.486214,204.548933 229.820211,220.277976 221.872115,234.77984 C217.89295,242.023522 213.332176,248.948258 208.142888,255.365578 C202.966393,261.788015 197.123007,267.68001 190.614438,272.717499 C184.115249,277.749019 176.974755,281.984876 169.303819,284.889513 C161.625208,287.748951 153.472441,289.300194 145.293236,289.325778 L145.306028,291.600196 C153.769215,291.502977 162.178676,289.822108 170.048314,286.811724 C177.910277,283.755289 185.180396,279.353136 191.761454,274.166406 C198.351892,268.972854 204.231948,262.935031 209.421236,256.384674 C214.622463,249.838581 219.170445,242.798718 223.123173,235.454404 C231.019248,220.749574 236.578651,204.869586 240.046988,188.594752 C242.518402,176.848285 243.895674,164.889471 244.229972,152.906779 L244.31781,152.909337 C244.919887,136.285707 243.448807,119.58362 239.958297,103.301963" id="Fill-59"></path>
                <path d="M232.89771,104.44625 C229.761112,88.5713784 224.843014,73.0035149 217.810826,58.3848179 C214.289615,51.0831445 210.228581,44.0262248 205.545004,37.3880298 C200.861426,30.7549517 195.549335,24.5337759 189.523451,19.0400385 C183.473688,13.5838243 176.653846,8.91389167 169.185877,5.5248646 C161.720466,2.14351272 153.523353,0.337282388 145.29298,0.214479192 L145.29298,2.48889671 C153.190761,2.54177031 161.0911,4.19705505 168.353544,7.41040533 C175.615989,10.630578 182.312174,15.1188642 188.288596,20.4156049 C200.203918,31.1208029 209.425244,44.6248904 216.533331,59.0073618 C223.632891,73.4392957 228.661853,88.8707111 231.922107,104.641541 C234.215286,116.028979 235.590852,127.604033 236.041131,139.220021 L235.98911,139.221727 C236.424038,155.330266 235.165305,171.493383 232.005681,187.289797 C228.819621,203.068302 223.84865,218.517626 216.756765,232.952971 C209.661469,247.341413 200.406884,260.833561 188.438689,271.495266 C182.443505,276.781773 175.709797,281.232536 168.423474,284.430536 C161.134593,287.621713 153.213787,289.261648 145.29298,289.326461 L145.305772,291.600025 C153.552348,291.463577 161.765665,289.676961 169.255807,286.316077 C176.745949,282.950075 183.603313,278.318519 189.670985,272.871685 C195.724159,267.398415 201.060982,261.190031 205.758204,254.563775 C210.456279,247.932403 214.521576,240.876336 218.036818,233.571251 C225.061331,218.945732 229.920585,203.359107 232.98299,187.47656 C235.170422,176.014076 236.347286,164.378473 236.625299,152.72752 L236.720812,152.730078 C237.258076,136.566961 235.954145,120.343294 232.89771,104.44625" id="Fill-61"></path>
                <path d="M212.560392,60.3142778 C209.458759,53.0688893 205.871029,46.0187919 201.691457,39.316637 C197.511884,32.6204516 192.736204,26.2645334 187.23138,20.5593016 C184.511801,17.6742794 181.505681,15.0681226 178.413429,12.5736827 C175.211165,10.2250716 171.942382,7.91995331 168.354653,6.15551017 C161.310525,2.39295671 153.327465,0.358175987 145.293236,0.224286392 L145.293236,2.49870391 C152.937735,2.56351671 160.582234,4.41750384 167.416573,7.99073571 C170.895997,9.65881245 174.087174,11.86927 177.224625,14.1240731 C180.257182,16.528969 183.218956,19.0447289 185.908688,21.849588 C191.355521,27.3927878 196.119262,33.6105524 200.309068,40.1873457 C204.497168,46.7709615 208.115599,53.722134 211.256461,60.880537 C217.528805,75.2118404 221.923283,90.3464815 224.80063,105.741227 C226.242715,113.442863 227.217465,121.22978 227.852801,129.039722 C228.122286,132.493562 228.317577,135.953371 228.448056,139.415739 L228.392624,139.418297 C228.585356,147.252971 228.396888,155.095319 227.826364,162.90782 C227.264369,170.722026 226.296441,178.507237 224.892733,186.211432 C222.103224,201.615557 217.767589,216.76896 211.511448,231.107086 C208.378261,238.2689 204.757272,245.220073 200.554674,251.796866 C196.352076,258.36769 191.564457,264.572662 186.088628,270.092836 C183.386105,272.891726 180.406422,275.39043 177.357662,277.781681 C174.205714,280.027103 170.994922,282.217946 167.501853,283.874084 C160.633402,287.416615 152.965878,289.250988 145.293236,289.326034 L145.305175,291.599599 C153.359018,291.454623 161.36084,289.441162 168.437375,285.711015 C172.037896,283.958511 175.328851,281.674713 178.543054,279.33463 C181.652363,276.853835 184.67895,274.263881 187.409616,271.384828 C192.945993,265.700064 197.745551,259.356085 201.940474,252.665016 C206.133692,245.968831 209.724832,238.917028 212.817938,231.667376 C218.993915,217.154426 223.211864,201.877367 225.8726,186.379433 C227.213201,178.628334 228.113758,170.804747 228.606676,162.95984 C228.828404,159.493209 228.961441,156.023165 229.033076,152.550564 L229.123473,152.553122 C229.992476,121.158997 224.859473,89.3819647 212.560392,60.3142778" id="Fill-63"></path>
                <path d="M221.105021,129.453927 C220.624042,121.823072 219.829233,114.205863 218.626785,106.649203 C216.234681,91.5435568 212.581286,76.5922678 207.14895,62.2524363 C204.436193,55.0863581 201.298742,48.06952 197.627438,41.3264306 C193.946754,34.5944277 189.765475,28.0960919 184.791946,22.2006857 C183.518716,20.754337 182.310298,19.2491451 180.930468,17.8957515 L178.915301,15.8157724 L176.776479,13.8577437 C175.388974,12.5094669 173.810441,11.3735373 172.313777,10.1437998 C171.549668,9.55025101 170.726716,9.03089583 169.934465,8.47060625 C169.135391,7.92055027 168.347404,7.35173269 167.489487,6.88951511 L164.9652,5.42525756 C164.103872,4.97412638 163.209284,4.58183839 162.332606,4.15714401 L161.010766,3.53204163 L159.636053,3.02547845 C158.715881,2.70056166 157.811913,2.32277127 156.876392,2.04220009 C153.125778,0.905417727 149.219954,0.337452948 145.293663,0.234264151 L145.293663,2.50868167 C148.990551,2.57605287 152.679763,3.07323525 156.247878,4.11706241 C157.139054,4.374608 158.002088,4.72851999 158.880472,5.02870558 L160.194637,5.49689276 L161.461897,6.08361914 C162.305316,6.48272952 163.163233,6.84772791 163.993008,7.27242229 L166.43031,8.65736944 C167.258379,9.09144463 168.02334,9.63553101 168.799388,10.1591502 C169.568614,10.693003 170.367687,11.1842157 171.113887,11.7530333 C172.573881,12.9333085 174.113185,14.0146588 175.476812,15.3177372 L177.577258,17.2032779 L179.562577,19.2158859 C180.92194,20.524081 182.120124,21.9891914 183.381415,23.3937529 C188.310599,29.1262743 192.496141,35.4949845 196.19644,42.1152706 C199.888211,48.7483488 203.063185,55.6730845 205.82114,62.7607051 C211.346431,76.9427685 215.121777,91.785752 217.643506,106.806971 C218.913326,114.320991 219.773801,121.904088 220.32471,129.5068 C220.560082,132.866832 220.734906,136.233686 220.853445,139.602246 L220.794602,139.603952 C221.108433,154.842634 220.191673,170.119693 217.745842,185.161379 C215.33583,200.197948 211.580951,215.046048 206.081244,229.234934 C203.335229,236.325966 200.161107,243.25326 196.459955,249.881221 C192.745159,256.493832 188.551088,262.86169 183.593762,268.577155 C182.314562,269.966366 181.122348,271.440857 179.750193,272.737113 L177.747818,274.736929 C177.054492,275.375676 176.338993,275.98884 175.636286,276.614795 C174.259866,277.90764 172.71971,278.990696 171.244366,280.156473 C170.499019,280.729555 169.690564,281.208828 168.917075,281.740123 C168.133351,282.256067 167.366684,282.801859 166.534351,283.230817 L164.081699,284.601267 C163.248513,285.025961 162.384627,285.384137 161.537796,285.779836 L160.262861,286.360593 L158.942726,286.825369 C158.059225,287.122143 157.191928,287.470938 156.297341,287.727631 C152.71217,288.760372 149.008459,289.254996 145.293663,289.325778 L145.304749,291.599343 C149.243832,291.494449 153.159037,290.924778 156.924149,289.802494 C157.862229,289.521922 158.770461,289.151807 159.695749,288.829449 L161.073873,288.326297 L162.403388,287.708017 C163.285184,287.287586 164.18574,286.902974 165.048774,286.45099 L167.588412,285.002083 C168.451446,284.545835 169.239433,283.972753 170.047035,283.432078 C170.842697,282.874347 171.675883,282.367783 172.439991,281.769118 C173.952858,280.554731 175.530538,279.416243 176.931689,278.0782 C177.648041,277.427513 178.378037,276.790472 179.08245,276.127846 L181.114673,274.060659 C182.508148,272.717499 183.710596,271.202926 185.00344,269.771928 C190.005112,263.891872 194.196624,257.393536 197.892659,250.668356 C201.575049,243.926972 204.709942,236.907575 207.409907,229.737233 C212.818364,215.388874 216.451292,200.430762 218.729121,185.310619 C220.397198,174.406719 221.255967,163.394513 221.440172,152.376337 L221.524599,152.378895 C221.774469,144.736955 221.568092,137.085634 221.105021,129.453927" id="Fill-65"></path>
                <path d="M213.572239,129.904887 C213.394004,126.189238 213.061412,122.483822 212.748435,118.7767 L212.150622,113.228384 C211.960447,111.376955 211.675612,109.538318 211.442798,107.692006 C210.427113,100.320404 209.127446,92.985471 207.510537,85.7162041 C205.86975,78.4529067 203.904046,71.2586862 201.573344,64.1804464 C199.238377,57.1030595 196.534149,50.139095 193.34553,43.3874776 C190.154352,36.6418299 186.482196,30.0974429 182.128652,23.9939535 C177.805809,17.8810833 172.645516,12.2807459 166.550555,7.77710931 C165.79668,7.20573334 164.972022,6.72901815 164.184035,6.20028217 L162.990115,5.4267926 C162.579918,5.18800861 162.152665,4.97651422 161.734793,4.75052223 C160.88711,4.31815264 160.066717,3.83120386 159.195155,3.44488547 L156.548064,2.35585991 C152.950954,1.06386796 149.144907,0.315962388 145.293663,0.244327191 L145.293663,2.51874471 C148.866895,2.55541511 152.41369,3.21377668 155.806981,4.39234624 L158.311654,5.395239 C159.138017,5.75085659 159.921741,6.20966297 160.728489,6.61047896 C161.128452,6.82112055 161.535238,7.01641174 161.928379,7.23984533 L163.074542,7.96898931 C163.831828,8.46787729 164.62408,8.91218607 165.353224,9.45371405 C171.240955,13.7202723 176.334729,19.1176433 180.632841,25.0778623 C184.961653,31.0261421 188.650013,37.4485786 191.871891,44.093596 C195.090358,50.7428773 197.839786,57.6258259 200.22592,64.6315776 C202.60779,71.6398878 204.631484,78.7744123 206.33282,85.9865416 C208.011131,93.2046406 209.376464,100.496933 210.458667,107.831866 C210.707684,109.668797 211.009575,111.498906 211.2151,113.340953 L211.864934,118.865392 C212.212023,122.557163 212.578727,126.248081 212.791927,129.951791 C212.996599,133.223985 213.150956,136.499589 213.256703,139.777752 L213.195302,139.779458 C213.472462,154.608797 212.663155,169.464572 210.566119,184.143818 C208.518547,198.823064 205.229297,213.341131 200.503933,227.372248 C198.134002,234.383117 195.389691,241.267771 192.163549,247.9162 C188.936554,254.558659 185.22858,260.97342 180.868213,266.904644 C176.539401,272.846954 171.418337,278.23068 165.47688,282.453746 C164.746883,282.998685 163.946104,283.431907 163.184553,283.927384 L162.029009,284.648853 C161.635868,284.874845 161.223113,285.063314 160.822297,285.273955 C160.008726,285.670507 159.219033,286.120786 158.388406,286.476403 L155.866677,287.467357 C152.454624,288.633134 148.886509,289.284673 145.293663,289.325608 L145.304749,291.599173 C149.169639,291.523273 152.98933,290.78219 156.603496,289.504696 L159.265937,288.429315 C160.140057,288.042997 160.968126,287.565429 161.820073,287.137323 C162.240504,286.912184 162.672873,286.708365 163.082217,286.465317 L164.286371,285.700355 C165.078622,285.17503 165.913513,284.710254 166.667388,284.135467 C172.817782,279.676176 178.007069,274.087778 182.362319,267.990258 C186.749122,261.902119 190.441746,255.363702 193.640598,248.618907 C196.835187,241.86729 199.535152,234.899061 201.853915,227.81741 C206.476091,213.643022 209.638273,199.028589 211.551956,184.274296 C212.967604,173.639028 213.699307,162.925302 213.845988,152.206459 L213.926151,152.208165 C214.147879,144.774307 213.966233,137.331069 213.572239,129.904887" id="Fill-67"></path>
                <path d="M289.459839,1.58228506 L289.464103,0.445502704 L145.448361,0.82414589 L145.445802,1.37931867 C146.644839,1.38017147 147.841317,1.39466907 149.033532,1.42536987 L258.295116,2.43252663 L185.552132,7.07602246 C186.478273,7.34380165 187.402708,7.61584484 188.321173,7.90238563 L261.598011,4.14836017 L200.445431,12.2977167 C201.116584,12.5748767 201.785179,12.8571534 202.452069,13.144547 L264.636537,5.69960331 L210.923784,17.1237117 C211.466165,17.4000189 212.00087,17.6882653 212.538987,17.9713949 L267.408137,7.10757606 L219.284635,21.7595323 C219.748558,22.0366923 220.212481,22.3138523 220.673846,22.5961291 L269.907694,8.40212641 L226.419159,26.305809 C226.823386,26.5812633 227.22335,26.8626873 227.624166,27.1415529 L272.137766,9.62163037 L232.726468,30.8529384 C233.088908,31.1292456 233.452201,31.4055528 233.812082,31.6852712 L274.111145,10.8129919 L238.466664,35.4597638 C238.798404,35.740335 239.131848,36.017495 239.461882,36.3014774 L275.853415,12.0256735 L243.799223,40.1936564 C244.107936,40.4819028 244.420914,40.766738 244.727069,41.0583956 L277.395277,13.319371 L248.837565,45.1271043 C249.130928,45.4281427 249.429408,45.7257698 249.718507,46.0293666 L278.78193,14.7461054 L253.671235,50.3428289 C253.954365,50.6643345 254.243464,50.9798705 254.524035,51.3039344 L280.069658,16.3544861 L258.376132,55.9525471 C258.654145,56.3030479 258.933864,56.6509902 259.208465,57.0031966 L281.313893,18.1845949 L263.022187,62.1072044 C263.300199,62.4977868 263.570537,62.8943388 263.844286,63.2866268 L282.569215,20.2637212 L267.674211,69.0651994 C267.952223,69.5069498 268.230236,69.9478474 268.503985,70.3930089 L283.887644,22.6020987 L272.433687,77.1949415 C272.715111,77.7151495 272.988007,78.2421799 273.262609,78.7666518 L285.310967,25.2082554 L277.413186,87.3372915 C277.692905,87.9692163 277.972623,88.6019939 278.244666,89.2390354 L286.870738,28.0830441 L282.846375,101.583315 C283.123535,102.44379 283.39302,103.306824 283.653124,104.173268 L288.592541,31.2281704 L289.567291,138.09424 C289.630398,139.293277 289.679008,140.49743 289.71312,141.704142 L290.168515,141.704142 L290.596621,1.57887386 L289.459839,1.58228506 Z" id="Fill-87"></path>
            </g>
        </g>
    </g>
</svg>