<?xml version="1.0" encoding="UTF-8"?>
<svg width="291px" height="292px" viewBox="0 0 291 292" version="1.1" xmlns="http://www.w3.org/2000/svg" xmlns:xlink="http://www.w3.org/1999/xlink">
    <title>O_19</title>
    <g id="Page-1" stroke="none" stroke-width="1" fill="none" fill-rule="evenodd">
        <g id="ui_kit-copy" transform="translate(-479.000000, -5844.000000)" fill="#707376">
            <g id="O_19" transform="translate(479.000000, 5844.000000)">
                <path d="M1.02770924,136.895971 L1.98710921,32.6931954 L6.60587384,105.044745 C6.87535863,104.127132 7.15081302,103.211225 7.43905941,102.301287 L3.70379554,29.3979764 L11.8215984,90.3168893 C12.0996112,89.649147 12.3852992,88.9865214 12.6735456,88.3247486 L5.25418589,26.3551861 L16.6467407,79.9195521 C16.9256063,79.3788769 17.2129998,78.8441713 17.497835,78.3069074 L6.66215864,23.5827334 L21.2817085,71.6013412 C21.5597213,71.1391236 21.8394397,70.6794644 22.1225693,70.2206581 L7.95841459,21.0882935 L25.8313963,64.5026343 C26.1077035,64.0975543 26.3882747,63.6967383 26.6679931,63.2950695 L9.17791854,18.8556631 L30.3802314,58.2157929 C30.6573914,57.8525001 30.9328457,57.4883545 31.2134169,57.1276201 L10.3684273,16.8814312 L34.990468,52.4900939 C35.2710392,52.1592075 35.5481992,51.8240571 35.8330344,51.4948764 L11.5811089,15.1391609 L39.7303302,47.1711805 C40.0185766,46.8624669 40.302559,46.5486365 40.5942166,46.2424813 L12.8748064,13.5981513 L44.6688948,42.1430719 C44.970786,41.8497087 45.2675604,41.5520815 45.57201,41.2621295 L14.300688,12.2106458 L49.8940002,37.3179297 C50.2155058,37.0348001 50.534453,36.7482593 50.8593698,36.4685409 L15.9099215,10.9229178 L55.513952,32.6198546 C55.8653056,32.3418419 56.2166592,32.0655347 56.5705712,31.7900803 L17.740883,9.67868268 L61.6848126,27.97977 C62.0762478,27.7017572 62.4745054,27.433978 62.868499,27.1593764 L19.8165982,8.42250833 L68.666686,23.3311574 C69.1084363,23.0548502 69.5484811,22.7751318 69.9936427,22.5030886 L22.1558285,7.10407958 L76.8339513,18.5759448 C77.3541592,18.2953736 77.879484,18.0216248 78.4031032,17.747876 L24.767102,5.68246203 L87.0325861,13.5964457 C87.6645109,13.318433 88.2938772,13.0361562 88.9309188,12.7666714 L27.6393323,4.12183809 L101.401413,8.15984594 C102.270416,7.88353875 103.141977,7.61831796 104.017803,7.35821397 L30.774225,2.39918215 L141.259578,1.39202539 L141.257872,0.82406061 L1.13430924,0.395102226 L1.13772044,1.52591498 L1.13772044,1.53188458 L8.52799969e-05,1.52847338 L0.378728466,145.545068 L0.744579653,145.545068 C0.751402052,142.640431 0.851179649,139.757968 1.02770924,136.895971" id="Fill-1"></path>
                <path d="M290.596621,289.855282 L290.168515,149.730013 L289.726765,149.730013 C289.6918,151.076585 289.634662,152.418039 289.563027,153.756082 L288.592541,260.205985 L283.673591,187.550839 C283.410928,188.422401 283.141444,189.290551 282.863431,190.15529 L286.870738,263.351112 L278.283042,202.463752 C278.010146,203.103352 277.728722,203.737835 277.448151,204.372319 L285.310967,266.2259 L273.318893,212.917374 C273.042586,213.443552 272.76969,213.971435 272.487414,214.493349 L283.887644,268.831204 L268.579031,221.275667 C268.305282,221.722534 268.025564,222.164284 267.747551,222.60774 L282.570068,271.171287 L263.939799,228.364993 C263.664345,228.760692 263.395713,229.160655 263.115995,229.552943 L281.313893,273.249561 L259.325299,234.634778 C259.049844,234.989543 258.770979,235.341749 258.492113,235.693103 L280.069658,275.07967 L254.663041,240.322101 C254.38247,240.647018 254.095077,240.965965 253.811094,241.289176 L278.783636,276.689756 L249.889067,245.586435 C249.59741,245.891738 249.298077,246.189365 249.004714,246.492962 L277.395277,278.114785 L244.926624,250.54632 C244.620469,250.83883 244.305786,251.123666 243.995367,251.412765 L275.853415,279.408482 L239.696402,255.289594 C239.367221,255.574429 239.030365,255.852441 238.698626,256.133865 L274.11285,280.622017 L234.088389,259.892155 C233.727655,260.173579 233.362657,260.449886 232.998511,260.727899 L272.136913,281.811673 L227.951641,264.421376 C227.549119,264.7028 227.146598,264.983371 226.741518,265.260531 L269.905988,283.032029 L221.063575,268.950596 C220.603916,269.234579 220.144257,269.517708 219.681187,269.796574 L267.408137,284.32658 L213.029347,273.55998 C212.490377,273.846521 211.952261,274.133914 211.410733,274.413633 L264.636537,285.734552 L203.091669,278.365508 C202.429043,278.65546 201.768123,278.944559 201.102087,279.224277 L261.592894,287.285796 L189.268634,283.58038 C188.362108,283.869479 187.451317,284.149197 186.537116,284.420388 L258.295116,289.001629 L157.021709,289.934592 C153.202871,290.242453 149.343951,290.406191 145.447508,290.410455 L145.447508,290.61001 L289.464103,290.988653 L289.459839,289.851871 L290.596621,289.855282 Z" id="Fill-3"></path>
                <path d="M133.947927,289.974759 L30.7761864,289.034121 L103.043309,284.141607 C102.179422,283.878945 101.320653,283.604343 100.463589,283.325478 L27.6438521,287.311465 L88.3154531,278.75447 C87.6750003,278.479868 87.0371059,278.201003 86.4026228,277.91702 L24.7673578,285.751694 L77.9309079,273.79288 C77.4047303,273.514867 76.8742887,273.242824 76.3523751,272.958841 L22.1577899,284.329223 L69.6178138,269.052165 C69.1717994,268.777563 68.7266378,268.498698 68.2840346,268.218979 L19.8142956,283.0125 L62.552366,264.411227 C62.1592252,264.136626 61.7626733,263.86373 61.3712381,263.584864 L17.7402861,281.755473 L56.3039007,259.795874 C55.9508415,259.519567 55.6020463,259.238143 55.2515455,258.957571 L15.9101773,280.511238 L50.6353393,255.130205 C50.3104225,254.847928 49.9923281,254.557976 49.6708225,254.273994 L14.2992382,279.225216 L45.3846499,250.345997 C45.0802003,250.05434 44.7817203,249.75586 44.4789763,249.461644 L12.8733566,277.836857 L40.4367044,245.377585 C40.144194,245.069724 39.8585061,244.756746 39.5685541,244.446327 L11.5813647,276.294142 L35.7002534,240.137982 C35.4154182,239.807948 35.1365526,239.471945 34.8551286,239.139353 L10.3686831,274.552724 L31.1036616,234.51803 C30.8222376,234.156443 30.5459304,233.792297 30.2679176,233.427299 L9.17732158,272.578493 L26.5795577,228.365931 C26.2989866,227.962557 26.015857,227.560035 25.7395498,227.154955 L7.95867043,270.345009 L22.0528955,221.456546 C21.7689131,220.996034 21.4891947,220.53211 21.2103291,220.067334 L6.66241448,267.851422 L17.4469229,213.385647 C17.1620877,212.846677 16.8712829,212.310266 16.5932701,211.767032 L5.25444173,265.07897 L12.6405423,203.389125 C12.3514431,202.723089 12.0649023,202.056199 11.7860367,201.385898 L3.70319858,262.036179 L7.42311205,189.439876 C7.13401286,188.525675 6.85770567,187.604651 6.58651528,186.682774 L1.98736505,258.74096 L1.03137628,154.954351 C0.846318689,151.957612 0.740571493,148.9387 0.740571493,145.895057 L0.740571493,145.889088 L0.378984306,145.889088 L0.000341119987,289.90483 L1.13627068,289.901418 L1.13797628,289.901418 L1.13797628,289.902271 L1.13797628,289.908241 L1.13456508,291.039053 L141.258128,290.610095 L141.258128,290.355961 C138.805475,290.289442 136.368173,290.162375 133.947927,289.974759" id="Fill-5"></path>
                <path d="M40.6512689,244.534507 C27.1949382,230.418962 16.605721,213.546314 9.83704764,195.216232 C4.95562062,182.000391 2.08339032,168.055406 1.23911835,153.980795 L1.30990075,153.976531 C0.26180959,134.460204 3.15877108,114.74091 9.90356604,96.4125329 C16.6458026,78.0824504 27.2102886,61.2004222 40.6495633,47.0678212 C54.0768988,32.9224281 70.3824342,21.5290205 88.2920864,13.8478512 C106.191505,6.13342266 125.681395,2.2079844 145.15423,2.27365 L145.138879,8.52799969e-05 C125.365007,0.0759844772 105.621835,4.21035873 87.5501504,12.155896 C69.4656743,20.0698797 53.0637725,31.7157161 39.6100001,46.0981876 C26.1442886,60.4678671 15.6198842,77.5716232 8.96804447,96.0765298 C4.16763345,109.418585 1.40456155,123.458231 0.677123175,137.592538 L0.596959978,137.588274 C-0.573934379,157.191587 2.21727992,177.05074 8.90237887,195.557352 C15.5832138,214.063964 26.134055,231.158339 39.6176753,245.510963 C53.0910621,259.875525 69.5049031,271.497483 87.590232,279.383325 C105.663622,287.301572 125.398266,291.40354 145.15423,291.455561 L145.15423,289.181996 C125.70101,289.27154 106.221353,285.375097 88.3219344,277.686253 C70.4122822,270.030667 54.0965132,258.662844 40.6512689,244.534507" id="Fill-7"></path>
                <path d="M44.9343715,48.4762203 C57.4739422,34.2029072 72.8968296,22.4555877 90.0943938,14.443532 C107.271491,6.40248105 126.211325,2.190502 145.154571,2.2834572 L145.154571,0.00989247964 C125.878733,0.0576492779 106.662592,4.48794512 89.3072594,12.7711912 C71.9289017,21.0262949 56.4190287,33.0345713 43.8624019,47.5424043 C31.2733688,62.0382982 21.6768107,79.0661552 15.6048749,97.2367641 C11.2121023,110.340036 8.680992,124.039414 7.99960483,137.824073 L7.89726883,137.819809 C6.85429447,156.94129 9.39478558,176.275971 15.5059502,194.452549 C21.5975003,212.625717 31.2145256,229.650162 43.8299955,244.124736 C56.4122063,258.611249 71.9451049,270.583708 89.3311378,278.79873 C106.693292,287.041895 125.900906,291.432109 145.154571,291.455135 L145.140073,289.180717 C126.218148,289.296698 107.2894,285.123948 90.106333,277.121273 C72.9027992,269.147593 57.4594446,257.435238 44.8951427,243.184098 C32.2984343,228.94575 22.6310939,212.134504 16.4465885,194.127633 C11.9745055,181.143753 9.34617598,167.533066 8.55818881,153.806397 L8.6016816,153.804692 C7.69515524,134.763374 10.3618607,115.562583 16.5480717,97.5565641 C22.7121099,79.5513984 32.3623943,62.7367414 44.9343715,48.4762203" id="Fill-9"></path>
                <path d="M281.749589,95.9715501 C275.036347,77.4453236 264.451394,60.3424202 250.93622,45.9923551 C237.43128,31.6286452 220.991002,20.0194793 202.886059,12.1515468 C184.793907,4.25035504 165.04903,0.172265594 145.293066,0.144975995 L145.307563,2.41939351 C164.759078,2.30597112 184.248115,6.18194697 202.165443,13.8528827 C220.092151,21.491412 236.434357,32.8481492 249.908596,46.9747807 C263.394775,61.0877674 274.018104,77.9689427 280.816626,96.3186397 C285.721078,109.547273 288.614628,123.511019 289.477662,137.608656 L289.426494,137.612067 C290.452412,157.167623 287.523897,176.917618 280.745843,195.265609 C273.9712,213.614453 263.370897,230.504156 249.900921,244.633346 C236.442885,258.776181 220.110913,270.155944 202.181646,277.819204 C184.264319,285.515724 164.765047,289.416431 145.293066,289.326034 L145.293066,291.600452 C165.068644,291.548431 184.822903,287.443052 202.914201,279.516276 C221.018292,271.621907 237.448336,259.989715 250.933662,245.609802 C264.43178,231.243534 274.992855,214.132103 281.680512,195.606729 C286.505654,182.250176 289.292604,168.18921 290.038804,154.027614 L290.138582,154.03273 C291.288156,134.389336 288.467094,114.498629 281.749589,95.9715501" id="Fill-47"></path>
                <path d="M274.704011,97.2832417 C268.638898,79.1296888 259.051721,62.1197406 246.474627,47.6374915 C233.930792,33.1441561 218.437122,21.1478189 201.077526,12.902096 C183.740955,4.62823071 164.546986,0.202198873 145.293322,0.154442074 L145.293322,2.42885959 C164.214394,2.33505159 183.132909,6.54276664 200.291244,14.5744367 C217.470047,22.5779645 232.875878,34.3133448 245.40351,48.5713075 C257.962695,62.817331 267.603599,79.6157848 273.76252,97.6030417 C278.217547,110.572424 280.835643,124.16435 281.615102,137.867992 L281.547731,137.872256 C282.491781,156.875198 279.871979,176.050405 273.724997,194.040221 C267.596776,212.02833 257.985721,228.839576 245.436769,243.09498 C232.920224,257.364029 217.515245,269.109643 200.330473,277.126816 C183.167021,285.171278 164.236567,289.395196 145.293322,289.326119 L145.307819,291.599684 C164.580246,291.526343 183.785301,287.08155 201.126988,278.79404 C218.489996,270.534672 233.98196,258.527249 246.513855,244.022827 C259.07901,229.531197 268.635487,212.506751 274.668194,194.354051 C279.031971,181.264424 281.530675,167.582102 282.182214,153.822174 L282.268347,153.826438 C283.318996,134.740775 280.791297,115.4385 274.704011,97.2832417" id="Fill-49"></path>
                <path d="M289.459839,1.58228506 L289.464103,0.445502704 L145.448361,0.82414589 L145.445802,1.37931867 C146.644839,1.38017147 147.841317,1.39466907 149.033532,1.42536987 L258.295116,2.43252663 L185.552132,7.07602246 C186.478273,7.34380165 187.402708,7.61584484 188.321173,7.90238563 L261.598011,4.14836017 L200.445431,12.2977167 C201.116584,12.5748767 201.785179,12.8571534 202.452069,13.144547 L264.636537,5.69960331 L210.923784,17.1237117 C211.466165,17.4000189 212.00087,17.6882653 212.538987,17.9713949 L267.408137,7.10757606 L219.284635,21.7595323 C219.748558,22.0366923 220.212481,22.3138523 220.673846,22.5961291 L269.907694,8.40212641 L226.419159,26.305809 C226.823386,26.5812633 227.22335,26.8626873 227.624166,27.1415529 L272.137766,9.62163037 L232.726468,30.8529384 C233.088908,31.1292456 233.452201,31.4055528 233.812082,31.6852712 L274.111145,10.8129919 L238.466664,35.4597638 C238.798404,35.740335 239.131848,36.017495 239.461882,36.3014774 L275.853415,12.0256735 L243.799223,40.1936564 C244.107936,40.4819028 244.420914,40.766738 244.727069,41.0583956 L277.395277,13.319371 L248.837565,45.1271043 C249.130928,45.4281427 249.429408,45.7257698 249.718507,46.0293666 L278.78193,14.7461054 L253.671235,50.3428289 C253.954365,50.6643345 254.243464,50.9798705 254.524035,51.3039344 L280.069658,16.3544861 L258.376132,55.9525471 C258.654145,56.3030479 258.933864,56.6509902 259.208465,57.0031966 L281.313893,18.1845949 L263.022187,62.1072044 C263.300199,62.4977868 263.570537,62.8943388 263.844286,63.2866268 L282.569215,20.2637212 L267.674211,69.0651994 C267.952223,69.5069498 268.230236,69.9478474 268.503985,70.3930089 L283.887644,22.6020987 L272.433687,77.1949415 C272.715111,77.7151495 272.988007,78.2421799 273.262609,78.7666518 L285.310967,25.2082554 L277.413186,87.3372915 C277.692905,87.9692163 277.972623,88.6019939 278.244666,89.2390354 L286.870738,28.0830441 L282.846375,101.583315 C283.123535,102.44379 283.39302,103.306824 283.653124,104.173268 L288.592541,31.2281704 L289.567291,138.09424 C289.630398,139.293277 289.679008,140.49743 289.71312,141.704142 L290.168515,141.704142 L290.596621,1.57887386 L289.459839,1.58228506 Z" id="Fill-87"></path>
            </g>
        </g>
    </g>
</svg>