<?xml version="1.0" encoding="UTF-8"?>
<svg width="291px" height="291px" viewBox="0 0 291 291" version="1.1" xmlns="http://www.w3.org/2000/svg" xmlns:xlink="http://www.w3.org/1999/xlink">
    <title>O_22</title>
    <defs>
        <rect id="path-1" x="0" y="0" width="291" height="291"></rect>
    </defs>
    <g id="Page-1" stroke="none" stroke-width="1" fill="none" fill-rule="evenodd">
        <g id="ui_kit-copy" transform="translate(-479.000000, -6786.000000)">
            <g id="Fill-1-+-Fill-3-+-Fill-5-+-Fill-87-Mask" transform="translate(479.000000, 6786.000000)">
                <mask id="mask-2" fill="white">
                    <use xlink:href="#path-1"></use>
                </mask>
                <g id="Mask"></g>
                <path d="M-2.97229076,132.895971 L-2.01289079,28.6931954 L2.60587384,101.044745 C2.87535863,100.127132 3.15081302,99.2112249 3.43905941,98.3012873 L-0.296204456,25.3979764 L7.82159845,86.3168893 C8.09961124,85.649147 8.38529923,84.9865214 8.67354562,84.3247486 L1.25418589,22.3551861 L12.6467407,75.9195521 C12.9256063,75.3788769 13.2129998,74.8441713 13.497835,74.3069074 L2.66215864,19.5827334 L17.2817085,67.6013412 C17.5597213,67.1391236 17.8394397,66.6794644 18.1225693,66.2206581 L3.95841459,17.0882935 L21.8313963,60.5026343 C22.1077035,60.0975543 22.3882747,59.6967383 22.6679931,59.2950695 L5.17791854,14.8556631 L26.3802314,54.2157929 C26.6573914,53.8525001 26.9328457,53.4883545 27.2134169,53.1276201 L6.3684273,12.8814312 L30.990468,48.4900939 C31.2710392,48.1592075 31.5481992,47.8240571 31.8330344,47.4948764 L7.58110886,11.1391609 L35.7303302,43.1711805 C36.0185766,42.8624669 36.302559,42.5486365 36.5942166,42.2424813 L8.87480641,9.59815134 L40.6688948,38.1430719 C40.970786,37.8497087 41.2675604,37.5520815 41.57201,37.2621295 L10.300688,8.21064579 L45.8940002,33.3179297 C46.2155058,33.0348001 46.534453,32.7482593 46.8593698,32.4685409 L11.9099215,6.92291784 L51.513952,28.6198546 C51.8653056,28.3418419 52.2166592,28.0655347 52.5705712,27.7900803 L13.740883,5.67868268 L57.6848126,23.97977 C58.0762478,23.7017572 58.4745054,23.433978 58.868499,23.1593764 L15.8165982,4.42250833 L64.666686,19.3311574 C65.1084363,19.0548502 65.5484811,18.7751318 65.9936427,18.5030886 L18.1558285,3.10407958 L72.8339513,14.5759448 C73.3541592,14.2953736 73.879484,14.0216248 74.4031032,13.747876 L20.767102,1.68246203 L83.0325861,9.59644574 C83.6645109,9.31843295 84.2938772,9.03615616 84.9309188,8.76667137 L23.6393323,0.121838089 L97.4014128,4.15984594 C98.2704159,3.88353875 99.1419775,3.61831796 100.017803,3.35821397 L26.774225,-1.60081785 L137.259578,-2.60797461 L137.257872,-3.17593939 L-2.86569076,-3.60489777 L-2.86227956,-2.47408502 L-2.86227956,-2.46811542 L-3.99991472,-2.47152662 L-3.62127153,141.545068 L-3.25542035,141.545068 C-3.24859795,138.640431 -3.14882035,135.757968 -2.97229076,132.895971" id="Fill-1" fill="#707376" mask="url(#mask-2)"></path>
                <path d="M294.596621,293.855282 L294.168515,153.730013 L293.726765,153.730013 C293.6918,155.076585 293.634662,156.418039 293.563027,157.756082 L292.592541,264.205985 L287.673591,191.550839 C287.410928,192.422401 287.141444,193.290551 286.863431,194.15529 L290.870738,267.351112 L282.283042,206.463752 C282.010146,207.103352 281.728722,207.737835 281.448151,208.372319 L289.310967,270.2259 L277.318893,216.917374 C277.042586,217.443552 276.76969,217.971435 276.487414,218.493349 L287.887644,272.831204 L272.579031,225.275667 C272.305282,225.722534 272.025564,226.164284 271.747551,226.60774 L286.570068,275.171287 L267.939799,232.364993 C267.664345,232.760692 267.395713,233.160655 267.115995,233.552943 L285.313893,277.249561 L263.325299,238.634778 C263.049844,238.989543 262.770979,239.341749 262.492113,239.693103 L284.069658,279.07967 L258.663041,244.322101 C258.38247,244.647018 258.095077,244.965965 257.811094,245.289176 L282.783636,280.689756 L253.889067,249.586435 C253.59741,249.891738 253.298077,250.189365 253.004714,250.492962 L281.395277,282.114785 L248.926624,254.54632 C248.620469,254.83883 248.305786,255.123666 247.995367,255.412765 L279.853415,283.408482 L243.696402,259.289594 C243.367221,259.574429 243.030365,259.852441 242.698626,260.133865 L278.11285,284.622017 L238.088389,263.892155 C237.727655,264.173579 237.362657,264.449886 236.998511,264.727899 L276.136913,285.811673 L231.951641,268.421376 C231.549119,268.7028 231.146598,268.983371 230.741518,269.260531 L273.905988,287.032029 L225.063575,272.950596 C224.603916,273.234579 224.144257,273.517708 223.681187,273.796574 L271.408137,288.32658 L217.029347,277.55998 C216.490377,277.846521 215.952261,278.133914 215.410733,278.413633 L268.636537,289.734552 L207.091669,282.365508 C206.429043,282.65546 205.768123,282.944559 205.102087,283.224277 L265.592894,291.285796 L193.268634,287.58038 C192.362108,287.869479 191.451317,288.149197 190.537116,288.420388 L262.295116,293.001629 L161.021709,293.934592 C157.202871,294.242453 153.343951,294.406191 149.447508,294.410455 L149.447508,294.61001 L293.464103,294.988653 L293.459839,293.851871 L294.596621,293.855282 Z" id="Fill-3" fill="#707376" mask="url(#mask-2)"></path>
                <path d="M129.947927,293.974759 L26.7761864,293.034121 L99.0433085,288.141607 C98.1794222,287.878945 97.3206526,287.604343 96.4635886,287.325478 L23.6438521,291.311465 L84.3154531,282.75447 C83.6750003,282.479868 83.0371059,282.201003 82.4026228,281.91702 L20.7673578,289.751694 L73.9309079,277.79288 C73.4047303,277.514867 72.8742887,277.242824 72.3523751,276.958841 L18.1577899,288.329223 L65.6178138,273.052165 C65.1717994,272.777563 64.7266378,272.498698 64.2840346,272.218979 L15.8142956,287.0125 L58.552366,268.411227 C58.1592252,268.136626 57.7626733,267.86373 57.3712381,267.584864 L13.7402861,285.755473 L52.3039007,263.795874 C51.9508415,263.519567 51.6020463,263.238143 51.2515455,262.957571 L11.9101773,284.511238 L46.6353393,259.130205 C46.3104225,258.847928 45.9923281,258.557976 45.6708225,258.273994 L10.2992382,283.225216 L41.3846499,254.345997 C41.0802003,254.05434 40.7817203,253.75586 40.4789763,253.461644 L8.87335665,281.836857 L36.4367044,249.377585 C36.144194,249.069724 35.8585061,248.756746 35.5685541,248.446327 L7.5813647,280.294142 L31.7002534,244.137982 C31.4154182,243.807948 31.1365526,243.471945 30.8551286,243.139353 L6.36868314,278.552724 L27.1036616,238.51803 C26.8222376,238.156443 26.5459304,237.792297 26.2679176,237.427299 L5.17732158,276.578493 L22.5795577,232.365931 C22.2989866,231.962557 22.015857,231.560035 21.7395498,231.154955 L3.95867043,274.345009 L18.0528955,225.456546 C17.7689131,224.996034 17.4891947,224.53211 17.2103291,224.067334 L2.66241448,271.851422 L13.4469229,217.385647 C13.1620877,216.846677 12.8712829,216.310266 12.5932701,215.767032 L1.25444173,269.07897 L8.64054226,207.389125 C8.35144307,206.723089 8.06490228,206.056199 7.78603669,205.385898 L-0.296801416,266.036179 L3.42311205,193.439876 C3.13401286,192.525675 2.85770567,191.604651 2.58651528,190.682774 L-2.01263495,262.74096 L-2.96862372,158.954351 C-3.15368131,155.957612 -3.25942851,152.9387 -3.25942851,149.895057 L-3.25942851,149.889088 L-3.62101569,149.889088 L-3.99965888,293.90483 L-2.86372932,293.901418 L-2.86202372,293.901418 L-2.86202372,293.902271 L-2.86202372,293.908241 L-2.86543492,295.039053 L137.258128,294.610095 L137.258128,294.355961 C134.805475,294.289442 132.368173,294.162375 129.947927,293.974759" id="Fill-5" fill="#707376" mask="url(#mask-2)"></path>
                <path d="M293.459839,-2.41771494 L293.464103,-3.5544973 L149.448361,-3.17585411 L149.445802,-2.62068133 C150.644839,-2.61982853 151.841317,-2.60533093 153.033532,-2.57463013 L262.295116,-1.56747337 L189.552132,3.07602246 C190.478273,3.34380165 191.402708,3.61584484 192.321173,3.90238563 L265.598011,0.148360168 L204.445431,8.29771667 C205.116584,8.57487666 205.785179,8.85715345 206.452069,9.14454704 L268.636537,1.69960331 L214.923784,13.1237117 C215.466165,13.4000189 216.00087,13.6882653 216.538987,13.9713949 L271.408137,3.10757606 L223.284635,17.7595323 C223.748558,18.0366923 224.212481,18.3138523 224.673846,18.5961291 L273.907694,4.40212641 L230.419159,22.305809 C230.823386,22.5812633 231.22335,22.8626873 231.624166,23.1415529 L276.137766,5.62163037 L236.726468,26.8529384 C237.088908,27.1292456 237.452201,27.4055528 237.812082,27.6852712 L278.111145,6.81299192 L242.466664,31.4597638 C242.798404,31.740335 243.131848,32.017495 243.461882,32.3014774 L279.853415,8.02567348 L247.799223,36.1936564 C248.107936,36.4819028 248.420914,36.766738 248.727069,37.0583956 L281.395277,9.31937103 L252.837565,41.1271043 C253.130928,41.4281427 253.429408,41.7257698 253.718507,42.0293666 L282.78193,10.7461054 L257.671235,46.3428289 C257.954365,46.6643345 258.243464,46.9798705 258.524035,47.3039344 L284.069658,12.3544861 L262.376132,51.9525471 C262.654145,52.3030479 262.933864,52.6509902 263.208465,53.0031966 L285.313893,14.1845949 L267.022187,58.1072044 C267.300199,58.4977868 267.570537,58.8943388 267.844286,59.2866268 L286.569215,16.2637212 L271.674211,65.0651994 C271.952223,65.5069498 272.230236,65.9478474 272.503985,66.3930089 L287.887644,18.6020987 L276.433687,73.1949415 C276.715111,73.7151495 276.988007,74.2421799 277.262609,74.7666518 L289.310967,21.2082554 L281.413186,83.3372915 C281.692905,83.9692163 281.972623,84.6019939 282.244666,85.2390354 L290.870738,24.0830441 L286.846375,97.583315 C287.123535,98.4437902 287.39302,99.3068237 287.653124,100.173268 L292.592541,27.2281704 L293.567291,134.09424 C293.630398,135.293277 293.679008,136.49743 293.71312,137.704142 L294.168515,137.704142 L294.596621,-2.42112614 L293.459839,-2.41771494 Z" id="Fill-87" fill="#707376" mask="url(#mask-2)"></path>
            </g>
        </g>
    </g>
</svg>