<?xml version="1.0" encoding="UTF-8"?>
<svg width="291px" height="291px" viewBox="0 0 291 291" version="1.1" xmlns="http://www.w3.org/2000/svg" xmlns:xlink="http://www.w3.org/1999/xlink">
    <title>O_23</title>
    <defs>
        <rect id="path-1" x="0" y="0" width="291" height="291"></rect>
    </defs>
    <g id="Page-1" stroke="none" stroke-width="1" fill="none" fill-rule="evenodd">
        <g id="ui_kit-copy" transform="translate(-479.000000, -7100.000000)">
            <g id="Fill-1-+-Fill-3-+-Fill-5-+-Fill-87-Mask" transform="translate(479.000000, 7100.000000)">
                <mask id="mask-2" fill="white">
                    <use xlink:href="#path-1"></use>
                </mask>
                <g id="Mask"></g>
                <path d="M-6.97229076,128.895971 L-6.01289079,24.6931954 L-1.39412616,97.0447448 C-1.12464137,96.127132 -0.849186982,95.2112249 -0.560940593,94.3012873 L-4.29620446,21.3979764 L3.82159845,82.3168893 C4.09961124,81.649147 4.38529923,80.9865214 4.67354562,80.3247486 L-2.74581411,18.3551861 L8.64674067,71.9195521 C8.92560626,71.3788769 9.21299985,70.8441713 9.49783504,70.3069074 L-1.33784136,15.5827334 L13.2817085,63.6013412 C13.5597213,63.1391236 13.8394397,62.6794644 14.1225693,62.2206581 L-0.0415854119,13.0882935 L17.8313963,56.5026343 C18.1077035,56.0975543 18.3882747,55.6967383 18.6679931,55.2950695 L1.17791854,10.8556631 L22.3802314,50.2157929 C22.6573914,49.8525001 22.9328457,49.4883545 23.2134169,49.1276201 L2.3684273,8.88143122 L26.990468,44.4900939 C27.2710392,44.1592075 27.5481992,43.8240571 27.8330344,43.4948764 L3.58110886,7.13916088 L31.7303302,39.1711805 C32.0185766,38.8624669 32.302559,38.5486365 32.5942166,38.2424813 L4.87480641,5.59815134 L36.6688948,34.1430719 C36.970786,33.8497087 37.2675604,33.5520815 37.57201,33.2621295 L6.30068796,4.21064579 L41.8940002,29.3179297 C42.2155058,29.0348001 42.534453,28.7482593 42.8593698,28.4685409 L7.9099215,2.92291784 L47.513952,24.6198546 C47.8653056,24.3418419 48.2166592,24.0655347 48.5705712,23.7900803 L9.74088303,1.67868268 L53.6848126,19.97977 C54.0762478,19.7017572 54.4745054,19.433978 54.868499,19.1593764 L11.8165982,0.422508331 L60.666686,15.3311574 C61.1084363,15.0548502 61.5484811,14.7751318 61.9936427,14.5030886 L14.1558285,-0.895920421 L68.8339513,10.5759448 C69.3541592,10.2953736 69.879484,10.0216248 70.4031032,9.74787599 L16.767102,-2.31753797 L79.0325861,5.59644574 C79.6645109,5.31843295 80.2938772,5.03615616 80.9309188,4.76667137 L19.6393323,-3.87816191 L93.4014128,0.159845941 C94.2704159,-0.116461249 95.1419775,-0.381682039 96.0178031,-0.64178603 L22.774225,-5.60081785 L133.259578,-6.60797461 L133.257872,-7.17593939 L-6.86569076,-7.60489777 L-6.86227956,-6.47408502 L-6.86227956,-6.46811542 L-7.99991472,-6.47152662 L-7.62127153,137.545068 L-7.25542035,137.545068 C-7.24859795,134.640431 -7.14882035,131.757968 -6.97229076,128.895971" id="Fill-1" fill="#707376" mask="url(#mask-2)"></path>
                <path d="M298.596621,297.855282 L298.168515,157.730013 L297.726765,157.730013 C297.6918,159.076585 297.634662,160.418039 297.563027,161.756082 L296.592541,268.205985 L291.673591,195.550839 C291.410928,196.422401 291.141444,197.290551 290.863431,198.15529 L294.870738,271.351112 L286.283042,210.463752 C286.010146,211.103352 285.728722,211.737835 285.448151,212.372319 L293.310967,274.2259 L281.318893,220.917374 C281.042586,221.443552 280.76969,221.971435 280.487414,222.493349 L291.887644,276.831204 L276.579031,229.275667 C276.305282,229.722534 276.025564,230.164284 275.747551,230.60774 L290.570068,279.171287 L271.939799,236.364993 C271.664345,236.760692 271.395713,237.160655 271.115995,237.552943 L289.313893,281.249561 L267.325299,242.634778 C267.049844,242.989543 266.770979,243.341749 266.492113,243.693103 L288.069658,283.07967 L262.663041,248.322101 C262.38247,248.647018 262.095077,248.965965 261.811094,249.289176 L286.783636,284.689756 L257.889067,253.586435 C257.59741,253.891738 257.298077,254.189365 257.004714,254.492962 L285.395277,286.114785 L252.926624,258.54632 C252.620469,258.83883 252.305786,259.123666 251.995367,259.412765 L283.853415,287.408482 L247.696402,263.289594 C247.367221,263.574429 247.030365,263.852441 246.698626,264.133865 L282.11285,288.622017 L242.088389,267.892155 C241.727655,268.173579 241.362657,268.449886 240.998511,268.727899 L280.136913,289.811673 L235.951641,272.421376 C235.549119,272.7028 235.146598,272.983371 234.741518,273.260531 L277.905988,291.032029 L229.063575,276.950596 C228.603916,277.234579 228.144257,277.517708 227.681187,277.796574 L275.408137,292.32658 L221.029347,281.55998 C220.490377,281.846521 219.952261,282.133914 219.410733,282.413633 L272.636537,293.734552 L211.091669,286.365508 C210.429043,286.65546 209.768123,286.944559 209.102087,287.224277 L269.592894,295.285796 L197.268634,291.58038 C196.362108,291.869479 195.451317,292.149197 194.537116,292.420388 L266.295116,297.001629 L165.021709,297.934592 C161.202871,298.242453 157.343951,298.406191 153.447508,298.410455 L153.447508,298.61001 L297.464103,298.988653 L297.459839,297.851871 L298.596621,297.855282 Z" id="Fill-3" fill="#707376" mask="url(#mask-2)"></path>
                <path d="M125.947927,297.974759 L22.7761864,297.034121 L95.0433085,292.141607 C94.1794222,291.878945 93.3206526,291.604343 92.4635886,291.325478 L19.6438521,295.311465 L80.3154531,286.75447 C79.6750003,286.479868 79.0371059,286.201003 78.4026228,285.91702 L16.7673578,293.751694 L69.9309079,281.79288 C69.4047303,281.514867 68.8742887,281.242824 68.3523751,280.958841 L14.1577899,292.329223 L61.6178138,277.052165 C61.1717994,276.777563 60.7266378,276.498698 60.2840346,276.218979 L11.8142956,291.0125 L54.552366,272.411227 C54.1592252,272.136626 53.7626733,271.86373 53.3712381,271.584864 L9.74028607,289.755473 L48.3039007,267.795874 C47.9508415,267.519567 47.6020463,267.238143 47.2515455,266.957571 L7.91017734,288.511238 L42.6353393,263.130205 C42.3104225,262.847928 41.9923281,262.557976 41.6708225,262.273994 L6.2992382,287.225216 L37.3846499,258.345997 C37.0802003,258.05434 36.7817203,257.75586 36.4789763,257.461644 L4.87335665,285.836857 L32.4367044,253.377585 C32.144194,253.069724 31.8585061,252.756746 31.5685541,252.446327 L3.5813647,284.294142 L27.7002534,248.137982 C27.4154182,247.807948 27.1365526,247.471945 26.8551286,247.139353 L2.36868314,282.552724 L23.1036616,242.51803 C22.8222376,242.156443 22.5459304,241.792297 22.2679176,241.427299 L1.17732158,280.578493 L18.5795577,236.365931 C18.2989866,235.962557 18.015857,235.560035 17.7395498,235.154955 L-0.0413295719,278.345009 L14.0528955,229.456546 C13.7689131,228.996034 13.4891947,228.53211 13.2103291,228.067334 L-1.33758552,275.851422 L9.44692288,221.385647 C9.16208769,220.846677 8.8712829,220.310266 8.59327011,219.767032 L-2.74555827,273.07897 L4.64054226,211.389125 C4.35144307,210.723089 4.06490228,210.056199 3.78603669,209.385898 L-4.29680142,270.036179 L-0.576887952,197.439876 C-0.865987142,196.525675 -1.14229433,195.604651 -1.41348472,194.682774 L-6.01263495,266.74096 L-6.96862372,162.954351 C-7.15368131,159.957612 -7.25942851,156.9387 -7.25942851,153.895057 L-7.25942851,153.889088 L-7.62101569,153.889088 L-7.99965888,297.90483 L-6.86372932,297.901418 L-6.86202372,297.901418 L-6.86202372,297.902271 L-6.86202372,297.908241 L-6.86543492,299.039053 L133.258128,298.610095 L133.258128,298.355961 C130.805475,298.289442 128.368173,298.162375 125.947927,297.974759" id="Fill-5" fill="#707376" mask="url(#mask-2)"></path>
                <path d="M297.459839,-6.41771494 L297.464103,-7.5544973 L153.448361,-7.17585411 L153.445802,-6.62068133 C154.644839,-6.61982853 155.841317,-6.60533093 157.033532,-6.57463013 L266.295116,-5.56747337 L193.552132,-0.92397754 C194.478273,-0.656198349 195.402708,-0.384155159 196.321173,-0.0976143699 L269.598011,-3.85163983 L208.445431,4.29771667 C209.116584,4.57487666 209.785179,4.85715345 210.452069,5.14454704 L272.636537,-2.30039669 L218.923784,9.12371169 C219.466165,9.40001888 220.00087,9.68826527 220.538987,9.97139486 L275.408137,-0.892423941 L227.284635,13.7595323 C227.748558,14.0366923 228.212481,14.3138523 228.673846,14.5961291 L277.907694,0.402126412 L234.419159,18.305809 C234.823386,18.5812633 235.22335,18.8626873 235.624166,19.1415529 L280.137766,1.62163037 L240.726468,22.8529384 C241.088908,23.1292456 241.452201,23.4055528 241.812082,23.6852712 L282.111145,2.81299192 L246.466664,27.4597638 C246.798404,27.740335 247.131848,28.017495 247.461882,28.3014774 L283.853415,4.02567348 L251.799223,32.1936564 C252.107936,32.4819028 252.420914,32.766738 252.727069,33.0583956 L285.395277,5.31937103 L256.837565,37.1271043 C257.130928,37.4281427 257.429408,37.7257698 257.718507,38.0293666 L286.78193,6.74610538 L261.671235,42.3428289 C261.954365,42.6643345 262.243464,42.9798705 262.524035,43.3039344 L288.069658,8.35448612 L266.376132,47.9525471 C266.654145,48.3030479 266.933864,48.6509902 267.208465,49.0031966 L289.313893,10.1845949 L271.022187,54.1072044 C271.300199,54.4977868 271.570537,54.8943388 271.844286,55.2866268 L290.569215,12.2637212 L275.674211,61.0651994 C275.952223,61.5069498 276.230236,61.9478474 276.503985,62.3930089 L291.887644,14.6020987 L280.433687,69.1949415 C280.715111,69.7151495 280.988007,70.2421799 281.262609,70.7666518 L293.310967,17.2082554 L285.413186,79.3372915 C285.692905,79.9692163 285.972623,80.6019939 286.244666,81.2390354 L294.870738,20.0830441 L290.846375,93.583315 C291.123535,94.4437902 291.39302,95.3068237 291.653124,96.1732685 L296.592541,23.2281704 L297.567291,130.09424 C297.630398,131.293277 297.679008,132.49743 297.71312,133.704142 L298.168515,133.704142 L298.596621,-6.42112614 L297.459839,-6.41771494 Z" id="Fill-87" fill="#707376" mask="url(#mask-2)"></path>
            </g>
        </g>
    </g>
</svg>