<?xml version="1.0" encoding="UTF-8"?>
<svg width="291px" height="291px" viewBox="0 0 291 291" version="1.1" xmlns="http://www.w3.org/2000/svg" xmlns:xlink="http://www.w3.org/1999/xlink">
    <title>O_24</title>
    <defs>
        <rect id="path-1" x="0" y="0" width="291" height="291"></rect>
    </defs>
    <g id="Page-1" stroke="none" stroke-width="1" fill="none" fill-rule="evenodd">
        <g id="ui_kit-copy" transform="translate(-479.000000, -7413.000000)">
            <g id="Fill-1-+-Fill-3-+-Fill-5-+-Fill-87-Mask" transform="translate(479.000000, 7413.000000)">
                <mask id="mask-2" fill="white">
                    <use xlink:href="#path-1"></use>
                </mask>
                <g id="Mask"></g>
                <path d="M-10.9722908,124.895971 L-10.0128908,20.6931954 L-5.39412616,93.0447448 C-5.12464137,92.127132 -4.84918698,91.2112249 -4.56094059,90.3012873 L-8.29620446,17.3979764 L-0.178401554,78.3168893 C0.0996112362,77.649147 0.385299226,76.9865214 0.673545615,76.3247486 L-6.74581411,14.3551861 L4.64674067,67.9195521 C4.92560626,67.3788769 5.21299985,66.8441713 5.49783504,66.3069074 L-5.33784136,11.5827334 L9.2817085,59.6013412 C9.55972129,59.1391236 9.83943968,58.6794644 10.1225693,58.2206581 L-4.04158541,9.08829347 L13.8313963,52.5026343 C14.1077035,52.0975543 14.3882747,51.6967383 14.6679931,51.2950695 L-2.82208146,6.85566315 L18.3802314,46.2157929 C18.6573914,45.8525001 18.9328457,45.4883545 19.2134169,45.1276201 L-1.6315727,4.88143122 L22.990468,40.4900939 C23.2710392,40.1592075 23.5481992,39.8240571 23.8330344,39.4948764 L-0.418891145,3.13916088 L27.7303302,35.1711805 C28.0185766,34.8624669 28.302559,34.5486365 28.5942166,34.2424813 L0.874806408,1.59815134 L32.6688948,30.1430719 C32.970786,29.8497087 33.2675604,29.5520815 33.57201,29.2621295 L2.30068796,0.210645792 L37.8940002,25.3179297 C38.2155058,25.0348001 38.534453,24.7482593 38.8593698,24.4685409 L3.9099215,-1.07708216 L43.513952,20.6198546 C43.8653056,20.3418419 44.2166592,20.0655347 44.5705712,19.7900803 L5.74088303,-2.32131732 L49.6848126,15.97977 C50.0762478,15.7017572 50.4745054,15.433978 50.868499,15.1593764 L7.81659815,-3.57749167 L56.666686,11.3311574 C57.1084363,11.0548502 57.5484811,10.7751318 57.9936427,10.5030886 L10.1558285,-4.89592042 L64.8339513,6.57594476 C65.3541592,6.29537357 65.879484,6.02162478 66.4031032,5.74787599 L12.767102,-6.31753797 L75.0325861,1.59644574 C75.6645109,1.31843295 76.2938772,1.03615616 76.9309188,0.766671372 L15.6393323,-7.87816191 L89.4014128,-3.84015406 C90.2704159,-4.11646125 91.1419775,-4.38168204 92.0178031,-4.64178603 L18.774225,-9.60081785 L129.259578,-10.6079746 L129.257872,-11.1759394 L-10.8656908,-11.6048978 L-10.8622796,-10.474085 L-10.8622796,-10.4681154 L-11.9999147,-10.4715266 L-11.6212715,133.545068 L-11.2554203,133.545068 C-11.2485979,130.640431 -11.1488204,127.757968 -10.9722908,124.895971" id="Fill-1" fill="#707376" mask="url(#mask-2)"></path>
                <path d="M302.596621,301.855282 L302.168515,161.730013 L301.726765,161.730013 C301.6918,163.076585 301.634662,164.418039 301.563027,165.756082 L300.592541,272.205985 L295.673591,199.550839 C295.410928,200.422401 295.141444,201.290551 294.863431,202.15529 L298.870738,275.351112 L290.283042,214.463752 C290.010146,215.103352 289.728722,215.737835 289.448151,216.372319 L297.310967,278.2259 L285.318893,224.917374 C285.042586,225.443552 284.76969,225.971435 284.487414,226.493349 L295.887644,280.831204 L280.579031,233.275667 C280.305282,233.722534 280.025564,234.164284 279.747551,234.60774 L294.570068,283.171287 L275.939799,240.364993 C275.664345,240.760692 275.395713,241.160655 275.115995,241.552943 L293.313893,285.249561 L271.325299,246.634778 C271.049844,246.989543 270.770979,247.341749 270.492113,247.693103 L292.069658,287.07967 L266.663041,252.322101 C266.38247,252.647018 266.095077,252.965965 265.811094,253.289176 L290.783636,288.689756 L261.889067,257.586435 C261.59741,257.891738 261.298077,258.189365 261.004714,258.492962 L289.395277,290.114785 L256.926624,262.54632 C256.620469,262.83883 256.305786,263.123666 255.995367,263.412765 L287.853415,291.408482 L251.696402,267.289594 C251.367221,267.574429 251.030365,267.852441 250.698626,268.133865 L286.11285,292.622017 L246.088389,271.892155 C245.727655,272.173579 245.362657,272.449886 244.998511,272.727899 L284.136913,293.811673 L239.951641,276.421376 C239.549119,276.7028 239.146598,276.983371 238.741518,277.260531 L281.905988,295.032029 L233.063575,280.950596 C232.603916,281.234579 232.144257,281.517708 231.681187,281.796574 L279.408137,296.32658 L225.029347,285.55998 C224.490377,285.846521 223.952261,286.133914 223.410733,286.413633 L276.636537,297.734552 L215.091669,290.365508 C214.429043,290.65546 213.768123,290.944559 213.102087,291.224277 L273.592894,299.285796 L201.268634,295.58038 C200.362108,295.869479 199.451317,296.149197 198.537116,296.420388 L270.295116,301.001629 L169.021709,301.934592 C165.202871,302.242453 161.343951,302.406191 157.447508,302.410455 L157.447508,302.61001 L301.464103,302.988653 L301.459839,301.851871 L302.596621,301.855282 Z" id="Fill-3" fill="#707376" mask="url(#mask-2)"></path>
                <path d="M121.947927,301.974759 L18.7761864,301.034121 L91.0433085,296.141607 C90.1794222,295.878945 89.3206526,295.604343 88.4635886,295.325478 L15.6438521,299.311465 L76.3154531,290.75447 C75.6750003,290.479868 75.0371059,290.201003 74.4026228,289.91702 L12.7673578,297.751694 L65.9309079,285.79288 C65.4047303,285.514867 64.8742887,285.242824 64.3523751,284.958841 L10.1577899,296.329223 L57.6178138,281.052165 C57.1717994,280.777563 56.7266378,280.498698 56.2840346,280.218979 L7.81429559,295.0125 L50.552366,276.411227 C50.1592252,276.136626 49.7626733,275.86373 49.3712381,275.584864 L5.74028607,293.755473 L44.3039007,271.795874 C43.9508415,271.519567 43.6020463,271.238143 43.2515455,270.957571 L3.91017734,292.511238 L38.6353393,267.130205 C38.3104225,266.847928 37.9923281,266.557976 37.6708225,266.273994 L2.2992382,291.225216 L33.3846499,262.345997 C33.0802003,262.05434 32.7817203,261.75586 32.4789763,261.461644 L0.873356648,289.836857 L28.4367044,257.377585 C28.144194,257.069724 27.8585061,256.756746 27.5685541,256.446327 L-0.418635305,288.294142 L23.7002534,252.137982 C23.4154182,251.807948 23.1365526,251.471945 22.8551286,251.139353 L-1.63131686,286.552724 L19.1036616,246.51803 C18.8222376,246.156443 18.5459304,245.792297 18.2679176,245.427299 L-2.82267842,284.578493 L14.5795577,240.365931 C14.2989866,239.962557 14.015857,239.560035 13.7395498,239.154955 L-4.04132957,282.345009 L10.0528955,233.456546 C9.76891312,232.996034 9.48919473,232.53211 9.21032914,232.067334 L-5.33758552,279.851422 L5.44692288,225.385647 C5.16208769,224.846677 4.8712829,224.310266 4.59327011,223.767032 L-6.74555827,277.07897 L0.640542256,215.389125 C0.351443067,214.723089 0.0649022775,214.056199 -0.213963312,213.385898 L-8.29680142,274.036179 L-4.57688795,201.439876 C-4.86598714,200.525675 -5.14229433,199.604651 -5.41348472,198.682774 L-10.012635,270.74096 L-10.9686237,166.954351 C-11.1536813,163.957612 -11.2594285,160.9387 -11.2594285,157.895057 L-11.2594285,157.889088 L-11.6210157,157.889088 L-11.9996589,301.90483 L-10.8637293,301.901418 L-10.8620237,301.901418 L-10.8620237,301.902271 L-10.8620237,301.908241 L-10.8654349,303.039053 L129.258128,302.610095 L129.258128,302.355961 C126.805475,302.289442 124.368173,302.162375 121.947927,301.974759" id="Fill-5" fill="#707376" mask="url(#mask-2)"></path>
                <path d="M301.459839,-10.4177149 L301.464103,-11.5544973 L157.448361,-11.1758541 L157.445802,-10.6206813 C158.644839,-10.6198285 159.841317,-10.6053309 161.033532,-10.5746301 L270.295116,-9.56747337 L197.552132,-4.92397754 C198.478273,-4.65619835 199.402708,-4.38415516 200.321173,-4.09761437 L273.598011,-7.85163983 L212.445431,0.297716669 C213.116584,0.574876659 213.785179,0.857153448 214.452069,1.14454704 L276.636537,-6.30039669 L222.923784,5.12371169 C223.466165,5.40001888 224.00087,5.68826527 224.538987,5.97139486 L279.408137,-4.89242394 L231.284635,9.75953232 C231.748558,10.0366923 232.212481,10.3138523 232.673846,10.5961291 L281.907694,-3.59787359 L238.419159,14.305809 C238.823386,14.5812633 239.22335,14.8626873 239.624166,15.1415529 L284.137766,-2.37836963 L244.726468,18.8529384 C245.088908,19.1292456 245.452201,19.4055528 245.812082,19.6852712 L286.111145,-1.18700808 L250.466664,23.4597638 C250.798404,23.740335 251.131848,24.017495 251.461882,24.3014774 L287.853415,0.0256734789 L255.799223,28.1936564 C256.107936,28.4819028 256.420914,28.766738 256.727069,29.0583956 L289.395277,1.31937103 L260.837565,33.1271043 C261.130928,33.4281427 261.429408,33.7257698 261.718507,34.0293666 L290.78193,2.74610538 L265.671235,38.3428289 C265.954365,38.6643345 266.243464,38.9798705 266.524035,39.3039344 L292.069658,4.35448612 L270.376132,43.9525471 C270.654145,44.3030479 270.933864,44.6509902 271.208465,45.0031966 L293.313893,6.18459485 L275.022187,50.1072044 C275.300199,50.4977868 275.570537,50.8943388 275.844286,51.2866268 L294.569215,8.26372118 L279.674211,57.0651994 C279.952223,57.5069498 280.230236,57.9478474 280.503985,58.3930089 L295.887644,10.6020987 L284.433687,65.1949415 C284.715111,65.7151495 284.988007,66.2421799 285.262609,66.7666518 L297.310967,13.2082554 L289.413186,75.3372915 C289.692905,75.9692163 289.972623,76.6019939 290.244666,77.2390354 L298.870738,16.0830441 L294.846375,89.583315 C295.123535,90.4437902 295.39302,91.3068237 295.653124,92.1732685 L300.592541,19.2281704 L301.567291,126.09424 C301.630398,127.293277 301.679008,128.49743 301.71312,129.704142 L302.168515,129.704142 L302.596621,-10.4211261 L301.459839,-10.4177149 Z" id="Fill-87" fill="#707376" mask="url(#mask-2)"></path>
            </g>
        </g>
    </g>
</svg>