<?xml version="1.0" encoding="UTF-8"?>
<svg width="291px" height="291px" viewBox="0 0 291 291" version="1.1" xmlns="http://www.w3.org/2000/svg" xmlns:xlink="http://www.w3.org/1999/xlink">
    <title>O_25</title>
    <defs>
        <rect id="path-1" x="0" y="0" width="291" height="291"></rect>
    </defs>
    <g id="Page-1" stroke="none" stroke-width="1" fill="none" fill-rule="evenodd">
        <g id="ui_kit-copy" transform="translate(-479.000000, -7727.000000)">
            <g id="Fill-1-+-Fill-3-+-Fill-5-+-Fill-87-Mask" transform="translate(479.000000, 7727.000000)">
                <mask id="mask-2" fill="white">
                    <use xlink:href="#path-1"></use>
                </mask>
                <g id="Mask"></g>
                <path d="M-14.9722908,120.895971 L-14.0128908,16.6931954 L-9.39412616,89.0447448 C-9.12464137,88.127132 -8.84918698,87.2112249 -8.56094059,86.3012873 L-12.2962045,13.3979764 L-4.17840155,74.3168893 C-3.90038876,73.649147 -3.61470077,72.9865214 -3.32645438,72.3247486 L-10.7458141,10.3551861 L0.646740669,63.9195521 C0.925606259,63.3788769 1.21299985,62.8441713 1.49783504,62.3069074 L-9.33784136,7.58273337 L5.2817085,55.6013412 C5.55972129,55.1391236 5.83943968,54.6794644 6.12256927,54.2206581 L-8.04158541,5.08829347 L9.83139633,48.5026343 C10.1077035,48.0975543 10.3882747,47.6967383 10.6679931,47.2950695 L-6.82208146,2.85566315 L14.3802314,42.2157929 C14.6573914,41.8525001 14.9328457,41.4883545 15.2134169,41.1276201 L-5.6315727,0.881431221 L18.990468,36.4900939 C19.2710392,36.1592075 19.5481992,35.8240571 19.8330344,35.4948764 L-4.41889114,-0.860839115 L23.7303302,31.1711805 C24.0185766,30.8624669 24.302559,30.5486365 24.5942166,30.2424813 L-3.12519359,-2.40184866 L28.6688948,26.1430719 C28.970786,25.8497087 29.2675604,25.5520815 29.57201,25.2621295 L-1.69931204,-3.78935421 L33.8940002,21.3179297 C34.2155058,21.0348001 34.534453,20.7482593 34.8593698,20.4685409 L-0.0900785036,-5.07708216 L39.513952,16.6198546 C39.8653056,16.3418419 40.2166592,16.0655347 40.5705712,15.7900803 L1.74088303,-6.32131732 L45.6848126,11.97977 C46.0762478,11.7017572 46.4745054,11.433978 46.868499,11.1593764 L3.81659815,-7.57749167 L52.666686,7.33115738 C53.1084363,7.05485019 53.5484811,6.7751318 53.9936427,6.50308861 L6.15582847,-8.89592042 L60.8339513,2.57594476 C61.3541592,2.29537357 61.879484,2.02162478 62.4031032,1.74787599 L8.76710197,-10.317538 L71.0325861,-2.40355426 C71.6645109,-2.68156705 72.2938772,-2.96384384 72.9309188,-3.23332863 L11.6393323,-11.8781619 L85.4014128,-7.84015406 C86.2704159,-8.11646125 87.1419775,-8.38168204 88.0178031,-8.64178603 L14.774225,-13.6008178 L125.259578,-14.6079746 L125.257872,-15.1759394 L-14.8656908,-15.6048978 L-14.8622796,-14.474085 L-14.8622796,-14.4681154 L-15.9999147,-14.4715266 L-15.6212715,129.545068 L-15.2554203,129.545068 C-15.2485979,126.640431 -15.1488204,123.757968 -14.9722908,120.895971" id="Fill-1" fill="#707376" mask="url(#mask-2)"></path>
                <path d="M306.596621,305.855282 L306.168515,165.730013 L305.726765,165.730013 C305.6918,167.076585 305.634662,168.418039 305.563027,169.756082 L304.592541,276.205985 L299.673591,203.550839 C299.410928,204.422401 299.141444,205.290551 298.863431,206.15529 L302.870738,279.351112 L294.283042,218.463752 C294.010146,219.103352 293.728722,219.737835 293.448151,220.372319 L301.310967,282.2259 L289.318893,228.917374 C289.042586,229.443552 288.76969,229.971435 288.487414,230.493349 L299.887644,284.831204 L284.579031,237.275667 C284.305282,237.722534 284.025564,238.164284 283.747551,238.60774 L298.570068,287.171287 L279.939799,244.364993 C279.664345,244.760692 279.395713,245.160655 279.115995,245.552943 L297.313893,289.249561 L275.325299,250.634778 C275.049844,250.989543 274.770979,251.341749 274.492113,251.693103 L296.069658,291.07967 L270.663041,256.322101 C270.38247,256.647018 270.095077,256.965965 269.811094,257.289176 L294.783636,292.689756 L265.889067,261.586435 C265.59741,261.891738 265.298077,262.189365 265.004714,262.492962 L293.395277,294.114785 L260.926624,266.54632 C260.620469,266.83883 260.305786,267.123666 259.995367,267.412765 L291.853415,295.408482 L255.696402,271.289594 C255.367221,271.574429 255.030365,271.852441 254.698626,272.133865 L290.11285,296.622017 L250.088389,275.892155 C249.727655,276.173579 249.362657,276.449886 248.998511,276.727899 L288.136913,297.811673 L243.951641,280.421376 C243.549119,280.7028 243.146598,280.983371 242.741518,281.260531 L285.905988,299.032029 L237.063575,284.950596 C236.603916,285.234579 236.144257,285.517708 235.681187,285.796574 L283.408137,300.32658 L229.029347,289.55998 C228.490377,289.846521 227.952261,290.133914 227.410733,290.413633 L280.636537,301.734552 L219.091669,294.365508 C218.429043,294.65546 217.768123,294.944559 217.102087,295.224277 L277.592894,303.285796 L205.268634,299.58038 C204.362108,299.869479 203.451317,300.149197 202.537116,300.420388 L274.295116,305.001629 L173.021709,305.934592 C169.202871,306.242453 165.343951,306.406191 161.447508,306.410455 L161.447508,306.61001 L305.464103,306.988653 L305.459839,305.851871 L306.596621,305.855282 Z" id="Fill-3" fill="#707376" mask="url(#mask-2)"></path>
                <path d="M117.947927,305.974759 L14.7761864,305.034121 L87.0433085,300.141607 C86.1794222,299.878945 85.3206526,299.604343 84.4635886,299.325478 L11.6438521,303.311465 L72.3154531,294.75447 C71.6750003,294.479868 71.0371059,294.201003 70.4026228,293.91702 L8.76735781,301.751694 L61.9309079,289.79288 C61.4047303,289.514867 60.8742887,289.242824 60.3523751,288.958841 L6.15778991,300.329223 L53.6178138,285.052165 C53.1717994,284.777563 52.7266378,284.498698 52.2840346,284.218979 L3.81429559,299.0125 L46.552366,280.411227 C46.1592252,280.136626 45.7626733,279.86373 45.3712381,279.584864 L1.74028607,297.755473 L40.3039007,275.795874 C39.9508415,275.519567 39.6020463,275.238143 39.2515455,274.957571 L-0.0898226636,296.511238 L34.6353393,271.130205 C34.3104225,270.847928 33.9923281,270.557976 33.6708225,270.273994 L-1.7007618,295.225216 L29.3846499,266.345997 C29.0802003,266.05434 28.7817203,265.75586 28.4789763,265.461644 L-3.12664335,293.836857 L24.4367044,261.377585 C24.144194,261.069724 23.8585061,260.756746 23.5685541,260.446327 L-4.4186353,292.294142 L19.7002534,256.137982 C19.4154182,255.807948 19.1365526,255.471945 18.8551286,255.139353 L-5.63131686,290.552724 L15.1036616,250.51803 C14.8222376,250.156443 14.5459304,249.792297 14.2679176,249.427299 L-6.82267842,288.578493 L10.5795577,244.365931 C10.2989866,243.962557 10.015857,243.560035 9.73954978,243.154955 L-8.04132957,286.345009 L6.05289551,237.456546 C5.76891312,236.996034 5.48919473,236.53211 5.21032914,236.067334 L-9.33758552,283.851422 L1.44692288,229.385647 C1.16208769,228.846677 0.871282901,228.310266 0.593270111,227.767032 L-10.7455583,281.07897 L-3.35945774,219.389125 C-3.64855693,218.723089 -3.93509772,218.056199 -4.21396331,217.385898 L-12.2968014,278.036179 L-8.57688795,205.439876 C-8.86598714,204.525675 -9.14229433,203.604651 -9.41348472,202.682774 L-14.012635,274.74096 L-14.9686237,170.954351 C-15.1536813,167.957612 -15.2594285,164.9387 -15.2594285,161.895057 L-15.2594285,161.889088 L-15.6210157,161.889088 L-15.9996589,305.90483 L-14.8637293,305.901418 L-14.8620237,305.901418 L-14.8620237,305.902271 L-14.8620237,305.908241 L-14.8654349,307.039053 L125.258128,306.610095 L125.258128,306.355961 C122.805475,306.289442 120.368173,306.162375 117.947927,305.974759" id="Fill-5" fill="#707376" mask="url(#mask-2)"></path>
                <path d="M305.459839,-14.4177149 L305.464103,-15.5544973 L161.448361,-15.1758541 L161.445802,-14.6206813 C162.644839,-14.6198285 163.841317,-14.6053309 165.033532,-14.5746301 L274.295116,-13.5674734 L201.552132,-8.92397754 C202.478273,-8.65619835 203.402708,-8.38415516 204.321173,-8.09761437 L277.598011,-11.8516398 L216.445431,-3.70228333 C217.116584,-3.42512334 217.785179,-3.14284655 218.452069,-2.85545296 L280.636537,-10.3003967 L226.923784,1.12371169 C227.466165,1.40001888 228.00087,1.68826527 228.538987,1.97139486 L283.408137,-8.89242394 L235.284635,5.75953232 C235.748558,6.03669231 236.212481,6.3138523 236.673846,6.59612909 L285.907694,-7.59787359 L242.419159,10.305809 C242.823386,10.5812633 243.22335,10.8626873 243.624166,11.1415529 L288.137766,-6.37836963 L248.726468,14.8529384 C249.088908,15.1292456 249.452201,15.4055528 249.812082,15.6852712 L290.111145,-5.18700808 L254.466664,19.4597638 C254.798404,19.740335 255.131848,20.017495 255.461882,20.3014774 L291.853415,-3.97432652 L259.799223,24.1936564 C260.107936,24.4819028 260.420914,24.766738 260.727069,25.0583956 L293.395277,-2.68062897 L264.837565,29.1271043 C265.130928,29.4281427 265.429408,29.7257698 265.718507,30.0293666 L294.78193,-1.25389462 L269.671235,34.3428289 C269.954365,34.6643345 270.243464,34.9798705 270.524035,35.3039344 L296.069658,0.35448612 L274.376132,39.9525471 C274.654145,40.3030479 274.933864,40.6509902 275.208465,41.0031966 L297.313893,2.18459485 L279.022187,46.1072044 C279.300199,46.4977868 279.570537,46.8943388 279.844286,47.2866268 L298.569215,4.26372118 L283.674211,53.0651994 C283.952223,53.5069498 284.230236,53.9478474 284.503985,54.3930089 L299.887644,6.60209869 L288.433687,61.1949415 C288.715111,61.7151495 288.988007,62.2421799 289.262609,62.7666518 L301.310967,9.2082554 L293.413186,71.3372915 C293.692905,71.9692163 293.972623,72.6019939 294.244666,73.2390354 L302.870738,12.0830441 L298.846375,85.583315 C299.123535,86.4437902 299.39302,87.3068237 299.653124,88.1732685 L304.592541,15.2281704 L305.567291,122.09424 C305.630398,123.293277 305.679008,124.49743 305.71312,125.704142 L306.168515,125.704142 L306.596621,-14.4211261 L305.459839,-14.4177149 Z" id="Fill-87" fill="#707376" mask="url(#mask-2)"></path>
            </g>
        </g>
    </g>
</svg>