<?xml version="1.0" encoding="UTF-8"?>
<svg width="291px" height="291px" viewBox="0 0 291 291" version="1.1" xmlns="http://www.w3.org/2000/svg" xmlns:xlink="http://www.w3.org/1999/xlink">
    <title>O_26</title>
    <defs>
        <rect id="path-1" x="0" y="0" width="291" height="291"></rect>
    </defs>
    <g id="Page-1" stroke="none" stroke-width="1" fill="none" fill-rule="evenodd">
        <g id="ui_kit-copy" transform="translate(-479.000000, -8039.000000)">
            <g id="Fill-1-+-Fill-3-+-Fill-5-+-Fill-87-Mask" transform="translate(479.000000, 8039.000000)">
                <mask id="mask-2" fill="white">
                    <use xlink:href="#path-1"></use>
                </mask>
                <g id="Mask"></g>
                <path d="M-18.9722908,116.895971 L-18.0128908,12.6931954 L-13.3941262,85.0447448 C-13.1246414,84.127132 -12.849187,83.2112249 -12.5609406,82.3012873 L-16.2962045,9.39797636 L-8.17840155,70.3168893 C-7.90038876,69.649147 -7.61470077,68.9865214 -7.32645438,68.3247486 L-14.7458141,6.35518607 L-3.35325933,59.9195521 C-3.07439374,59.3788769 -2.78700015,58.8441713 -2.50216496,58.3069074 L-13.3378414,3.58273337 L1.2817085,51.6013412 C1.55972129,51.1391236 1.83943968,50.6794644 2.12256927,50.2206581 L-12.0415854,1.08829347 L5.83139633,44.5026343 C6.10770352,44.0975543 6.38827471,43.6967383 6.6679931,43.2950695 L-10.8220815,-1.14433685 L10.3802314,38.2157929 C10.6573914,37.8525001 10.9328457,37.4883545 11.2134169,37.1276201 L-9.6315727,-3.11856878 L14.990468,32.4900939 C15.2710392,32.1592075 15.5481992,31.8240571 15.8330344,31.4948764 L-8.41889114,-4.86083912 L19.7303302,27.1711805 C20.0185766,26.8624669 20.302559,26.5486365 20.5942166,26.2424813 L-7.12519359,-6.40184866 L24.6688948,22.1430719 C24.970786,21.8497087 25.2675604,21.5520815 25.57201,21.2621295 L-5.69931204,-7.78935421 L29.8940002,17.3179297 C30.2155058,17.0348001 30.534453,16.7482593 30.8593698,16.4685409 L-4.0900785,-9.07708216 L35.513952,12.6198546 C35.8653056,12.3418419 36.2166592,12.0655347 36.5705712,11.7900803 L-2.25911697,-10.3213173 L41.6848126,7.97977001 C42.0762478,7.70175722 42.4745054,7.43397803 42.868499,7.15937644 L-0.183401847,-11.5774917 L48.666686,3.33115738 C49.1084363,3.05485019 49.5484811,2.7751318 49.9936427,2.50308861 L2.15582847,-12.8959204 L56.8339513,-1.42405524 C57.3541592,-1.70462643 57.879484,-1.97837522 58.4031032,-2.25212401 L4.76710197,-14.317538 L67.0325861,-6.40355426 C67.6645109,-6.68156705 68.2938772,-6.96384384 68.9309188,-7.23332863 L7.63933227,-15.8781619 L81.4014128,-11.8401541 C82.2704159,-12.1164612 83.1419775,-12.381682 84.0178031,-12.641786 L10.774225,-17.6008178 L121.259578,-18.6079746 L121.257872,-19.1759394 L-18.8656908,-19.6048978 L-18.8622796,-18.474085 L-18.8622796,-18.4681154 L-19.9999147,-18.4715266 L-19.6212715,125.545068 L-19.2554203,125.545068 C-19.2485979,122.640431 -19.1488204,119.757968 -18.9722908,116.895971" id="Fill-1" fill="#707376" mask="url(#mask-2)"></path>
                <path d="M310.596621,309.855282 L310.168515,169.730013 L309.726765,169.730013 C309.6918,171.076585 309.634662,172.418039 309.563027,173.756082 L308.592541,280.205985 L303.673591,207.550839 C303.410928,208.422401 303.141444,209.290551 302.863431,210.15529 L306.870738,283.351112 L298.283042,222.463752 C298.010146,223.103352 297.728722,223.737835 297.448151,224.372319 L305.310967,286.2259 L293.318893,232.917374 C293.042586,233.443552 292.76969,233.971435 292.487414,234.493349 L303.887644,288.831204 L288.579031,241.275667 C288.305282,241.722534 288.025564,242.164284 287.747551,242.60774 L302.570068,291.171287 L283.939799,248.364993 C283.664345,248.760692 283.395713,249.160655 283.115995,249.552943 L301.313893,293.249561 L279.325299,254.634778 C279.049844,254.989543 278.770979,255.341749 278.492113,255.693103 L300.069658,295.07967 L274.663041,260.322101 C274.38247,260.647018 274.095077,260.965965 273.811094,261.289176 L298.783636,296.689756 L269.889067,265.586435 C269.59741,265.891738 269.298077,266.189365 269.004714,266.492962 L297.395277,298.114785 L264.926624,270.54632 C264.620469,270.83883 264.305786,271.123666 263.995367,271.412765 L295.853415,299.408482 L259.696402,275.289594 C259.367221,275.574429 259.030365,275.852441 258.698626,276.133865 L294.11285,300.622017 L254.088389,279.892155 C253.727655,280.173579 253.362657,280.449886 252.998511,280.727899 L292.136913,301.811673 L247.951641,284.421376 C247.549119,284.7028 247.146598,284.983371 246.741518,285.260531 L289.905988,303.032029 L241.063575,288.950596 C240.603916,289.234579 240.144257,289.517708 239.681187,289.796574 L287.408137,304.32658 L233.029347,293.55998 C232.490377,293.846521 231.952261,294.133914 231.410733,294.413633 L284.636537,305.734552 L223.091669,298.365508 C222.429043,298.65546 221.768123,298.944559 221.102087,299.224277 L281.592894,307.285796 L209.268634,303.58038 C208.362108,303.869479 207.451317,304.149197 206.537116,304.420388 L278.295116,309.001629 L177.021709,309.934592 C173.202871,310.242453 169.343951,310.406191 165.447508,310.410455 L165.447508,310.61001 L309.464103,310.988653 L309.459839,309.851871 L310.596621,309.855282 Z" id="Fill-3" fill="#707376" mask="url(#mask-2)"></path>
                <path d="M113.947927,309.974759 L10.7761864,309.034121 L83.0433085,304.141607 C82.1794222,303.878945 81.3206526,303.604343 80.4635886,303.325478 L7.64385211,307.311465 L68.3154531,298.75447 C67.6750003,298.479868 67.0371059,298.201003 66.4026228,297.91702 L4.76735781,305.751694 L57.9309079,293.79288 C57.4047303,293.514867 56.8742887,293.242824 56.3523751,292.958841 L2.15778991,304.329223 L49.6178138,289.052165 C49.1717994,288.777563 48.7266378,288.498698 48.2840346,288.218979 L-0.185704407,303.0125 L42.552366,284.411227 C42.1592252,284.136626 41.7626733,283.86373 41.3712381,283.584864 L-2.25971393,301.755473 L36.3039007,279.795874 C35.9508415,279.519567 35.6020463,279.238143 35.2515455,278.957571 L-4.08982266,300.511238 L30.6353393,275.130205 C30.3104225,274.847928 29.9923281,274.557976 29.6708225,274.273994 L-5.7007618,299.225216 L25.3846499,270.345997 C25.0802003,270.05434 24.7817203,269.75586 24.4789763,269.461644 L-7.12664335,297.836857 L20.4367044,265.377585 C20.144194,265.069724 19.8585061,264.756746 19.5685541,264.446327 L-8.4186353,296.294142 L15.7002534,260.137982 C15.4154182,259.807948 15.1365526,259.471945 14.8551286,259.139353 L-9.63131686,294.552724 L11.1036616,254.51803 C10.8222376,254.156443 10.5459304,253.792297 10.2679176,253.427299 L-10.8226784,292.578493 L6.57955775,248.365931 C6.29898656,247.962557 6.01585697,247.560035 5.73954978,247.154955 L-12.0413296,290.345009 L2.05289551,241.456546 C1.76891312,240.996034 1.48919473,240.53211 1.21032914,240.067334 L-13.3375855,287.851422 L-2.55307712,233.385647 C-2.83791231,232.846677 -3.1287171,232.310266 -3.40672989,231.767032 L-14.7455583,285.07897 L-7.35945774,223.389125 C-7.64855693,222.723089 -7.93509772,222.056199 -8.21396331,221.385898 L-16.2968014,282.036179 L-12.576888,209.439876 C-12.8659871,208.525675 -13.1422943,207.604651 -13.4134847,206.682774 L-18.012635,278.74096 L-18.9686237,174.954351 C-19.1536813,171.957612 -19.2594285,168.9387 -19.2594285,165.895057 L-19.2594285,165.889088 L-19.6210157,165.889088 L-19.9996589,309.90483 L-18.8637293,309.901418 L-18.8620237,309.901418 L-18.8620237,309.902271 L-18.8620237,309.908241 L-18.8654349,311.039053 L121.258128,310.610095 L121.258128,310.355961 C118.805475,310.289442 116.368173,310.162375 113.947927,309.974759" id="Fill-5" fill="#707376" mask="url(#mask-2)"></path>
                <path d="M309.459839,-18.4177149 L309.464103,-19.5544973 L165.448361,-19.1758541 L165.445802,-18.6206813 C166.644839,-18.6198285 167.841317,-18.6053309 169.033532,-18.5746301 L278.295116,-17.5674734 L205.552132,-12.9239775 C206.478273,-12.6561983 207.402708,-12.3841552 208.321173,-12.0976144 L281.598011,-15.8516398 L220.445431,-7.70228333 C221.116584,-7.42512334 221.785179,-7.14284655 222.452069,-6.85545296 L284.636537,-14.3003967 L230.923784,-2.87628831 C231.466165,-2.59998112 232.00087,-2.31173473 232.538987,-2.02860514 L287.408137,-12.8924239 L239.284635,1.75953232 C239.748558,2.03669231 240.212481,2.3138523 240.673846,2.59612909 L289.907694,-11.5978736 L246.419159,6.30580896 C246.823386,6.58126335 247.22335,6.86268733 247.624166,7.14155292 L292.137766,-10.3783696 L252.726468,10.8529384 C253.088908,11.1292456 253.452201,11.4055528 253.812082,11.6852712 L294.111145,-9.18700808 L258.466664,15.4597638 C258.798404,15.740335 259.131848,16.017495 259.461882,16.3014774 L295.853415,-7.97432652 L263.799223,20.1936564 C264.107936,20.4819028 264.420914,20.766738 264.727069,21.0583956 L297.395277,-6.68062897 L268.837565,25.1271043 C269.130928,25.4281427 269.429408,25.7257698 269.718507,26.0293666 L298.78193,-5.25389462 L273.671235,30.3428289 C273.954365,30.6643345 274.243464,30.9798705 274.524035,31.3039344 L300.069658,-3.64551388 L278.376132,35.9525471 C278.654145,36.3030479 278.933864,36.6509902 279.208465,37.0031966 L301.313893,-1.81540515 L283.022187,42.1072044 C283.300199,42.4977868 283.570537,42.8943388 283.844286,43.2866268 L302.569215,0.263721177 L287.674211,49.0651994 C287.952223,49.5069498 288.230236,49.9478474 288.503985,50.3930089 L303.887644,2.60209869 L292.433687,57.1949415 C292.715111,57.7151495 292.988007,58.2421799 293.262609,58.7666518 L305.310967,5.2082554 L297.413186,67.3372915 C297.692905,67.9692163 297.972623,68.6019939 298.244666,69.2390354 L306.870738,8.08304409 L302.846375,81.583315 C303.123535,82.4437902 303.39302,83.3068237 303.653124,84.1732685 L308.592541,11.2281704 L309.567291,118.09424 C309.630398,119.293277 309.679008,120.49743 309.71312,121.704142 L310.168515,121.704142 L310.596621,-18.4211261 L309.459839,-18.4177149 Z" id="Fill-87" fill="#707376" mask="url(#mask-2)"></path>
            </g>
        </g>
    </g>
</svg>