<?xml version="1.0" encoding="UTF-8"?>
<svg width="291px" height="291px" viewBox="0 0 291 291" version="1.1" xmlns="http://www.w3.org/2000/svg" xmlns:xlink="http://www.w3.org/1999/xlink">
    <title>O_27</title>
    <defs>
        <rect id="path-1" x="0" y="0" width="291" height="291"></rect>
    </defs>
    <g id="Page-1" stroke="none" stroke-width="1" fill="none" fill-rule="evenodd">
        <g id="ui_kit-copy" transform="translate(-479.000000, -8352.000000)">
            <g id="Fill-1-+-Fill-3-+-Fill-5-+-Fill-87-Mask" transform="translate(479.000000, 8352.000000)">
                <mask id="mask-2" fill="white">
                    <use xlink:href="#path-1"></use>
                </mask>
                <g id="Mask"></g>
                <path d="M-22.9722908,112.895971 L-22.0128908,8.69319544 L-17.3941262,81.0447448 C-17.1246414,80.127132 -16.849187,79.2112249 -16.5609406,78.3012873 L-20.2962045,5.39797636 L-12.1784016,66.3168893 C-11.9003888,65.649147 -11.6147008,64.9865214 -11.3264544,64.3247486 L-18.7458141,2.35518607 L-7.35325933,55.9195521 C-7.07439374,55.3788769 -6.78700015,54.8441713 -6.50216496,54.3069074 L-17.3378414,-0.417266625 L-2.7182915,47.6013412 C-2.44027871,47.1391236 -2.16056032,46.6794644 -1.87743073,46.2206581 L-16.0415854,-2.91170653 L1.83139633,40.5026343 C2.10770352,40.0975543 2.38827471,39.6967383 2.6679931,39.2950695 L-14.8220815,-5.14433685 L6.38023137,34.2157929 C6.65739136,33.8525001 6.93284575,33.4883545 7.21341694,33.1276201 L-13.6315727,-7.11856878 L10.990468,28.4900939 C11.2710392,28.1592075 11.5481992,27.8240571 11.8330344,27.4948764 L-12.4188911,-8.86083912 L15.7303302,23.1711805 C16.0185766,22.8624669 16.302559,22.5486365 16.5942166,22.2424813 L-11.1251936,-10.4018487 L20.6688948,18.1430719 C20.970786,17.8497087 21.2675604,17.5520815 21.57201,17.2621295 L-9.69931204,-11.7893542 L25.8940002,13.3179297 C26.2155058,13.0348001 26.534453,12.7482593 26.8593698,12.4685409 L-8.0900785,-13.0770822 L31.513952,8.61985464 C31.8653056,8.34184185 32.2166592,8.06553466 32.5705712,7.79008027 L-6.25911697,-14.3213173 L37.6848126,3.97977001 C38.0762478,3.70175722 38.4745054,3.43397803 38.868499,3.15937644 L-4.18340185,-15.5774917 L44.666686,-0.668842616 C45.1084363,-0.945149806 45.5484811,-1.2248682 45.9936427,-1.49691139 L-1.84417153,-16.8959204 L52.8339513,-5.42405524 C53.3541592,-5.70462643 53.879484,-5.97837522 54.4031032,-6.25212401 L0.767101972,-18.317538 L63.0325861,-10.4035543 C63.6645109,-10.681567 64.2938772,-10.9638438 64.9309188,-11.2333286 L3.63933227,-19.8781619 L77.4014128,-15.8401541 C78.2704159,-16.1164612 79.1419775,-16.381682 80.0178031,-16.641786 L6.77422495,-21.6008178 L117.259578,-22.6079746 L117.257872,-23.1759394 L-22.8656908,-23.6048978 L-22.8622796,-22.474085 L-22.8622796,-22.4681154 L-23.9999147,-22.4715266 L-23.6212715,121.545068 L-23.2554203,121.545068 C-23.2485979,118.640431 -23.1488204,115.757968 -22.9722908,112.895971" id="Fill-1" fill="#707376" mask="url(#mask-2)"></path>
                <path d="M314.596621,313.855282 L314.168515,173.730013 L313.726765,173.730013 C313.6918,175.076585 313.634662,176.418039 313.563027,177.756082 L312.592541,284.205985 L307.673591,211.550839 C307.410928,212.422401 307.141444,213.290551 306.863431,214.15529 L310.870738,287.351112 L302.283042,226.463752 C302.010146,227.103352 301.728722,227.737835 301.448151,228.372319 L309.310967,290.2259 L297.318893,236.917374 C297.042586,237.443552 296.76969,237.971435 296.487414,238.493349 L307.887644,292.831204 L292.579031,245.275667 C292.305282,245.722534 292.025564,246.164284 291.747551,246.60774 L306.570068,295.171287 L287.939799,252.364993 C287.664345,252.760692 287.395713,253.160655 287.115995,253.552943 L305.313893,297.249561 L283.325299,258.634778 C283.049844,258.989543 282.770979,259.341749 282.492113,259.693103 L304.069658,299.07967 L278.663041,264.322101 C278.38247,264.647018 278.095077,264.965965 277.811094,265.289176 L302.783636,300.689756 L273.889067,269.586435 C273.59741,269.891738 273.298077,270.189365 273.004714,270.492962 L301.395277,302.114785 L268.926624,274.54632 C268.620469,274.83883 268.305786,275.123666 267.995367,275.412765 L299.853415,303.408482 L263.696402,279.289594 C263.367221,279.574429 263.030365,279.852441 262.698626,280.133865 L298.11285,304.622017 L258.088389,283.892155 C257.727655,284.173579 257.362657,284.449886 256.998511,284.727899 L296.136913,305.811673 L251.951641,288.421376 C251.549119,288.7028 251.146598,288.983371 250.741518,289.260531 L293.905988,307.032029 L245.063575,292.950596 C244.603916,293.234579 244.144257,293.517708 243.681187,293.796574 L291.408137,308.32658 L237.029347,297.55998 C236.490377,297.846521 235.952261,298.133914 235.410733,298.413633 L288.636537,309.734552 L227.091669,302.365508 C226.429043,302.65546 225.768123,302.944559 225.102087,303.224277 L285.592894,311.285796 L213.268634,307.58038 C212.362108,307.869479 211.451317,308.149197 210.537116,308.420388 L282.295116,313.001629 L181.021709,313.934592 C177.202871,314.242453 173.343951,314.406191 169.447508,314.410455 L169.447508,314.61001 L313.464103,314.988653 L313.459839,313.851871 L314.596621,313.855282 Z" id="Fill-3" fill="#707376" mask="url(#mask-2)"></path>
                <path d="M109.947927,313.974759 L6.77618639,313.034121 L79.0433085,308.141607 C78.1794222,307.878945 77.3206526,307.604343 76.4635886,307.325478 L3.64385211,311.311465 L64.3154531,302.75447 C63.6750003,302.479868 63.0371059,302.201003 62.4026228,301.91702 L0.767357812,309.751694 L53.9309079,297.79288 C53.4047303,297.514867 52.8742887,297.242824 52.3523751,296.958841 L-1.84221009,308.329223 L45.6178138,293.052165 C45.1717994,292.777563 44.7266378,292.498698 44.2840346,292.218979 L-4.18570441,307.0125 L38.552366,288.411227 C38.1592252,288.136626 37.7626733,287.86373 37.3712381,287.584864 L-6.25971393,305.755473 L32.3039007,283.795874 C31.9508415,283.519567 31.6020463,283.238143 31.2515455,282.957571 L-8.08982266,304.511238 L26.6353393,279.130205 C26.3104225,278.847928 25.9923281,278.557976 25.6708225,278.273994 L-9.7007618,303.225216 L21.3846499,274.345997 C21.0802003,274.05434 20.7817203,273.75586 20.4789763,273.461644 L-11.1266434,301.836857 L16.4367044,269.377585 C16.144194,269.069724 15.8585061,268.756746 15.5685541,268.446327 L-12.4186353,300.294142 L11.7002534,264.137982 C11.4154182,263.807948 11.1365526,263.471945 10.8551286,263.139353 L-13.6313169,298.552724 L7.10366158,258.51803 C6.82223759,258.156443 6.5459304,257.792297 6.26791761,257.427299 L-14.8226784,296.578493 L2.57955775,252.365931 C2.29898656,251.962557 2.01585697,251.560035 1.73954978,251.154955 L-16.0413296,294.345009 L-1.94710449,245.456546 C-2.23108688,244.996034 -2.51080527,244.53211 -2.78967086,244.067334 L-17.3375855,291.851422 L-6.55307712,237.385647 C-6.83791231,236.846677 -7.1287171,236.310266 -7.40672989,235.767032 L-18.7455583,289.07897 L-11.3594577,227.389125 C-11.6485569,226.723089 -11.9350977,226.056199 -12.2139633,225.385898 L-20.2968014,286.036179 L-16.576888,213.439876 C-16.8659871,212.525675 -17.1422943,211.604651 -17.4134847,210.682774 L-22.012635,282.74096 L-22.9686237,178.954351 C-23.1536813,175.957612 -23.2594285,172.9387 -23.2594285,169.895057 L-23.2594285,169.889088 L-23.6210157,169.889088 L-23.9996589,313.90483 L-22.8637293,313.901418 L-22.8620237,313.901418 L-22.8620237,313.902271 L-22.8620237,313.908241 L-22.8654349,315.039053 L117.258128,314.610095 L117.258128,314.355961 C114.805475,314.289442 112.368173,314.162375 109.947927,313.974759" id="Fill-5" fill="#707376" mask="url(#mask-2)"></path>
                <path d="M313.459839,-22.4177149 L313.464103,-23.5544973 L169.448361,-23.1758541 L169.445802,-22.6206813 C170.644839,-22.6198285 171.841317,-22.6053309 173.033532,-22.5746301 L282.295116,-21.5674734 L209.552132,-16.9239775 C210.478273,-16.6561983 211.402708,-16.3841552 212.321173,-16.0976144 L285.598011,-19.8516398 L224.445431,-11.7022833 C225.116584,-11.4251233 225.785179,-11.1428466 226.452069,-10.855453 L288.636537,-18.3003967 L234.923784,-6.87628831 C235.466165,-6.59998112 236.00087,-6.31173473 236.538987,-6.02860514 L291.408137,-16.8924239 L243.284635,-2.24046768 C243.748558,-1.96330769 244.212481,-1.6861477 244.673846,-1.40387091 L293.907694,-15.5978736 L250.419159,2.30580896 C250.823386,2.58126335 251.22335,2.86268733 251.624166,3.14155292 L296.137766,-14.3783696 L256.726468,6.85293839 C257.088908,7.12924558 257.452201,7.40555277 257.812082,7.68527116 L298.111145,-13.1870081 L262.466664,11.4597638 C262.798404,11.740335 263.131848,12.017495 263.461882,12.3014774 L299.853415,-11.9743265 L267.799223,16.1936564 C268.107936,16.4819028 268.420914,16.766738 268.727069,17.0583956 L301.395277,-10.680629 L272.837565,21.1271043 C273.130928,21.4281427 273.429408,21.7257698 273.718507,22.0293666 L302.78193,-9.25389462 L277.671235,26.3428289 C277.954365,26.6643345 278.243464,26.9798705 278.524035,27.3039344 L304.069658,-7.64551388 L282.376132,31.9525471 C282.654145,32.3030479 282.933864,32.6509902 283.208465,33.0031966 L305.313893,-5.81540515 L287.022187,38.1072044 C287.300199,38.4977868 287.570537,38.8943388 287.844286,39.2866268 L306.569215,-3.73627882 L291.674211,45.0651994 C291.952223,45.5069498 292.230236,45.9478474 292.503985,46.3930089 L307.887644,-1.39790131 L296.433687,53.1949415 C296.715111,53.7151495 296.988007,54.2421799 297.262609,54.7666518 L309.310967,1.2082554 L301.413186,63.3372915 C301.692905,63.9692163 301.972623,64.6019939 302.244666,65.2390354 L310.870738,4.08304409 L306.846375,77.583315 C307.123535,78.4437902 307.39302,79.3068237 307.653124,80.1732685 L312.592541,7.22817037 L313.567291,114.09424 C313.630398,115.293277 313.679008,116.49743 313.71312,117.704142 L314.168515,117.704142 L314.596621,-22.4211261 L313.459839,-22.4177149 Z" id="Fill-87" fill="#707376" mask="url(#mask-2)"></path>
            </g>
        </g>
    </g>
</svg>