<?xml version="1.0" encoding="UTF-8"?>
<svg width="291px" height="291px" viewBox="0 0 291 291" version="1.1" xmlns="http://www.w3.org/2000/svg" xmlns:xlink="http://www.w3.org/1999/xlink">
    <title>O_28</title>
    <defs>
        <rect id="path-1" x="0" y="0" width="291" height="291"></rect>
    </defs>
    <g id="Page-1" stroke="none" stroke-width="1" fill="none" fill-rule="evenodd">
        <g id="ui_kit-copy" transform="translate(-479.000000, -8663.000000)">
            <g id="Fill-1-+-Fill-3-+-Fill-5-+-Fill-87-Mask" transform="translate(479.000000, 8663.000000)">
                <mask id="mask-2" fill="white">
                    <use xlink:href="#path-1"></use>
                </mask>
                <g id="Mask"></g>
                <path d="M-26.9722908,108.895971 L-26.0128908,4.69319544 L-21.3941262,77.0447448 C-21.1246414,76.127132 -20.849187,75.2112249 -20.5609406,74.3012873 L-24.2962045,1.39797636 L-16.1784016,62.3168893 C-15.9003888,61.649147 -15.6147008,60.9865214 -15.3264544,60.3247486 L-22.7458141,-1.64481393 L-11.3532593,51.9195521 C-11.0743937,51.3788769 -10.7870002,50.8441713 -10.502165,50.3069074 L-21.3378414,-4.41726663 L-6.7182915,43.6013412 C-6.44027871,43.1391236 -6.16056032,42.6794644 -5.87743073,42.2206581 L-20.0415854,-6.91170653 L-2.16860367,36.5026343 C-1.89229648,36.0975543 -1.61172529,35.6967383 -1.3320069,35.2950695 L-18.8220815,-9.14433685 L2.38023137,30.2157929 C2.65739136,29.8525001 2.93284575,29.4883545 3.21341694,29.1276201 L-17.6315727,-11.1185688 L6.990468,24.4900939 C7.27103919,24.1592075 7.54819918,23.8240571 7.83303437,23.4948764 L-16.4188911,-12.8608391 L11.7303302,19.1711805 C12.0185766,18.8624669 12.302559,18.5486365 12.5942166,18.2424813 L-15.1251936,-14.4018487 L16.6688948,14.1430719 C16.970786,13.8497087 17.2675604,13.5520815 17.57201,13.2621295 L-13.699312,-15.7893542 L21.8940002,9.31792967 C22.2155058,9.03480008 22.534453,8.74825929 22.8593698,8.4685409 L-12.0900785,-17.0770822 L27.513952,4.61985464 C27.8653056,4.34184185 28.2166592,4.06553466 28.5705712,3.79008027 L-10.259117,-18.3213173 L33.6848126,-0.0202299863 C34.0762478,-0.298242776 34.4745054,-0.566021966 34.868499,-0.840623556 L-8.18340185,-19.5774917 L40.666686,-4.66884262 C41.1084363,-4.94514981 41.5484811,-5.2248682 41.9936427,-5.49691139 L-5.84417153,-20.8959204 L48.8339513,-9.42405524 C49.3541592,-9.70462643 49.879484,-9.97837522 50.4031032,-10.252124 L-3.23289803,-22.317538 L59.0325861,-14.4035543 C59.6645109,-14.681567 60.2938772,-14.9638438 60.9309188,-15.2333286 L-0.360667734,-23.8781619 L73.4014128,-19.8401541 C74.2704159,-20.1164612 75.1419775,-20.381682 76.0178031,-20.641786 L2.77422495,-25.6008178 L113.259578,-26.6079746 L113.257872,-27.1759394 L-26.8656908,-27.6048978 L-26.8622796,-26.474085 L-26.8622796,-26.4681154 L-27.9999147,-26.4715266 L-27.6212715,117.545068 L-27.2554203,117.545068 C-27.2485979,114.640431 -27.1488204,111.757968 -26.9722908,108.895971" id="Fill-1" fill="#707376" mask="url(#mask-2)"></path>
                <path d="M318.596621,317.855282 L318.168515,177.730013 L317.726765,177.730013 C317.6918,179.076585 317.634662,180.418039 317.563027,181.756082 L316.592541,288.205985 L311.673591,215.550839 C311.410928,216.422401 311.141444,217.290551 310.863431,218.15529 L314.870738,291.351112 L306.283042,230.463752 C306.010146,231.103352 305.728722,231.737835 305.448151,232.372319 L313.310967,294.2259 L301.318893,240.917374 C301.042586,241.443552 300.76969,241.971435 300.487414,242.493349 L311.887644,296.831204 L296.579031,249.275667 C296.305282,249.722534 296.025564,250.164284 295.747551,250.60774 L310.570068,299.171287 L291.939799,256.364993 C291.664345,256.760692 291.395713,257.160655 291.115995,257.552943 L309.313893,301.249561 L287.325299,262.634778 C287.049844,262.989543 286.770979,263.341749 286.492113,263.693103 L308.069658,303.07967 L282.663041,268.322101 C282.38247,268.647018 282.095077,268.965965 281.811094,269.289176 L306.783636,304.689756 L277.889067,273.586435 C277.59741,273.891738 277.298077,274.189365 277.004714,274.492962 L305.395277,306.114785 L272.926624,278.54632 C272.620469,278.83883 272.305786,279.123666 271.995367,279.412765 L303.853415,307.408482 L267.696402,283.289594 C267.367221,283.574429 267.030365,283.852441 266.698626,284.133865 L302.11285,308.622017 L262.088389,287.892155 C261.727655,288.173579 261.362657,288.449886 260.998511,288.727899 L300.136913,309.811673 L255.951641,292.421376 C255.549119,292.7028 255.146598,292.983371 254.741518,293.260531 L297.905988,311.032029 L249.063575,296.950596 C248.603916,297.234579 248.144257,297.517708 247.681187,297.796574 L295.408137,312.32658 L241.029347,301.55998 C240.490377,301.846521 239.952261,302.133914 239.410733,302.413633 L292.636537,313.734552 L231.091669,306.365508 C230.429043,306.65546 229.768123,306.944559 229.102087,307.224277 L289.592894,315.285796 L217.268634,311.58038 C216.362108,311.869479 215.451317,312.149197 214.537116,312.420388 L286.295116,317.001629 L185.021709,317.934592 C181.202871,318.242453 177.343951,318.406191 173.447508,318.410455 L173.447508,318.61001 L317.464103,318.988653 L317.459839,317.851871 L318.596621,317.855282 Z" id="Fill-3" fill="#707376" mask="url(#mask-2)"></path>
                <path d="M105.947927,317.974759 L2.77618639,317.034121 L75.0433085,312.141607 C74.1794222,311.878945 73.3206526,311.604343 72.4635886,311.325478 L-0.356147894,315.311465 L60.3154531,306.75447 C59.6750003,306.479868 59.0371059,306.201003 58.4026228,305.91702 L-3.23264219,313.751694 L49.9309079,301.79288 C49.4047303,301.514867 48.8742887,301.242824 48.3523751,300.958841 L-5.84221009,312.329223 L41.6178138,297.052165 C41.1717994,296.777563 40.7266378,296.498698 40.2840346,296.218979 L-8.18570441,311.0125 L34.552366,292.411227 C34.1592252,292.136626 33.7626733,291.86373 33.3712381,291.584864 L-10.2597139,309.755473 L28.3039007,287.795874 C27.9508415,287.519567 27.6020463,287.238143 27.2515455,286.957571 L-12.0898227,308.511238 L22.6353393,283.130205 C22.3104225,282.847928 21.9923281,282.557976 21.6708225,282.273994 L-13.7007618,307.225216 L17.3846499,278.345997 C17.0802003,278.05434 16.7817203,277.75586 16.4789763,277.461644 L-15.1266434,305.836857 L12.4367044,273.377585 C12.144194,273.069724 11.8585061,272.756746 11.5685541,272.446327 L-16.4186353,304.294142 L7.70025341,268.137982 C7.41541822,267.807948 7.13655263,267.471945 6.85512864,267.139353 L-17.6313169,302.552724 L3.10366158,262.51803 C2.82223759,262.156443 2.5459304,261.792297 2.26791761,261.427299 L-18.8226784,300.578493 L-1.42044225,256.365931 C-1.70101344,255.962557 -1.98414303,255.560035 -2.26045022,255.154955 L-20.0413296,298.345009 L-5.94710449,249.456546 C-6.23108688,248.996034 -6.51080527,248.53211 -6.78967086,248.067334 L-21.3375855,295.851422 L-10.5530771,241.385647 C-10.8379123,240.846677 -11.1287171,240.310266 -11.4067299,239.767032 L-22.7455583,293.07897 L-15.3594577,231.389125 C-15.6485569,230.723089 -15.9350977,230.056199 -16.2139633,229.385898 L-24.2968014,290.036179 L-20.576888,217.439876 C-20.8659871,216.525675 -21.1422943,215.604651 -21.4134847,214.682774 L-26.012635,286.74096 L-26.9686237,182.954351 C-27.1536813,179.957612 -27.2594285,176.9387 -27.2594285,173.895057 L-27.2594285,173.889088 L-27.6210157,173.889088 L-27.9996589,317.90483 L-26.8637293,317.901418 L-26.8620237,317.901418 L-26.8620237,317.902271 L-26.8620237,317.908241 L-26.8654349,319.039053 L113.258128,318.610095 L113.258128,318.355961 C110.805475,318.289442 108.368173,318.162375 105.947927,317.974759" id="Fill-5" fill="#707376" mask="url(#mask-2)"></path>
                <path d="M317.459839,-26.4177149 L317.464103,-27.5544973 L173.448361,-27.1758541 L173.445802,-26.6206813 C174.644839,-26.6198285 175.841317,-26.6053309 177.033532,-26.5746301 L286.295116,-25.5674734 L213.552132,-20.9239775 C214.478273,-20.6561983 215.402708,-20.3841552 216.321173,-20.0976144 L289.598011,-23.8516398 L228.445431,-15.7022833 C229.116584,-15.4251233 229.785179,-15.1428466 230.452069,-14.855453 L292.636537,-22.3003967 L238.923784,-10.8762883 C239.466165,-10.5999811 240.00087,-10.3117347 240.538987,-10.0286051 L295.408137,-20.8924239 L247.284635,-6.24046768 C247.748558,-5.96330769 248.212481,-5.6861477 248.673846,-5.40387091 L297.907694,-19.5978736 L254.419159,-1.69419104 C254.823386,-1.41873665 255.22335,-1.13731267 255.624166,-0.858447076 L300.137766,-18.3783696 L260.726468,2.85293839 C261.088908,3.12924558 261.452201,3.40555277 261.812082,3.68527116 L302.111145,-17.1870081 L266.466664,7.45976382 C266.798404,7.74033501 267.131848,8.017495 267.461882,8.30147739 L303.853415,-15.9743265 L271.799223,12.1936564 C272.107936,12.4819028 272.420914,12.766738 272.727069,13.0583956 L305.395277,-14.680629 L276.837565,17.1271043 C277.130928,17.4281427 277.429408,17.7257698 277.718507,18.0293666 L306.78193,-13.2538946 L281.671235,22.3428289 C281.954365,22.6643345 282.243464,22.9798705 282.524035,23.3039344 L308.069658,-11.6455139 L286.376132,27.9525471 C286.654145,28.3030479 286.933864,28.6509902 287.208465,29.0031966 L309.313893,-9.81540515 L291.022187,34.1072044 C291.300199,34.4977868 291.570537,34.8943388 291.844286,35.2866268 L310.569215,-7.73627882 L295.674211,41.0651994 C295.952223,41.5069498 296.230236,41.9478474 296.503985,42.3930089 L311.887644,-5.39790131 L300.433687,49.1949415 C300.715111,49.7151495 300.988007,50.2421799 301.262609,50.7666518 L313.310967,-2.7917446 L305.413186,59.3372915 C305.692905,59.9692163 305.972623,60.6019939 306.244666,61.2390354 L314.870738,0.0830440899 L310.846375,73.583315 C311.123535,74.4437902 311.39302,75.3068237 311.653124,76.1732685 L316.592541,3.22817037 L317.567291,110.09424 C317.630398,111.293277 317.679008,112.49743 317.71312,113.704142 L318.168515,113.704142 L318.596621,-26.4211261 L317.459839,-26.4177149 Z" id="Fill-87" fill="#707376" mask="url(#mask-2)"></path>
            </g>
        </g>
    </g>
</svg>