<?xml version="1.0" encoding="UTF-8"?>
<svg width="291px" height="291px" viewBox="0 0 291 291" version="1.1" xmlns="http://www.w3.org/2000/svg" xmlns:xlink="http://www.w3.org/1999/xlink">
    <title>O_29</title>
    <defs>
        <rect id="path-1" x="0" y="0" width="291" height="291"></rect>
    </defs>
    <g id="Page-1" stroke="none" stroke-width="1" fill="none" fill-rule="evenodd">
        <g id="ui_kit-copy" transform="translate(-479.000000, -8979.000000)">
            <g id="Fill-1-+-Fill-3-+-Fill-5-+-Fill-87-Mask" transform="translate(479.000000, 8979.000000)">
                <mask id="mask-2" fill="white">
                    <use xlink:href="#path-1"></use>
                </mask>
                <g id="Mask"></g>
                <path d="M-30.9722908,104.895971 L-30.0128908,0.693195441 L-25.3941262,73.0447448 C-25.1246414,72.127132 -24.849187,71.2112249 -24.5609406,70.3012873 L-28.2962045,-2.60202364 L-20.1784016,58.3168893 C-19.9003888,57.649147 -19.6147008,56.9865214 -19.3264544,56.3247486 L-26.7458141,-5.64481393 L-15.3532593,47.9195521 C-15.0743937,47.3788769 -14.7870002,46.8441713 -14.502165,46.3069074 L-25.3378414,-8.41726663 L-10.7182915,39.6013412 C-10.4402787,39.1391236 -10.1605603,38.6794644 -9.87743073,38.2206581 L-24.0415854,-10.9117065 L-6.16860367,32.5026343 C-5.89229648,32.0975543 -5.61172529,31.6967383 -5.3320069,31.2950695 L-22.8220815,-13.1443369 L-1.61976863,26.2157929 C-1.34260864,25.8525001 -1.06715425,25.4883545 -0.786583065,25.1276201 L-21.6315727,-15.1185688 L2.990468,20.4900939 C3.27103919,20.1592075 3.54819918,19.8240571 3.83303437,19.4948764 L-20.4188911,-16.8608391 L7.73033022,15.1711805 C8.01857661,14.8624669 8.302559,14.5486365 8.59421659,14.2424813 L-19.1251936,-18.4018487 L12.6688948,10.1430719 C12.970786,9.8497087 13.2675604,9.55208152 13.57201,9.26212953 L-17.699312,-19.7893542 L17.8940002,5.31792967 C18.2155058,5.03480008 18.534453,4.74825929 18.8593698,4.4685409 L-16.0900785,-21.0770822 L23.513952,0.619854644 C23.8653056,0.341841854 24.2166592,0.0655346638 24.5705712,-0.209919726 L-14.259117,-22.3213173 L29.6848126,-4.02022999 C30.0762478,-4.29824278 30.4745054,-4.56602197 30.868499,-4.84062356 L-12.1834018,-23.5774917 L36.666686,-8.66884262 C37.1084363,-8.94514981 37.5484811,-9.2248682 37.9936427,-9.49691139 L-9.84417153,-24.8959204 L44.8339513,-13.4240552 C45.3541592,-13.7046264 45.879484,-13.9783752 46.4031032,-14.252124 L-7.23289803,-26.317538 L55.0325861,-18.4035543 C55.6645109,-18.681567 56.2938772,-18.9638438 56.9309188,-19.2333286 L-4.36066773,-27.8781619 L69.4014128,-23.8401541 C70.2704159,-24.1164612 71.1419775,-24.381682 72.0178031,-24.641786 L-1.22577505,-29.6008178 L109.259578,-30.6079746 L109.257872,-31.1759394 L-30.8656908,-31.6048978 L-30.8622796,-30.474085 L-30.8622796,-30.4681154 L-31.9999147,-30.4715266 L-31.6212715,113.545068 L-31.2554203,113.545068 C-31.2485979,110.640431 -31.1488204,107.757968 -30.9722908,104.895971" id="Fill-1" fill="#707376" mask="url(#mask-2)"></path>
                <path d="M322.596621,321.855282 L322.168515,181.730013 L321.726765,181.730013 C321.6918,183.076585 321.634662,184.418039 321.563027,185.756082 L320.592541,292.205985 L315.673591,219.550839 C315.410928,220.422401 315.141444,221.290551 314.863431,222.15529 L318.870738,295.351112 L310.283042,234.463752 C310.010146,235.103352 309.728722,235.737835 309.448151,236.372319 L317.310967,298.2259 L305.318893,244.917374 C305.042586,245.443552 304.76969,245.971435 304.487414,246.493349 L315.887644,300.831204 L300.579031,253.275667 C300.305282,253.722534 300.025564,254.164284 299.747551,254.60774 L314.570068,303.171287 L295.939799,260.364993 C295.664345,260.760692 295.395713,261.160655 295.115995,261.552943 L313.313893,305.249561 L291.325299,266.634778 C291.049844,266.989543 290.770979,267.341749 290.492113,267.693103 L312.069658,307.07967 L286.663041,272.322101 C286.38247,272.647018 286.095077,272.965965 285.811094,273.289176 L310.783636,308.689756 L281.889067,277.586435 C281.59741,277.891738 281.298077,278.189365 281.004714,278.492962 L309.395277,310.114785 L276.926624,282.54632 C276.620469,282.83883 276.305786,283.123666 275.995367,283.412765 L307.853415,311.408482 L271.696402,287.289594 C271.367221,287.574429 271.030365,287.852441 270.698626,288.133865 L306.11285,312.622017 L266.088389,291.892155 C265.727655,292.173579 265.362657,292.449886 264.998511,292.727899 L304.136913,313.811673 L259.951641,296.421376 C259.549119,296.7028 259.146598,296.983371 258.741518,297.260531 L301.905988,315.032029 L253.063575,300.950596 C252.603916,301.234579 252.144257,301.517708 251.681187,301.796574 L299.408137,316.32658 L245.029347,305.55998 C244.490377,305.846521 243.952261,306.133914 243.410733,306.413633 L296.636537,317.734552 L235.091669,310.365508 C234.429043,310.65546 233.768123,310.944559 233.102087,311.224277 L293.592894,319.285796 L221.268634,315.58038 C220.362108,315.869479 219.451317,316.149197 218.537116,316.420388 L290.295116,321.001629 L189.021709,321.934592 C185.202871,322.242453 181.343951,322.406191 177.447508,322.410455 L177.447508,322.61001 L321.464103,322.988653 L321.459839,321.851871 L322.596621,321.855282 Z" id="Fill-3" fill="#707376" mask="url(#mask-2)"></path>
                <path d="M101.947927,321.974759 L-1.22381361,321.034121 L71.0433085,316.141607 C70.1794222,315.878945 69.3206526,315.604343 68.4635886,315.325478 L-4.35614789,319.311465 L56.3154531,310.75447 C55.6750003,310.479868 55.0371059,310.201003 54.4026228,309.91702 L-7.23264219,317.751694 L45.9309079,305.79288 C45.4047303,305.514867 44.8742887,305.242824 44.3523751,304.958841 L-9.84221009,316.329223 L37.6178138,301.052165 C37.1717994,300.777563 36.7266378,300.498698 36.2840346,300.218979 L-12.1857044,315.0125 L30.552366,296.411227 C30.1592252,296.136626 29.7626733,295.86373 29.3712381,295.584864 L-14.2597139,313.755473 L24.3039007,291.795874 C23.9508415,291.519567 23.6020463,291.238143 23.2515455,290.957571 L-16.0898227,312.511238 L18.6353393,287.130205 C18.3104225,286.847928 17.9923281,286.557976 17.6708225,286.273994 L-17.7007618,311.225216 L13.3846499,282.345997 C13.0802003,282.05434 12.7817203,281.75586 12.4789763,281.461644 L-19.1266434,309.836857 L8.43670444,277.377585 C8.14419405,277.069724 7.85850606,276.756746 7.56855407,276.446327 L-20.4186353,308.294142 L3.70025341,272.137982 C3.41541822,271.807948 3.13655263,271.471945 2.85512864,271.139353 L-21.6313169,306.552724 L-0.896338421,266.51803 C-1.17776241,266.156443 -1.4540696,265.792297 -1.73208239,265.427299 L-22.8226784,304.578493 L-5.42044225,260.365931 C-5.70101344,259.962557 -5.98414303,259.560035 -6.26045022,259.154955 L-24.0413296,302.345009 L-9.94710449,253.456546 C-10.2310869,252.996034 -10.5108053,252.53211 -10.7896709,252.067334 L-25.3375855,299.851422 L-14.5530771,245.385647 C-14.8379123,244.846677 -15.1287171,244.310266 -15.4067299,243.767032 L-26.7455583,297.07897 L-19.3594577,235.389125 C-19.6485569,234.723089 -19.9350977,234.056199 -20.2139633,233.385898 L-28.2968014,294.036179 L-24.576888,221.439876 C-24.8659871,220.525675 -25.1422943,219.604651 -25.4134847,218.682774 L-30.012635,290.74096 L-30.9686237,186.954351 C-31.1536813,183.957612 -31.2594285,180.9387 -31.2594285,177.895057 L-31.2594285,177.889088 L-31.6210157,177.889088 L-31.9996589,321.90483 L-30.8637293,321.901418 L-30.8620237,321.901418 L-30.8620237,321.902271 L-30.8620237,321.908241 L-30.8654349,323.039053 L109.258128,322.610095 L109.258128,322.355961 C106.805475,322.289442 104.368173,322.162375 101.947927,321.974759" id="Fill-5" fill="#707376" mask="url(#mask-2)"></path>
                <path d="M321.459839,-30.4177149 L321.464103,-31.5544973 L177.448361,-31.1758541 L177.445802,-30.6206813 C178.644839,-30.6198285 179.841317,-30.6053309 181.033532,-30.5746301 L290.295116,-29.5674734 L217.552132,-24.9239775 C218.478273,-24.6561983 219.402708,-24.3841552 220.321173,-24.0976144 L293.598011,-27.8516398 L232.445431,-19.7022833 C233.116584,-19.4251233 233.785179,-19.1428466 234.452069,-18.855453 L296.636537,-26.3003967 L242.923784,-14.8762883 C243.466165,-14.5999811 244.00087,-14.3117347 244.538987,-14.0286051 L299.408137,-24.8924239 L251.284635,-10.2404677 C251.748558,-9.96330769 252.212481,-9.6861477 252.673846,-9.40387091 L301.907694,-23.5978736 L258.419159,-5.69419104 C258.823386,-5.41873665 259.22335,-5.13731267 259.624166,-4.85844708 L304.137766,-22.3783696 L264.726468,-1.14706161 C265.088908,-0.870754422 265.452201,-0.594447232 265.812082,-0.314728842 L306.111145,-21.1870081 L270.466664,3.45976382 C270.798404,3.74033501 271.131848,4.017495 271.461882,4.30147739 L307.853415,-19.9743265 L275.799223,8.19365645 C276.107936,8.48190284 276.420914,8.76673802 276.727069,9.05839561 L309.395277,-18.680629 L280.837565,13.1271043 C281.130928,13.4281427 281.429408,13.7257698 281.718507,14.0293666 L310.78193,-17.2538946 L285.671235,18.3428289 C285.954365,18.6643345 286.243464,18.9798705 286.524035,19.3039344 L312.069658,-15.6455139 L290.376132,23.9525471 C290.654145,24.3030479 290.933864,24.6509902 291.208465,25.0031966 L313.313893,-13.8154051 L295.022187,30.1072044 C295.300199,30.4977868 295.570537,30.8943388 295.844286,31.2866268 L314.569215,-11.7362788 L299.674211,37.0651994 C299.952223,37.5069498 300.230236,37.9478474 300.503985,38.3930089 L315.887644,-9.39790131 L304.433687,45.1949415 C304.715111,45.7151495 304.988007,46.2421799 305.262609,46.7666518 L317.310967,-6.7917446 L309.413186,55.3372915 C309.692905,55.9692163 309.972623,56.6019939 310.244666,57.2390354 L318.870738,-3.91695591 L314.846375,69.583315 C315.123535,70.4437902 315.39302,71.3068237 315.653124,72.1732685 L320.592541,-0.771829625 L321.567291,106.09424 C321.630398,107.293277 321.679008,108.49743 321.71312,109.704142 L322.168515,109.704142 L322.596621,-30.4211261 L321.459839,-30.4177149 Z" id="Fill-87" fill="#707376" mask="url(#mask-2)"></path>
            </g>
        </g>
    </g>
</svg>