<?xml version="1.0" encoding="UTF-8"?>
<svg width="291px" height="291px" viewBox="0 0 291 291" version="1.1" xmlns="http://www.w3.org/2000/svg" xmlns:xlink="http://www.w3.org/1999/xlink">
    <title>O_30</title>
    <defs>
        <rect id="path-1" x="0" y="0" width="291" height="291"></rect>
    </defs>
    <g id="Page-1" stroke="none" stroke-width="1" fill="none" fill-rule="evenodd">
        <g id="ui_kit-copy" transform="translate(-479.000000, -9290.000000)">
            <g id="Fill-1-+-Fill-3-+-Fill-5-+-Fill-87-Mask" transform="translate(479.000000, 9290.000000)">
                <mask id="mask-2" fill="white">
                    <use xlink:href="#path-1"></use>
                </mask>
                <g id="Mask"></g>
                <path d="M-34.9722908,100.895971 L-34.0128908,-3.30680456 L-29.3941262,69.0447448 C-29.1246414,68.127132 -28.849187,67.2112249 -28.5609406,66.3012873 L-32.2962045,-6.60202364 L-24.1784016,54.3168893 C-23.9003888,53.649147 -23.6147008,52.9865214 -23.3264544,52.3247486 L-30.7458141,-9.64481393 L-19.3532593,43.9195521 C-19.0743937,43.3788769 -18.7870002,42.8441713 -18.502165,42.3069074 L-29.3378414,-12.4172666 L-14.7182915,35.6013412 C-14.4402787,35.1391236 -14.1605603,34.6794644 -13.8774307,34.2206581 L-28.0415854,-14.9117065 L-10.1686037,28.5026343 C-9.89229648,28.0975543 -9.61172529,27.6967383 -9.3320069,27.2950695 L-26.8220815,-17.1443369 L-5.61976863,22.2157929 C-5.34260864,21.8525001 -5.06715425,21.4883545 -4.78658306,21.1276201 L-25.6315727,-19.1185688 L-1.009532,16.4900939 C-0.728960814,16.1592075 -0.451800824,15.8240571 -0.166965634,15.4948764 L-24.4188911,-20.8608391 L3.73033022,11.1711805 C4.01857661,10.8624669 4.302559,10.5486365 4.59421659,10.2424813 L-23.1251936,-22.4018487 L8.66889484,6.14307189 C8.97078603,5.8497087 9.26756042,5.55208152 9.57201001,5.26212953 L-21.699312,-23.7893542 L13.8940002,1.31792967 C14.2155058,1.03480008 14.534453,0.748259292 14.8593698,0.468540902 L-20.0900785,-25.0770822 L19.513952,-3.38014536 C19.8653056,-3.65815815 20.2166592,-3.93446534 20.5705712,-4.20991973 L-18.259117,-26.3213173 L25.6848126,-8.02022999 C26.0762478,-8.29824278 26.4745054,-8.56602197 26.868499,-8.84062356 L-16.1834018,-27.5774917 L32.666686,-12.6688426 C33.1084363,-12.9451498 33.5484811,-13.2248682 33.9936427,-13.4969114 L-13.8441715,-28.8959204 L40.8339513,-17.4240552 C41.3541592,-17.7046264 41.879484,-17.9783752 42.4031032,-18.252124 L-11.232898,-30.317538 L51.0325861,-22.4035543 C51.6645109,-22.681567 52.2938772,-22.9638438 52.9309188,-23.2333286 L-8.36066773,-31.8781619 L65.4014128,-27.8401541 C66.2704159,-28.1164612 67.1419775,-28.381682 68.0178031,-28.641786 L-5.22577505,-33.6008178 L105.259578,-34.6079746 L105.257872,-35.1759394 L-34.8656908,-35.6048978 L-34.8622796,-34.474085 L-34.8622796,-34.4681154 L-35.9999147,-34.4715266 L-35.6212715,109.545068 L-35.2554203,109.545068 C-35.2485979,106.640431 -35.1488204,103.757968 -34.9722908,100.895971" id="Fill-1" fill="#707376" mask="url(#mask-2)"></path>
                <path d="M326.596621,325.855282 L326.168515,185.730013 L325.726765,185.730013 C325.6918,187.076585 325.634662,188.418039 325.563027,189.756082 L324.592541,296.205985 L319.673591,223.550839 C319.410928,224.422401 319.141444,225.290551 318.863431,226.15529 L322.870738,299.351112 L314.283042,238.463752 C314.010146,239.103352 313.728722,239.737835 313.448151,240.372319 L321.310967,302.2259 L309.318893,248.917374 C309.042586,249.443552 308.76969,249.971435 308.487414,250.493349 L319.887644,304.831204 L304.579031,257.275667 C304.305282,257.722534 304.025564,258.164284 303.747551,258.60774 L318.570068,307.171287 L299.939799,264.364993 C299.664345,264.760692 299.395713,265.160655 299.115995,265.552943 L317.313893,309.249561 L295.325299,270.634778 C295.049844,270.989543 294.770979,271.341749 294.492113,271.693103 L316.069658,311.07967 L290.663041,276.322101 C290.38247,276.647018 290.095077,276.965965 289.811094,277.289176 L314.783636,312.689756 L285.889067,281.586435 C285.59741,281.891738 285.298077,282.189365 285.004714,282.492962 L313.395277,314.114785 L280.926624,286.54632 C280.620469,286.83883 280.305786,287.123666 279.995367,287.412765 L311.853415,315.408482 L275.696402,291.289594 C275.367221,291.574429 275.030365,291.852441 274.698626,292.133865 L310.11285,316.622017 L270.088389,295.892155 C269.727655,296.173579 269.362657,296.449886 268.998511,296.727899 L308.136913,317.811673 L263.951641,300.421376 C263.549119,300.7028 263.146598,300.983371 262.741518,301.260531 L305.905988,319.032029 L257.063575,304.950596 C256.603916,305.234579 256.144257,305.517708 255.681187,305.796574 L303.408137,320.32658 L249.029347,309.55998 C248.490377,309.846521 247.952261,310.133914 247.410733,310.413633 L300.636537,321.734552 L239.091669,314.365508 C238.429043,314.65546 237.768123,314.944559 237.102087,315.224277 L297.592894,323.285796 L225.268634,319.58038 C224.362108,319.869479 223.451317,320.149197 222.537116,320.420388 L294.295116,325.001629 L193.021709,325.934592 C189.202871,326.242453 185.343951,326.406191 181.447508,326.410455 L181.447508,326.61001 L325.464103,326.988653 L325.459839,325.851871 L326.596621,325.855282 Z" id="Fill-3" fill="#707376" mask="url(#mask-2)"></path>
                <path d="M97.9479266,325.974759 L-5.22381361,325.034121 L67.0433085,320.141607 C66.1794222,319.878945 65.3206526,319.604343 64.4635886,319.325478 L-8.35614789,323.311465 L52.3154531,314.75447 C51.6750003,314.479868 51.0371059,314.201003 50.4026228,313.91702 L-11.2326422,321.751694 L41.9309079,309.79288 C41.4047303,309.514867 40.8742887,309.242824 40.3523751,308.958841 L-13.8422101,320.329223 L33.6178138,305.052165 C33.1717994,304.777563 32.7266378,304.498698 32.2840346,304.218979 L-16.1857044,319.0125 L26.552366,300.411227 C26.1592252,300.136626 25.7626733,299.86373 25.3712381,299.584864 L-18.2597139,317.755473 L20.3039007,295.795874 C19.9508415,295.519567 19.6020463,295.238143 19.2515455,294.957571 L-20.0898227,316.511238 L14.6353393,291.130205 C14.3104225,290.847928 13.9923281,290.557976 13.6708225,290.273994 L-21.7007618,315.225216 L9.38464986,286.345997 C9.08020027,286.05434 8.78172028,285.75586 8.47897629,285.461644 L-23.1266434,313.836857 L4.43670444,281.377585 C4.14419405,281.069724 3.85850606,280.756746 3.56855407,280.446327 L-24.4186353,312.294142 L-0.299746589,276.137982 C-0.584581779,275.807948 -0.863447369,275.471945 -1.14487136,275.139353 L-25.6313169,310.552724 L-4.89633842,270.51803 C-5.17776241,270.156443 -5.4540696,269.792297 -5.73208239,269.427299 L-26.8226784,308.578493 L-9.42044225,264.365931 C-9.70101344,263.962557 -9.98414303,263.560035 -10.2604502,263.154955 L-28.0413296,306.345009 L-13.9471045,257.456546 C-14.2310869,256.996034 -14.5108053,256.53211 -14.7896709,256.067334 L-29.3375855,303.851422 L-18.5530771,249.385647 C-18.8379123,248.846677 -19.1287171,248.310266 -19.4067299,247.767032 L-30.7455583,301.07897 L-23.3594577,239.389125 C-23.6485569,238.723089 -23.9350977,238.056199 -24.2139633,237.385898 L-32.2968014,298.036179 L-28.576888,225.439876 C-28.8659871,224.525675 -29.1422943,223.604651 -29.4134847,222.682774 L-34.012635,294.74096 L-34.9686237,190.954351 C-35.1536813,187.957612 -35.2594285,184.9387 -35.2594285,181.895057 L-35.2594285,181.889088 L-35.6210157,181.889088 L-35.9996589,325.90483 L-34.8637293,325.901418 L-34.8620237,325.901418 L-34.8620237,325.902271 L-34.8620237,325.908241 L-34.8654349,327.039053 L105.258128,326.610095 L105.258128,326.355961 C102.805475,326.289442 100.368173,326.162375 97.9479266,325.974759" id="Fill-5" fill="#707376" mask="url(#mask-2)"></path>
                <path d="M325.459839,-34.4177149 L325.464103,-35.5544973 L181.448361,-35.1758541 L181.445802,-34.6206813 C182.644839,-34.6198285 183.841317,-34.6053309 185.033532,-34.5746301 L294.295116,-33.5674734 L221.552132,-28.9239775 C222.478273,-28.6561983 223.402708,-28.3841552 224.321173,-28.0976144 L297.598011,-31.8516398 L236.445431,-23.7022833 C237.116584,-23.4251233 237.785179,-23.1428466 238.452069,-22.855453 L300.636537,-30.3003967 L246.923784,-18.8762883 C247.466165,-18.5999811 248.00087,-18.3117347 248.538987,-18.0286051 L303.408137,-28.8924239 L255.284635,-14.2404677 C255.748558,-13.9633077 256.212481,-13.6861477 256.673846,-13.4038709 L305.907694,-27.5978736 L262.419159,-9.69419104 C262.823386,-9.41873665 263.22335,-9.13731267 263.624166,-8.85844708 L308.137766,-26.3783696 L268.726468,-5.14706161 C269.088908,-4.87075442 269.452201,-4.59444723 269.812082,-4.31472884 L310.111145,-25.1870081 L274.466664,-0.540236181 C274.798404,-0.259664991 275.131848,0.0174949989 275.461882,0.301477388 L311.853415,-23.9743265 L279.799223,4.19365645 C280.107936,4.48190284 280.420914,4.76673802 280.727069,5.05839561 L313.395277,-22.680629 L284.837565,9.12710426 C285.130928,9.42814265 285.429408,9.72576984 285.718507,10.0293666 L314.78193,-21.2538946 L289.671235,14.3428289 C289.954365,14.6643345 290.243464,14.9798705 290.524035,15.3039344 L316.069658,-19.6455139 L294.376132,19.9525471 C294.654145,20.3030479 294.933864,20.6509902 295.208465,21.0031966 L317.313893,-17.8154051 L299.022187,26.1072044 C299.300199,26.4977868 299.570537,26.8943388 299.844286,27.2866268 L318.569215,-15.7362788 L303.674211,33.0651994 C303.952223,33.5069498 304.230236,33.9478474 304.503985,34.3930089 L319.887644,-13.3979013 L308.433687,41.1949415 C308.715111,41.7151495 308.988007,42.2421799 309.262609,42.7666518 L321.310967,-10.7917446 L313.413186,51.3372915 C313.692905,51.9692163 313.972623,52.6019939 314.244666,53.2390354 L322.870738,-7.91695591 L318.846375,65.583315 C319.123535,66.4437902 319.39302,67.3068237 319.653124,68.1732685 L324.592541,-4.77182963 L325.567291,102.09424 C325.630398,103.293277 325.679008,104.49743 325.71312,105.704142 L326.168515,105.704142 L326.596621,-34.4211261 L325.459839,-34.4177149 Z" id="Fill-87" fill="#707376" mask="url(#mask-2)"></path>
            </g>
        </g>
    </g>
</svg>