<?xml version="1.0" encoding="UTF-8"?>
<svg width="291px" height="291px" viewBox="0 0 291 291" version="1.1" xmlns="http://www.w3.org/2000/svg" xmlns:xlink="http://www.w3.org/1999/xlink">
    <title>O_31</title>
    <defs>
        <rect id="path-1" x="0" y="0" width="291" height="291"></rect>
    </defs>
    <g id="Page-1" stroke="none" stroke-width="1" fill="none" fill-rule="evenodd">
        <g id="ui_kit-copy" transform="translate(-479.000000, -9604.000000)">
            <g id="Fill-1-+-Fill-3-+-Fill-5-+-Fill-87-Mask" transform="translate(479.000000, 9604.000000)">
                <mask id="mask-2" fill="white">
                    <use xlink:href="#path-1"></use>
                </mask>
                <g id="Mask"></g>
                <path d="M-42.9722908,100.895971 L-42.0128908,-3.30680456 L-37.3941262,69.0447448 C-37.1246414,68.127132 -36.849187,67.2112249 -36.5609406,66.3012873 L-40.2962045,-6.60202364 L-32.1784016,54.3168893 C-31.9003888,53.649147 -31.6147008,52.9865214 -31.3264544,52.3247486 L-38.7458141,-9.64481393 L-27.3532593,43.9195521 C-27.0743937,43.3788769 -26.7870002,42.8441713 -26.502165,42.3069074 L-37.3378414,-12.4172666 L-22.7182915,35.6013412 C-22.4402787,35.1391236 -22.1605603,34.6794644 -21.8774307,34.2206581 L-36.0415854,-14.9117065 L-18.1686037,28.5026343 C-17.8922965,28.0975543 -17.6117253,27.6967383 -17.3320069,27.2950695 L-34.8220815,-17.1443369 L-13.6197686,22.2157929 C-13.3426086,21.8525001 -13.0671543,21.4883545 -12.7865831,21.1276201 L-33.6315727,-19.1185688 L-9.009532,16.4900939 C-8.72896081,16.1592075 -8.45180082,15.8240571 -8.16696563,15.4948764 L-32.4188911,-20.8608391 L-4.26966978,11.1711805 C-3.98142339,10.8624669 -3.697441,10.5486365 -3.40578341,10.2424813 L-31.1251936,-22.4018487 L0.668894842,6.14307189 C0.97078603,5.8497087 1.26756042,5.55208152 1.57201001,5.26212953 L-29.699312,-23.7893542 L5.89400025,1.31792967 C6.21550584,1.03480008 6.53445303,0.748259292 6.85936981,0.468540902 L-28.0900785,-25.0770822 L11.513952,-3.38014536 C11.8653056,-3.65815815 12.2166592,-3.93446534 12.5705712,-4.20991973 L-26.259117,-26.3213173 L17.6848126,-8.02022999 C18.0762478,-8.29824278 18.4745054,-8.56602197 18.868499,-8.84062356 L-24.1834018,-27.5774917 L24.666686,-12.6688426 C25.1084363,-12.9451498 25.5484811,-13.2248682 25.9936427,-13.4969114 L-21.8441715,-28.8959204 L32.8339513,-17.4240552 C33.3541592,-17.7046264 33.879484,-17.9783752 34.4031032,-18.252124 L-19.232898,-30.317538 L43.0325861,-22.4035543 C43.6645109,-22.681567 44.2938772,-22.9638438 44.9309188,-23.2333286 L-16.3606677,-31.8781619 L57.4014128,-27.8401541 C58.2704159,-28.1164612 59.1419775,-28.381682 60.0178031,-28.641786 L-13.225775,-33.6008178 L97.2595777,-34.6079746 L97.2578721,-35.1759394 L-42.8656908,-35.6048978 L-42.8622796,-34.474085 L-42.8622796,-34.4681154 L-43.9999147,-34.4715266 L-43.6212715,109.545068 L-43.2554203,109.545068 C-43.2485979,106.640431 -43.1488204,103.757968 -42.9722908,100.895971" id="Fill-1" fill="#707376" mask="url(#mask-2)"></path>
                <path d="M330.596621,329.855282 L330.168515,189.730013 L329.726765,189.730013 C329.6918,191.076585 329.634662,192.418039 329.563027,193.756082 L328.592541,300.205985 L323.673591,227.550839 C323.410928,228.422401 323.141444,229.290551 322.863431,230.15529 L326.870738,303.351112 L318.283042,242.463752 C318.010146,243.103352 317.728722,243.737835 317.448151,244.372319 L325.310967,306.2259 L313.318893,252.917374 C313.042586,253.443552 312.76969,253.971435 312.487414,254.493349 L323.887644,308.831204 L308.579031,261.275667 C308.305282,261.722534 308.025564,262.164284 307.747551,262.60774 L322.570068,311.171287 L303.939799,268.364993 C303.664345,268.760692 303.395713,269.160655 303.115995,269.552943 L321.313893,313.249561 L299.325299,274.634778 C299.049844,274.989543 298.770979,275.341749 298.492113,275.693103 L320.069658,315.07967 L294.663041,280.322101 C294.38247,280.647018 294.095077,280.965965 293.811094,281.289176 L318.783636,316.689756 L289.889067,285.586435 C289.59741,285.891738 289.298077,286.189365 289.004714,286.492962 L317.395277,318.114785 L284.926624,290.54632 C284.620469,290.83883 284.305786,291.123666 283.995367,291.412765 L315.853415,319.408482 L279.696402,295.289594 C279.367221,295.574429 279.030365,295.852441 278.698626,296.133865 L314.11285,320.622017 L274.088389,299.892155 C273.727655,300.173579 273.362657,300.449886 272.998511,300.727899 L312.136913,321.811673 L267.951641,304.421376 C267.549119,304.7028 267.146598,304.983371 266.741518,305.260531 L309.905988,323.032029 L261.063575,308.950596 C260.603916,309.234579 260.144257,309.517708 259.681187,309.796574 L307.408137,324.32658 L253.029347,313.55998 C252.490377,313.846521 251.952261,314.133914 251.410733,314.413633 L304.636537,325.734552 L243.091669,318.365508 C242.429043,318.65546 241.768123,318.944559 241.102087,319.224277 L301.592894,327.285796 L229.268634,323.58038 C228.362108,323.869479 227.451317,324.149197 226.537116,324.420388 L298.295116,329.001629 L197.021709,329.934592 C193.202871,330.242453 189.343951,330.406191 185.447508,330.410455 L185.447508,330.61001 L329.464103,330.988653 L329.459839,329.851871 L330.596621,329.855282 Z" id="Fill-3" fill="#707376" mask="url(#mask-2)"></path>
                <path d="M93.9479266,329.974759 L-9.22381361,329.034121 L63.0433085,324.141607 C62.1794222,323.878945 61.3206526,323.604343 60.4635886,323.325478 L-12.3561479,327.311465 L48.3154531,318.75447 C47.6750003,318.479868 47.0371059,318.201003 46.4026228,317.91702 L-15.2326422,325.751694 L37.9309079,313.79288 C37.4047303,313.514867 36.8742887,313.242824 36.3523751,312.958841 L-17.8422101,324.329223 L29.6178138,309.052165 C29.1717994,308.777563 28.7266378,308.498698 28.2840346,308.218979 L-20.1857044,323.0125 L22.552366,304.411227 C22.1592252,304.136626 21.7626733,303.86373 21.3712381,303.584864 L-22.2597139,321.755473 L16.3039007,299.795874 C15.9508415,299.519567 15.6020463,299.238143 15.2515455,298.957571 L-24.0898227,320.511238 L10.6353393,295.130205 C10.3104225,294.847928 9.99232809,294.557976 9.6708225,294.273994 L-25.7007618,319.225216 L5.38464986,290.345997 C5.08020027,290.05434 4.78172028,289.75586 4.47897629,289.461644 L-27.1266434,317.836857 L0.436704437,285.377585 C0.144194048,285.069724 -0.141493942,284.756746 -0.431445931,284.446327 L-28.4186353,316.294142 L-4.29974659,280.137982 C-4.58458178,279.807948 -4.86344737,279.471945 -5.14487136,279.139353 L-29.6313169,314.552724 L-8.89633842,274.51803 C-9.17776241,274.156443 -9.4540696,273.792297 -9.73208239,273.427299 L-30.8226784,312.578493 L-13.4204423,268.365931 C-13.7010134,267.962557 -13.984143,267.560035 -14.2604502,267.154955 L-32.0413296,310.345009 L-17.9471045,261.456546 C-18.2310869,260.996034 -18.5108053,260.53211 -18.7896709,260.067334 L-33.3375855,307.851422 L-22.5530771,253.385647 C-22.8379123,252.846677 -23.1287171,252.310266 -23.4067299,251.767032 L-34.7455583,305.07897 L-27.3594577,243.389125 C-27.6485569,242.723089 -27.9350977,242.056199 -28.2139633,241.385898 L-36.2968014,302.036179 L-32.576888,229.439876 C-32.8659871,228.525675 -33.1422943,227.604651 -33.4134847,226.682774 L-38.012635,298.74096 L-38.9686237,194.954351 C-39.1536813,191.957612 -39.2594285,188.9387 -39.2594285,185.895057 L-39.2594285,185.889088 L-39.6210157,185.889088 L-39.9996589,329.90483 L-38.8637293,329.901418 L-38.8620237,329.901418 L-38.8620237,329.902271 L-38.8620237,329.908241 L-38.8654349,331.039053 L101.258128,330.610095 L101.258128,330.355961 C98.8054752,330.289442 96.3681729,330.162375 93.9479266,329.974759" id="Fill-5" fill="#707376" mask="url(#mask-2)"></path>
                <path d="M329.459839,-38.4177149 L329.464103,-39.5544973 L185.448361,-39.1758541 L185.445802,-38.6206813 C186.644839,-38.6198285 187.841317,-38.6053309 189.033532,-38.5746301 L298.295116,-37.5674734 L225.552132,-32.9239775 C226.478273,-32.6561983 227.402708,-32.3841552 228.321173,-32.0976144 L301.598011,-35.8516398 L240.445431,-27.7022833 C241.116584,-27.4251233 241.785179,-27.1428466 242.452069,-26.855453 L304.636537,-34.3003967 L250.923784,-22.8762883 C251.466165,-22.5999811 252.00087,-22.3117347 252.538987,-22.0286051 L307.408137,-32.8924239 L259.284635,-18.2404677 C259.748558,-17.9633077 260.212481,-17.6861477 260.673846,-17.4038709 L309.907694,-31.5978736 L266.419159,-13.694191 C266.823386,-13.4187367 267.22335,-13.1373127 267.624166,-12.8584471 L312.137766,-30.3783696 L272.726468,-9.14706161 C273.088908,-8.87075442 273.452201,-8.59444723 273.812082,-8.31472884 L314.111145,-29.1870081 L278.466664,-4.54023618 C278.798404,-4.25966499 279.131848,-3.982505 279.461882,-3.69852261 L315.853415,-27.9743265 L283.799223,0.193656446 C284.107936,0.481902835 284.420914,0.766738025 284.727069,1.05839561 L317.395277,-26.680629 L288.837565,5.12710426 C289.130928,5.42814265 289.429408,5.72576984 289.718507,6.02936663 L318.78193,-25.2538946 L293.671235,10.3428289 C293.954365,10.6643345 294.243464,10.9798705 294.524035,11.3039344 L320.069658,-23.6455139 L298.376132,15.9525471 C298.654145,16.3030479 298.933864,16.6509902 299.208465,17.0031966 L321.313893,-21.8154051 L303.022187,22.1072044 C303.300199,22.4977868 303.570537,22.8943388 303.844286,23.2866268 L322.569215,-19.7362788 L307.674211,29.0651994 C307.952223,29.5069498 308.230236,29.9478474 308.503985,30.3930089 L323.887644,-17.3979013 L312.433687,37.1949415 C312.715111,37.7151495 312.988007,38.2421799 313.262609,38.7666518 L325.310967,-14.7917446 L317.413186,47.3372915 C317.692905,47.9692163 317.972623,48.6019939 318.244666,49.2390354 L326.870738,-11.9169559 L322.846375,61.583315 C323.123535,62.4437902 323.39302,63.3068237 323.653124,64.1732685 L328.592541,-8.77182963 L329.567291,98.0942401 C329.630398,99.2932768 329.679008,100.49743 329.71312,101.704142 L330.168515,101.704142 L330.596621,-38.4211261 L329.459839,-38.4177149 Z" id="Fill-87" fill="#707376" mask="url(#mask-2)"></path>
            </g>
        </g>
    </g>
</svg>