<svg width="290" height="290" xmlns="http://www.w3.org/2000/svg"><g fill="#707376" fill-rule="evenodd"><path d="M.926 0L.419.253 143.936 289.35l2.028-1.012z"/><path d="M9.736.256l134.186 289.068 2.054-.96L10.249.015z"/><path d="M19.053.258L143.91 289.296l2.078-.904L19.572.032z"/><path d="M28.37.26l115.528 289.008 2.103-.848L28.895.048z"/><path d="M37.687.26l106.2 288.977 2.126-.787L38.219.065z"/><path d="M47.005.262l96.872 288.945 2.146-.727L47.542.081z"/><path d="M56.322.263l87.544 288.913 2.167-.664L56.865.098z"/><path d="M65.64.265l78.217 288.878 2.185-.6L66.187.116z"/><path d="M74.959.265l68.889 288.845 2.204-.532L75.51.132z"/><path d="M84.277.266l59.563 288.81 2.22-.464L84.83.15z"/><path d="M93.595.266l50.239 288.776 2.231-.396L94.153.168z"/><path d="M102.914.266l40.914 288.74 2.243-.325L103.475.185z"/><path d="M112.233.266l31.59 288.704 2.252-.253L112.795.203z"/><path d="M143.824 288.716l2.251.256L178.038.33l-.564-.064z"/><path d="M143.828 288.68l2.244.328L187.357.348l-.561-.082z"/><path d="M143.834 288.645l2.23.398L196.676.366l-.559-.1z"/><path d="M143.84 288.61l2.218.467L205.994.383l-.555-.116z"/><path d="M143.848 288.576l2.203.536L215.312.4l-.55-.134z"/><path d="M143.857 288.543l2.185.601L224.63.418l-.546-.15z"/><path d="M143.866 288.511l2.167.666L233.948.435l-.542-.166z"/><path d="M143.877 288.48l2.145.73L243.266.451 242.73.27z"/><path d="M143.887 288.449l2.124.791L252.584.469l-.532-.198z"/><path d="M143.898 288.419l2.102.85L261.901.486l-.525-.213z"/><path d="M143.91 288.39l2.078.907L271.218.501l-.52-.227z"/><path d="M143.923 288.362l2.053.963L280.534.517l-.512-.24z"/><path d="M143.936 288.336l2.027 1.016L289.852.533l-.507-.254zM.39.127L0 288.589l2.267-.003L.955.126z"/><path d="M0 288.57l2.267.035L5.61 9.444l-.567-.009z"/><path d="M0 288.55l2.266.074 7.998-269.862-.566-.018z"/><path d="M.002 288.529l2.263.117L14.917 28.081l-.566-.029z"/><path d="M.003 288.506l2.261.163L19.571 37.401l-.564-.04z"/><path d="M.005 288.48l2.257.214L24.225 46.72l-.564-.052z"/><path d="M.008 288.455l2.25.265L28.877 56.04l-.561-.065z"/><path d="M.011 288.426l2.244.323L33.53 65.36l-.559-.08z"/><path d="M.017 288.396l2.234.384L38.184 74.682l-.558-.096z"/><path d="M.023 288.363l2.221.449L42.837 84.004l-.555-.113z"/><path d="M.03 288.327l2.207.521L47.49 93.326l-.552-.13z"/><path d="M.04 288.29l2.187.595L52.14 102.65l-.546-.15z"/><path d="M.052 288.249l2.162.677 54.577-176.953-.54-.17z"/><path d="M.067 288.205l2.134.765 59.241-167.673-.533-.191z"/><path d="M.085 288.158l2.098.86 63.909-158.396-.525-.214z"/><path d="M.106 288.109l2.054.957 68.58-149.118-.513-.239z"/><path d="M.132 288.056l2.002 1.063L75.39 149.275l-.502-.266z"/><path d="M.164 288.001l1.94 1.173 77.93-130.572-.484-.293z"/><path d="M.201 287.944l1.865 1.287L84.678 167.93l-.466-.322z"/><path d="M.244 287.886l1.778 1.404 87.3-112.033-.445-.35z"/><path d="M.294 287.827l1.68 1.521 91.99-102.762-.42-.38z"/><path d="M.351 287.768l1.564 1.64 96.69-93.494-.393-.41z"/><path d="M.415 287.711l1.437 1.753 101.391-84.222-.36-.438z"/><path d="M.486 287.658l1.296 1.86 106.097-74.95-.324-.464z"/><path d="M.562 287.609l1.144 1.957 110.808-65.672-.287-.488z"/><path d="M.643 287.566l.981 2.043 115.524-56.39-.245-.511z"/><path d="M.728 287.53l.812 2.115 120.241-47.104-.203-.529z"/><path d="M.812 287.5l.643 2.174 124.959-37.812-.161-.543z"/><path d="M.897 287.48l.472 2.215 129.677-28.514-.117-.555z"/><path d="M.98 287.465l.307 2.245 134.392-19.212-.076-.562z"/><path d="M1.06 287.456l.147 2.262 139.107-9.905-.036-.565z"/><path d="M1.131 289.72l143.818-.593v-.566L1.137 287.454zM287.482 288.583l2.268.009.131-288.185-.566-.002z"/><path d="M284.65 9.714l2.844 278.889 2.267-.03-4.545-278.866z"/><path d="M279.983 19.024l7.524 269.599 2.266-.07-9.224-269.547z"/><path d="M275.318 28.334l12.202 260.31 2.264-.113-13.9-260.225z"/><path d="M270.651 37.644l16.882 251.024 2.261-.16-18.577-250.904z"/><path d="M265.986 46.955l21.56 241.737 2.258-.21-23.254-241.58z"/><path d="M261.321 56.266l26.24 232.453 2.253-.263L261.884 56.2z"/><path d="M256.655 65.577l30.923 223.17 2.244-.32-32.606-222.93z"/><path d="M251.991 74.89l35.604 213.888 2.235-.38-37.281-213.604z"/><path d="M247.326 84.202l40.287 204.609 2.222-.447L247.881 84.09z"/><path d="M242.662 93.515l44.97 195.331 2.207-.518-46.626-194.942z"/><path d="M237.998 102.83l49.657 186.055 2.186-.595-51.295-185.61z"/><path d="M233.335 112.144l54.342 176.782 2.164-.676-55.965-176.276z"/><path d="M228.672 121.46l59.032 167.509 2.134-.763-60.632-166.937z"/><path d="M224.01 130.775l63.724 158.241 2.099-.857-65.298-157.598z"/><path d="M219.35 140.093l68.418 148.973 2.055-.957-69.96-148.256z"/><path d="M214.69 149.41l73.116 139.708 2.003-1.062-74.618-138.911z"/><path d="M210.032 158.728l77.818 130.446 1.94-1.173-79.272-129.566z"/><path d="M205.376 168.047l82.523 121.183 1.866-1.286-83.923-120.219z"/><path d="M200.72 177.366l87.234 111.923 1.779-1.403-88.568-110.87z"/><path d="M196.067 186.685l91.95 102.664 1.679-1.523-93.209-101.52z"/><path d="M191.415 196.004l96.67 93.403 1.565-1.64-97.844-92.172z"/><path d="M186.765 205.323l101.396 84.141 1.437-1.753-102.474-82.827z"/><path d="M182.117 214.641l106.127 74.877 1.295-1.86-107.098-73.482z"/><path d="M177.47 223.958l110.862 65.61 1.142-1.96-111.72-64.14z"/><path d="M172.824 233.272l115.603 56.338.979-2.044-116.337-54.804z"/><path d="M168.178 242.587l120.344 47.06.811-2.118-120.952-45.472z"/><path d="M163.534 251.898l125.085 37.777.64-2.175-125.565-36.145z"/><path d="M158.888 261.208l129.828 28.487.471-2.215-130.18-26.826z"/><path d="M154.243 270.515l134.568 19.195.305-2.246-134.796-17.51z"/><path d="M149.597 279.822l139.305 9.896.147-2.262-139.415-8.199z"/><path d="M144.95 288.561v.566l144.04.593-.004-2.266z"/></g></svg>