<svg width="290" height="291" xmlns="http://www.w3.org/2000/svg" xmlns:xlink="http://www.w3.org/1999/xlink"><g fill="none" fill-rule="evenodd"><defs><path id="a" d="M0 0h290v291H0z"/></defs><mask id="b" fill="#fff"><use xlink:href="#a"/></mask><path fill="#707376" mask="url(#b)" d="M.017 288.396l2.234.384L38.184 74.682l-.558-.096z"/><path fill="#707376" mask="url(#b)" d="M.023 288.363l2.221.449L42.837 84.004l-.555-.113z"/><path fill="#707376" mask="url(#b)" d="M.03 288.327l2.207.521L47.49 93.326l-.552-.13z"/><path fill="#707376" mask="url(#b)" d="M.04 288.29l2.187.595L52.14 102.65l-.546-.15z"/><path fill="#707376" mask="url(#b)" d="M.052 288.249l2.162.677 54.577-176.953-.54-.17z"/><path fill="#707376" mask="url(#b)" d="M.067 288.205l2.134.765 59.241-167.673-.533-.191z"/><path fill="#707376" mask="url(#b)" d="M.085 288.158l2.098.86 63.909-158.396-.525-.214z"/><path fill="#707376" mask="url(#b)" d="M.106 288.109l2.054.957 68.58-149.118-.513-.239z"/><path fill="#707376" mask="url(#b)" d="M.132 288.056l2.002 1.063L75.39 149.275l-.502-.266z"/><path fill="#707376" mask="url(#b)" d="M.164 288.001l1.94 1.173 77.93-130.572-.484-.293z"/><path fill="#707376" mask="url(#b)" d="M.201 287.944l1.865 1.287L84.678 167.93l-.466-.322z"/><path fill="#707376" mask="url(#b)" d="M.244 287.886l1.778 1.404 87.3-112.033-.445-.35z"/><path fill="#707376" mask="url(#b)" d="M.294 287.827l1.68 1.521 91.99-102.762-.42-.38z"/><path fill="#707376" mask="url(#b)" d="M.351 287.768l1.564 1.64 96.69-93.494-.393-.41z"/><path fill="#707376" mask="url(#b)" d="M.415 287.711l1.437 1.753 101.391-84.222-.36-.438z"/><path fill="#707376" mask="url(#b)" d="M.486 287.658l1.296 1.86 106.097-74.95-.324-.464z"/><path fill="#707376" mask="url(#b)" d="M.562 287.609l1.144 1.957 110.808-65.672-.287-.488z"/><path fill="#707376" mask="url(#b)" d="M.643 287.566l.981 2.043 115.524-56.39-.245-.511z"/><path fill="#707376" mask="url(#b)" d="M.728 287.53l.812 2.115 120.241-47.104-.203-.529z"/><path fill="#707376" mask="url(#b)" d="M.812 287.5l.643 2.174 124.959-37.812-.161-.543z"/><path fill="#707376" mask="url(#b)" d="M.897 287.48l.472 2.215 129.677-28.514-.117-.555z"/><path fill="#707376" mask="url(#b)" d="M.98 287.465l.307 2.245 134.392-19.212-.076-.562z"/><path fill="#707376" mask="url(#b)" d="M1.06 287.456l.147 2.262 139.107-9.905-.036-.565z"/><path fill="#707376" mask="url(#b)" d="M1.131 289.72l143.818-.593v-.566L1.137 287.454zM251.991 74.89l35.604 213.888 2.235-.38-37.281-213.604z"/><path fill="#707376" mask="url(#b)" d="M247.326 84.202l40.287 204.609 2.222-.447L247.881 84.09z"/><path fill="#707376" mask="url(#b)" d="M242.662 93.515l44.97 195.331 2.207-.518-46.626-194.942z"/><path fill="#707376" mask="url(#b)" d="M237.998 102.83l49.657 186.055 2.186-.595-51.295-185.61z"/><path fill="#707376" mask="url(#b)" d="M233.335 112.144l54.342 176.782 2.164-.676-55.965-176.276z"/><path fill="#707376" mask="url(#b)" d="M228.672 121.46l59.032 167.509 2.134-.763-60.632-166.937z"/><path fill="#707376" mask="url(#b)" d="M224.01 130.775l63.724 158.241 2.099-.857-65.298-157.598z"/><path fill="#707376" mask="url(#b)" d="M219.35 140.093l68.418 148.973 2.055-.957-69.96-148.256z"/><path fill="#707376" mask="url(#b)" d="M214.69 149.41l73.116 139.708 2.003-1.062-74.618-138.911z"/><path fill="#707376" mask="url(#b)" d="M210.032 158.728l77.818 130.446 1.94-1.173-79.272-129.566z"/><path fill="#707376" mask="url(#b)" d="M205.376 168.047l82.523 121.183 1.866-1.286-83.923-120.219z"/><path fill="#707376" mask="url(#b)" d="M200.72 177.366l87.234 111.923 1.779-1.403-88.568-110.87z"/><path fill="#707376" mask="url(#b)" d="M196.067 186.685l91.95 102.664 1.679-1.523-93.209-101.52z"/><path fill="#707376" mask="url(#b)" d="M191.415 196.004l96.67 93.403 1.565-1.64-97.844-92.172z"/><path fill="#707376" mask="url(#b)" d="M186.765 205.323l101.396 84.141 1.437-1.753-102.474-82.827z"/><path fill="#707376" mask="url(#b)" d="M182.117 214.641l106.127 74.877 1.295-1.86-107.098-73.482z"/><path fill="#707376" mask="url(#b)" d="M177.47 223.958l110.862 65.61 1.142-1.96-111.72-64.14z"/><path fill="#707376" mask="url(#b)" d="M172.824 233.272l115.603 56.338.979-2.044-116.337-54.804z"/><path fill="#707376" mask="url(#b)" d="M168.178 242.587l120.344 47.06.811-2.118-120.952-45.472z"/><path fill="#707376" mask="url(#b)" d="M163.534 251.898l125.085 37.777.64-2.175-125.565-36.145z"/><path fill="#707376" mask="url(#b)" d="M158.888 261.208l129.828 28.487.471-2.215-130.18-26.826z"/><path fill="#707376" mask="url(#b)" d="M154.243 270.515l134.568 19.195.305-2.246-134.796-17.51z"/><path fill="#707376" mask="url(#b)" d="M149.597 279.822l139.305 9.896.147-2.262-139.415-8.199z"/><path fill="#707376" mask="url(#b)" d="M144.95 288.561v.566l144.04.593-.004-2.266z"/></g></svg>
