<svg width="290" height="291" xmlns="http://www.w3.org/2000/svg" xmlns:xlink="http://www.w3.org/1999/xlink"><g fill="none" fill-rule="evenodd"><defs><path id="a" d="M0 0h290v291H0z"/></defs><mask id="b" fill="#fff"><use xlink:href="#a"/></mask><path fill="#707376" mask="url(#b)" d="M.294 287.827l1.68 1.521 91.99-102.762-.42-.38z"/><path fill="#707376" mask="url(#b)" d="M.351 287.768l1.564 1.64 96.69-93.494-.393-.41z"/><path fill="#707376" mask="url(#b)" d="M.415 287.711l1.437 1.753 101.391-84.222-.36-.438z"/><path fill="#707376" mask="url(#b)" d="M.486 287.658l1.296 1.86 106.097-74.95-.324-.464z"/><path fill="#707376" mask="url(#b)" d="M.562 287.609l1.144 1.957 110.808-65.672-.287-.488z"/><path fill="#707376" mask="url(#b)" d="M.643 287.566l.981 2.043 115.524-56.39-.245-.511z"/><path fill="#707376" mask="url(#b)" d="M.728 287.53l.812 2.115 120.241-47.104-.203-.529z"/><path fill="#707376" mask="url(#b)" d="M.812 287.5l.643 2.174 124.959-37.812-.161-.543z"/><path fill="#707376" mask="url(#b)" d="M.897 287.48l.472 2.215 129.677-28.514-.117-.555z"/><path fill="#707376" mask="url(#b)" d="M.98 287.465l.307 2.245 134.392-19.212-.076-.562z"/><path fill="#707376" mask="url(#b)" d="M1.06 287.456l.147 2.262 139.107-9.905-.036-.565z"/><path fill="#707376" mask="url(#b)" d="M1.131 289.72l143.818-.593v-.566L1.137 287.454zM196.067 186.685l91.95 102.664 1.679-1.523-93.209-101.52z"/><path fill="#707376" mask="url(#b)" d="M191.415 196.004l96.67 93.403 1.565-1.64-97.844-92.172z"/><path fill="#707376" mask="url(#b)" d="M186.765 205.323l101.396 84.141 1.437-1.753-102.474-82.827z"/><path fill="#707376" mask="url(#b)" d="M182.117 214.641l106.127 74.877 1.295-1.86-107.098-73.482z"/><path fill="#707376" mask="url(#b)" d="M177.47 223.958l110.862 65.61 1.142-1.96-111.72-64.14z"/><path fill="#707376" mask="url(#b)" d="M172.824 233.272l115.603 56.338.979-2.044-116.337-54.804z"/><path fill="#707376" mask="url(#b)" d="M168.178 242.587l120.344 47.06.811-2.118-120.952-45.472z"/><path fill="#707376" mask="url(#b)" d="M163.534 251.898l125.085 37.777.64-2.175-125.565-36.145z"/><path fill="#707376" mask="url(#b)" d="M158.888 261.208l129.828 28.487.471-2.215-130.18-26.826z"/><path fill="#707376" mask="url(#b)" d="M154.243 270.515l134.568 19.195.305-2.246-134.796-17.51z"/><path fill="#707376" mask="url(#b)" d="M149.597 279.822l139.305 9.896.147-2.262-139.415-8.199z"/><path fill="#707376" mask="url(#b)" d="M144.95 288.561v.566l144.04.593-.004-2.266z"/></g></svg>
