<svg width="290" height="291" xmlns="http://www.w3.org/2000/svg" xmlns:xlink="http://www.w3.org/1999/xlink"><g fill="none" fill-rule="evenodd"><defs><path id="a" d="M0 0h290v291H0z"/></defs><mask id="b" fill="#fff"><use xlink:href="#a"/></mask><path fill="#707376" mask="url(#b)" d="M.643 287.566l.981 2.043 115.524-56.39-.245-.511z"/><path fill="#707376" mask="url(#b)" d="M.728 287.53l.812 2.115 120.241-47.104-.203-.529z"/><path fill="#707376" mask="url(#b)" d="M.812 287.5l.643 2.174 124.959-37.812-.161-.543z"/><path fill="#707376" mask="url(#b)" d="M.897 287.48l.472 2.215 129.677-28.514-.117-.555z"/><path fill="#707376" mask="url(#b)" d="M.98 287.465l.307 2.245 134.392-19.212-.076-.562z"/><path fill="#707376" mask="url(#b)" d="M1.06 287.456l.147 2.262 139.107-9.905-.036-.565z"/><path fill="#707376" mask="url(#b)" d="M1.131 289.72l143.818-.593v-.566L1.137 287.454zM172.824 233.272l115.603 56.338.979-2.044-116.337-54.804z"/><path fill="#707376" mask="url(#b)" d="M168.178 242.587l120.344 47.06.811-2.118-120.952-45.472z"/><path fill="#707376" mask="url(#b)" d="M163.534 251.898l125.085 37.777.64-2.175-125.565-36.145z"/><path fill="#707376" mask="url(#b)" d="M158.888 261.208l129.828 28.487.471-2.215-130.18-26.826z"/><path fill="#707376" mask="url(#b)" d="M154.243 270.515l134.568 19.195.305-2.246-134.796-17.51z"/><path fill="#707376" mask="url(#b)" d="M149.597 279.822l139.305 9.896.147-2.262-139.415-8.199z"/><path fill="#707376" mask="url(#b)" d="M144.95 288.561v.566l144.04.593-.004-2.266z"/></g></svg>
