<svg xmlns="http://www.w3.org/2000/svg" viewBox="0 0 291 292"><g fill="#707376" fill-rule="evenodd"><path d="M1.028 136.896l.96-104.203 4.618 72.352c.27-.918.545-1.834.833-2.744L3.704 29.398l8.118 60.919c.278-.668.563-1.33.852-1.992l-7.42-61.97L16.647 79.92c.279-.541.566-1.076.85-1.613L6.663 23.583 21.282 71.6c.278-.462.557-.922.84-1.38L7.959 21.088l17.873 43.415c.277-.405.557-.806.837-1.208l-17.49-44.44 21.202 39.36c.277-.362.553-.727.833-1.087L10.368 16.88 34.99 52.49c.281-.332.558-.667.843-.996L11.581 15.139l28.15 32.032c.288-.309.572-.622.863-.929l-27.72-32.644L44.67 42.143c.302-.293.599-.59.903-.88L14.301 12.21l35.593 25.107c.322-.283.64-.57.965-.85L15.91 10.924 55.515 32.62c.351-.278.703-.554 1.057-.83L17.74 9.68l43.944 18.3c.391-.277.79-.545 1.183-.82L19.817 8.423l48.85 14.908c.441-.276.881-.556 1.327-.828L22.156 7.104l54.678 11.472c.52-.28 1.045-.554 1.57-.828L24.766 5.682l62.266 7.914c.632-.278 1.26-.56 1.898-.83L27.639 4.123l73.762 4.038c.87-.276 1.741-.542 2.617-.802L30.774 2.4 141.26 1.392l-.002-.568L1.134.395l.004 1.13v.007L0 1.528l.38 144.017h.366a146 146 0 01.283-8.649m289.568 152.959l-.428-140.125h-.442a146.332 146.332 0 01-.164 4.026l-.97 106.45-4.92-72.655c-.262.871-.532 1.74-.81 2.604l4.008 73.196-8.588-60.887c-.273.64-.554 1.274-.835 1.908l7.863 61.854-11.992-53.309c-.276.527-.55 1.054-.832 1.576l11.4 54.338-15.308-47.555c-.274.447-.553.888-.831 1.332l14.822 48.563-18.63-42.806c-.276.396-.544.796-.824 1.188l18.198 43.697-21.989-38.615c-.275.355-.554.707-.833 1.058l21.578 39.387-25.407-34.758c-.28.325-.568.644-.852.967l24.973 35.4-28.895-31.103c-.292.306-.59.603-.884.907l28.39 31.622-32.468-27.569c-.307.293-.621.578-.932.867l31.858 27.995-36.157-24.118c-.329.284-.666.562-.997.844l35.414 24.488-40.025-20.73c-.36.282-.725.558-1.09.836l39.139 21.084-44.185-17.39c-.403.28-.805.561-1.21.839l43.164 17.771-48.842-14.081c-.46.284-.92.567-1.383.846l47.727 14.53-54.379-10.767c-.539.287-1.077.574-1.618.854l53.226 11.32-61.545-7.368c-.663.29-1.324.579-1.99.858l60.49 8.062-72.323-3.706c-.907.29-1.818.57-2.732.84l71.758 4.582-101.273.933c-3.82.307-7.678.471-11.574.475v.2l144.016.379-.004-1.137 1.137.003zm-156.649.12l-103.172-.94 72.267-4.893a139.4 139.4 0 01-2.58-.817l-72.82 3.986 60.672-8.557c-.64-.274-1.278-.553-1.912-.837l-61.636 7.835 53.164-11.96c-.526-.277-1.057-.55-1.579-.833l-54.194 11.37 47.46-15.277a123.46 123.46 0 01-1.334-.833l-48.47 14.793 42.738-18.6c-.393-.275-.79-.548-1.18-.827l-43.632 18.17 38.564-21.96c-.353-.275-.702-.557-1.052-.837L15.91 280.51l34.725-25.38c-.325-.283-.643-.573-.964-.857l-35.372 24.951 31.086-28.879c-.305-.292-.603-.59-.906-.884l-31.606 28.375 27.564-32.46c-.293-.307-.578-.62-.868-.93L11.58 276.293l24.12-36.156c-.286-.33-.564-.666-.846-.999L10.37 274.553l20.735-40.035c-.282-.362-.558-.726-.836-1.09l-21.09 39.15 17.402-44.212c-.281-.403-.564-.806-.84-1.211L7.96 270.345l14.094-48.888a138.74 138.74 0 01-.843-1.39L6.662 267.851l10.785-54.465c-.285-.54-.576-1.076-.854-1.619L5.254 265.079l7.387-61.69a135.28 135.28 0 01-.855-2.003l-8.083 60.65 3.72-72.596c-.289-.914-.565-1.835-.836-2.757l-4.6 72.058-.956-103.787c-.185-2.996-.29-6.015-.29-9.059v-.006H.379L0 289.905l1.136-.004h.002v.007l-.003 1.131 140.123-.429v-.254c-2.453-.067-4.89-.194-7.31-.381"/><path d="M40.651 244.535c-13.456-14.116-24.045-30.989-30.814-49.319-4.881-13.216-7.754-27.16-8.598-41.235l.07-.004C.263 134.46 3.16 114.74 9.905 96.413 16.646 78.083 27.21 61.2 40.65 47.068c13.427-14.146 29.732-25.539 47.642-33.22 17.9-7.715 37.39-11.64 56.862-11.574L145.14 0c-19.774.076-39.517 4.21-57.589 12.156-18.084 7.914-34.486 19.56-47.94 33.942-13.466 14.37-23.99 31.474-30.642 49.979-4.8 13.342-7.563 27.381-8.29 41.516l-.081-.005c-1.17 19.604 1.62 39.463 8.305 57.97 6.681 18.506 17.232 35.6 30.716 49.953 13.473 14.365 29.887 25.986 47.972 33.872 18.074 7.919 37.808 12.02 57.564 12.073v-2.274c-19.453.09-38.933-3.807-56.832-11.496-17.91-7.655-34.225-19.023-47.67-33.151"/><path d="M44.934 48.476c12.54-14.273 27.963-26.02 45.16-34.032 17.177-8.042 36.117-12.253 55.06-12.16V.01c-19.274.048-38.49 4.478-55.846 12.76C71.93 21.026 56.42 33.035 43.862 47.542 31.273 62.038 21.677 79.066 15.605 97.237 11.212 110.34 8.68 124.039 8 137.824l-.103-.004c-1.043 19.121 1.498 38.456 7.609 56.633 6.092 18.173 15.709 35.197 28.324 49.672 12.582 14.486 28.115 26.459 45.501 34.674 17.362 8.243 36.57 12.633 55.824 12.656l-.015-2.274c-18.922.116-37.85-4.057-55.034-12.06-17.203-7.973-32.647-19.686-45.21-33.937-12.598-14.238-22.265-31.05-28.45-49.056-4.471-12.984-7.1-26.595-7.888-40.322l.044-.001c-.907-19.042 1.76-38.242 7.946-56.248 6.164-18.006 15.814-34.82 28.386-49.08"/><path d="M49.432 50.067C61 35.647 75.512 23.563 91.946 15.17c16.41-8.414 34.788-12.96 53.208-12.875V.02c-18.786.055-37.464 4.838-54.056 13.507-16.616 8.65-31.205 21-42.775 35.653C36.715 63.819 27.987 80.667 22.48 98.472c-3.98 12.84-6.267 26.184-6.888 39.598l-.104-.005c-.945 18.608 1.333 37.397 6.863 55.214 5.517 17.812 14.27 34.655 25.909 49.271 11.601 14.63 26.222 26.938 42.856 35.532 16.607 8.615 35.276 13.342 54.038 13.374l-.013-2.275c-18.397.107-36.767-4.386-53.191-12.748-16.448-8.339-30.991-20.381-42.586-34.779-11.634-14.382-20.45-31.022-26.065-48.678-4.057-12.731-6.435-25.992-7.152-39.353l.036-.002c-.792-18.534 1.628-37.197 7.247-54.851 5.606-17.65 14.398-34.295 26.002-48.703"/><path d="M54.06 51.743c5.34-7.236 11.358-13.971 18.006-20.013 1.646-1.528 3.406-2.928 5.103-4.398 1.748-1.405 3.553-2.742 5.328-4.116 1.856-1.26 3.68-2.567 5.561-3.789l2.868-1.758c.959-.583 1.9-1.192 2.9-1.703 7.817-4.39 16.156-7.844 24.8-10.167a101.299 101.299 0 0126.528-3.495V.03a103.43 103.43 0 00-27.069 3.78c-8.8 2.44-17.263 6.026-25.172 10.55-1.011.527-1.964 1.154-2.933 1.753l-2.898 1.81c-1.9 1.254-3.742 2.595-5.614 3.889-1.79 1.407-3.609 2.777-5.37 4.215-1.709 1.503-3.479 2.936-5.134 4.496-6.685 6.172-12.716 13.03-18.05 20.381C42.24 65.614 34.357 82.265 29.39 99.695c-3.585 12.575-5.643 25.565-6.205 38.614l-.107-.005c-.851 18.104 1.181 36.358 6.156 53.806 4.968 17.44 12.872 34.09 23.582 48.776 5.351 7.337 11.404 14.178 18.107 20.326 6.696 6.153 14.063 11.6 21.997 16.077 7.922 4.491 16.391 8.042 25.189 10.451a104.035 104.035 0 0027.044 3.715l-.013-2.274a101.864 101.864 0 01-26.503-3.433c-8.643-2.295-16.987-5.715-24.817-10.073-7.84-4.343-15.145-9.655-21.802-15.679-6.668-6.018-12.705-12.735-18.061-19.958-10.718-14.456-18.696-30.916-23.768-48.209-3.663-12.473-5.804-25.39-6.454-38.39h.031c-.686-18.035 1.501-36.172 6.58-53.466 5.073-17.286 13.03-33.747 23.713-48.23"/><path d="M58.788 53.469c9.752-14.5 22.184-27.315 36.968-36.605A97.023 97.023 0 01119.461 6.09c8.329-2.492 17.009-3.786 25.693-3.776V.04c-8.91.06-17.796 1.46-26.291 4.078A98.977 98.977 0 0094.77 15.3c-14.965 9.574-27.436 22.66-37.165 37.38-9.742 14.748-16.81 31.174-21.265 48.225-3.21 12.302-5.056 24.944-5.561 37.635l-.108-.004c-.764 17.607 1.037 35.34 5.486 52.412 4.447 17.061 11.535 33.49 21.317 48.215C67.24 253.86 79.77 266.89 94.77 276.388a99.06 99.06 0 0024.12 11.067c8.495 2.58 17.37 3.952 26.264 4l-.013-2.274c-17.365.076-34.613-5.17-49.4-14.365-14.815-9.214-27.303-21.972-37.09-36.449-9.803-14.501-16.977-30.751-21.534-47.677-3.287-12.21-5.205-24.786-5.79-37.432l.033-.002c-.602-17.544 1.379-35.167 5.942-52.095 4.565-16.916 11.72-33.165 21.486-47.692"/><path d="M63.627 55.239c8.85-14.504 20.241-27.604 34.15-37.332 6.936-4.854 14.496-8.845 22.524-11.488 8.007-2.676 16.424-4.094 24.854-4.095V.05c-8.684.071-17.332 1.606-25.519 4.419-8.208 2.78-15.9 6.925-22.923 11.926-14.082 10.028-25.49 23.395-34.302 38.109-8.822 14.752-15.117 30.927-19.086 47.595a188.732 188.732 0 00-4.95 36.667l-.11-.003c-.683 17.12.903 34.344 4.853 51.036 3.947 16.682 10.272 32.855 19.126 47.59 8.848 14.695 20.328 28.005 34.455 37.945 7.049 4.959 14.754 9.058 22.965 11.793 8.189 2.77 16.824 4.269 25.49 4.329l-.012-2.275c-8.415.01-16.822-1.376-24.831-4.01-8.03-2.6-15.603-6.548-22.563-11.358-13.95-9.642-25.41-22.683-34.293-37.167-8.89-14.52-15.309-30.528-19.37-47.085-2.933-11.945-4.64-24.185-5.166-36.484l.036-.002a188.298 188.298 0 015.337-50.741C48.376 85.79 54.767 69.78 63.627 55.239"/><path d="M68.64 57.078c3.986-7.249 8.545-14.184 13.728-20.616 5.169-6.44 11.013-12.341 17.501-17.412 6.486-5.058 13.614-9.328 21.28-12.254 7.673-2.884 15.827-4.448 24.005-4.462V.06c-8.466.084-16.88 1.778-24.747 4.813-7.86 3.079-15.116 7.515-21.684 12.727-6.57 5.227-12.45 11.273-17.63 17.84C75.898 42 71.35 49.05 67.39 56.398c-7.899 14.716-13.545 30.584-17.043 46.873a202.306 202.306 0 00-4.378 35.712l-.11-.003c-.61 16.646.776 33.374 4.258 49.682 3.52 16.289 9.137 32.172 17.083 46.868 3.978 7.34 8.55 14.372 13.773 20.907 5.212 6.54 11.113 12.562 17.72 17.736 6.597 5.167 13.878 9.546 21.74 12.575 7.873 2.984 16.274 4.636 24.72 4.708l-.012-2.275c-8.16-.002-16.304-1.527-23.984-4.363-7.669-2.881-14.82-7.093-21.333-12.106-6.522-5.019-12.385-10.896-17.583-17.308-5.21-6.406-9.794-13.323-13.798-20.562-7.996-14.492-13.714-30.224-17.355-46.397-2.596-11.675-4.108-23.588-4.578-35.548l.042-.002a201.398 201.398 0 014.766-49.41c3.62-16.174 9.37-31.892 17.32-46.407"/><path d="M73.784 58.944C80.899 44.55 90.128 31.03 102.06 20.308c5.987-5.305 12.695-9.803 19.973-13.03 7.28-3.22 15.2-4.881 23.12-4.934V.07c-8.251.122-16.47 1.934-23.951 5.324-7.485 3.395-14.317 8.074-20.375 13.539-6.035 5.502-11.355 11.73-16.044 18.371-4.69 6.645-8.753 13.71-12.278 21.018-7.038 14.631-11.96 30.21-15.098 46.096a218.893 218.893 0 00-3.833 34.774l-.12-.004c-.53 16.181.64 32.437 3.726 48.35 3.115 15.895 8.026 31.485 15.102 46.103 3.542 7.301 7.63 14.351 12.352 20.971 4.721 6.617 10.077 12.81 16.148 18.266 6.084 5.428 12.955 10.036 20.447 13.376 7.493 3.333 15.698 5.092 23.924 5.202l-.011-2.275c-7.9-.042-15.81-1.653-23.1-4.821-7.287-3.174-14.031-7.601-20.042-12.872-11.999-10.625-21.3-24.098-28.445-38.478-7.14-14.427-12.163-29.879-15.4-45.67-2.314-11.397-3.626-22.99-4.041-34.621l.035-.002c-.394-16.135 1.05-32.3 4.232-48.104 3.264-15.782 8.296-31.224 15.402-45.669"/><path d="M65.504 105.716c2.879-15.405 7.276-30.55 13.554-44.894C82.2 53.658 85.823 46.7 90.016 40.11c4.193-6.585 8.964-12.81 14.418-18.362 2.695-2.81 5.661-5.33 8.7-7.74 3.144-2.259 6.343-4.474 9.83-6.148 6.852-3.581 14.52-5.442 22.189-5.507V.08c-8.057.133-16.066 2.175-23.127 5.946-3.596 1.77-6.872 4.08-10.081 6.433-3.098 2.5-6.11 5.11-8.833 8-5.513 5.714-10.295 12.077-14.48 18.781-4.183 6.71-7.774 13.765-10.88 21.017-10.591 25.03-15.857 52.064-16.57 79.133l-.13-.003a241.852 241.852 0 00.428 23.602 218.153 218.153 0 002.81 23.445c2.712 15.511 6.982 30.79 13.21 45.298 3.118 7.246 6.733 14.29 10.95 20.978 4.218 6.682 9.04 13.014 14.594 18.682 2.74 2.87 5.774 5.45 8.889 7.92 3.222 2.328 6.516 4.6 10.12 6.339 7.078 3.704 15.07 5.684 23.1 5.805l-.01-2.276c-7.649-.05-15.305-1.858-22.175-5.375-3.493-1.645-6.709-3.823-9.864-6.058-3.055-2.38-6.043-4.87-8.752-7.66-5.492-5.505-10.3-11.697-14.525-18.258-4.225-6.568-7.87-13.512-11.027-20.67-6.306-14.33-10.692-29.486-13.53-44.902a216.834 216.834 0 01-3.012-23.328c-.262-3.456-.438-6.92-.552-10.386h.041c-.203-7.846.093-15.697.703-23.514.635-7.815 1.611-15.607 3.054-23.313"/><path d="M72.66 106.784c2.523-15.03 6.3-29.882 11.83-44.075 2.76-7.093 5.939-14.024 9.634-20.664 3.703-6.628 7.894-13.003 12.832-18.745 1.263-1.406 2.463-2.874 3.824-4.185l1.99-2.017 2.104-1.889c1.366-1.305 2.909-2.39 4.372-3.572.748-.57 1.549-1.063 2.322-1.598.777-.525 1.543-1.07 2.375-1.506l2.444-1.388c.832-.426 1.693-.793 2.539-1.193l1.271-.588 1.319-.47c.881-.302 1.747-.658 2.64-.916 3.582-1.047 7.285-1.547 10.998-1.614V.09c-3.942.102-7.862.673-11.625 1.814-.939.281-1.845.66-2.769.986l-1.379.509-1.326.626c-.88.426-1.777.82-2.641 1.273l-2.53 1.467c-.86.464-1.65 1.034-2.451 1.585-.795.562-1.62 1.083-2.387 1.678-1.499 1.231-3.082 2.37-4.47 3.721l-2.145 1.963-2.018 2.082c-1.382 1.358-2.593 2.864-3.869 4.314-4.98 5.904-9.166 12.409-12.852 19.149-3.674 6.75-6.815 13.772-9.53 20.944-5.436 14.35-9.092 29.311-11.484 44.425-1.204 7.561-1.998 15.183-2.48 22.818a289.16 289.16 0 00-.436 10.135l-.111-.002c-.41 15.296.416 30.648 2.781 45.783 2.33 15.131 6.013 30.093 11.472 44.435 2.725 7.169 5.885 14.183 9.59 20.915 3.72 6.718 7.934 13.205 12.955 19.068 1.298 1.428 2.505 2.938 3.902 4.277l2.04 2.06c.705.66 1.438 1.295 2.155 1.943 1.406 1.333 2.986 2.464 4.501 3.674.765.594 1.6 1.099 2.397 1.652.807.54 1.596 1.107 2.46 1.56l2.54 1.44c.864.447 1.765.829 2.645 1.246l1.329.613 1.378.497c.923.318 1.83.686 2.769.962 3.757 1.109 7.663 1.66 11.589 1.753l-.012-2.274c-3.7-.058-7.393-.543-10.972-1.56-.892-.255-1.76-.599-2.642-.893l-1.317-.46-1.275-.575c-.845-.392-1.71-.745-2.541-1.17l-2.454-1.359c-.834-.425-1.599-.97-2.384-1.482-.774-.529-1.584-1.004-2.33-1.575-1.477-1.16-3.02-2.238-4.399-3.525-.704-.625-1.422-1.234-2.117-1.87l-2.008-1.994c-1.376-1.292-2.571-2.763-3.856-4.148-4.974-5.7-9.19-12.057-12.927-18.66-3.725-6.62-6.921-13.541-9.691-20.629-5.549-14.183-9.356-29.034-11.814-44.08-1.799-10.85-2.794-21.829-3.114-32.83l.045-.001c-.18-7.631.099-15.266.632-22.873.551-7.607 1.413-15.194 2.682-22.713"/><path d="M78.438 118.851l.65-5.527c.206-1.844.508-3.675.758-5.513a270.879 270.879 0 014.127-21.857 231.47 231.47 0 016.111-21.368c2.387-7.011 5.14-13.9 8.361-20.555 3.224-6.651 6.916-13.08 11.252-19.038 4.305-5.97 9.407-11.378 15.313-15.657.732-.544 1.526-.99 2.285-1.49l1.15-.731c.395-.224.803-.42 1.204-.632.811-.403 1.597-.863 2.426-1.22l2.516-1.007c3.407-1.184 6.972-1.845 10.562-1.882V.099c-3.87.072-7.692.823-11.303 2.12l-2.659 1.095c-.874.387-1.697.875-2.547 1.31-.42.226-.849.439-1.26.678l-1.199.776c-.789.53-1.616 1.008-2.372 1.58-6.112 4.517-11.281 10.13-15.613 16.25-4.36 6.114-8.035 12.665-11.23 19.417-3.19 6.758-5.897 13.728-8.233 20.81a233.196 233.196 0 00-5.942 21.549 272.387 272.387 0 00-3.934 21.988c-.233 1.847-.518 3.687-.708 5.539l-.599 5.551c-.313 3.71-.645 7.416-.824 11.134a322.231 322.231 0 00-.371 9.86l-.109-.002c-.373 14.881.345 29.803 2.36 44.565 1.963 14.763 5.176 29.381 9.848 43.55 2.344 7.08 5.067 14.044 8.288 20.788 3.221 6.738 6.937 13.267 11.343 19.341 4.376 6.083 9.584 11.651 15.74 16.084.755.57 1.591 1.033 2.383 1.554l1.204.76c.41.24.842.443 1.262.666.852.424 1.679.9 2.552 1.28l2.66 1.065c3.607 1.261 7.415 1.983 11.263 2.048l-.01-2.274c-3.577-.03-7.13-.668-10.536-1.82l-2.517-.98c-.83-.352-1.619-.798-2.43-1.192-.402-.208-.815-.394-1.207-.62l-1.156-.717c-.761-.492-1.563-.92-2.293-1.463-5.947-4.197-11.083-9.563-15.43-15.491-4.379-5.917-8.11-12.322-11.36-18.957-3.248-6.642-6.016-13.521-8.41-20.53-4.774-14.025-8.115-28.544-10.21-43.233-1.548-10.588-2.417-21.273-2.7-31.978l.05-.001c-.15-7.424.103-14.85.566-22.256.214-3.705.581-7.399.928-11.092"/><path d="M95.802 66.41c2.04-6.918 4.39-13.744 7.156-20.395 2.766-6.646 5.941-13.128 9.715-19.232 1.883-3.052 3.931-6 6.175-8.779 2.232-2.788 4.69-5.385 7.37-7.706a45.573 45.573 0 014.227-3.19 34.53 34.53 0 014.612-2.52c3.191-1.426 6.639-2.205 10.096-2.205V.11c-3.804.034-7.57.936-10.983 2.5a36.685 36.685 0 00-4.892 2.735 47.667 47.667 0 00-4.41 3.395c-2.773 2.45-5.283 5.16-7.548 8.047-2.276 2.876-4.337 5.906-6.222 9.032-3.78 6.25-6.926 12.84-9.653 19.576-2.724 6.743-5.023 13.641-7.01 20.621-3.962 13.966-6.651 28.259-8.378 42.645a310.668 310.668 0 00-2.11 31.255l-.098-.001c-.183 7.243-.078 14.491.22 21.73.311 7.241.927 14.467 1.749 21.668a274.111 274.111 0 003.315 21.49c1.383 7.118 3.037 14.188 5.019 21.17 1.98 6.982 4.303 13.874 7.052 20.605 2.748 6.728 5.925 13.305 9.764 19.514.976 1.543 1.926 3.101 3.008 4.578.531.744 1.036 1.505 1.59 2.235l1.696 2.16c.286.358.56.725.856 1.075l.913 1.03c.612.683 1.21 1.38 1.837 2.051 1.324 1.279 2.573 2.634 4.024 3.785 1.367 1.243 2.908 2.281 4.415 3.36 1.601.945 3.18 1.938 4.92 2.642 3.414 1.507 7.143 2.407 10.926 2.448l-.01-2.274c-3.445-.006-6.865-.794-10.059-2.164-1.623-.634-3.118-1.561-4.636-2.433-1.437-1.012-2.91-1.976-4.232-3.158-1.399-1.083-2.615-2.385-3.906-3.6-.611-.646-1.197-1.316-1.798-1.973l-.896-.989c-.29-.338-.56-.693-.842-1.039l-1.674-2.088c-.546-.706-1.049-1.447-1.575-2.17-1.072-1.431-2.02-2.953-2.992-4.457-3.83-6.061-7.035-12.528-9.82-19.163-2.789-6.639-5.162-13.457-7.197-20.376-2.038-6.918-3.752-13.936-5.2-21.008a273.043 273.043 0 01-3.51-21.374c-.89-7.169-1.575-14.367-1.958-21.585a369.6 369.6 0 01-.359-9.576h.055c-.192-14.455.663-28.918 2.5-43.245 1.862-14.322 4.681-28.531 8.758-42.373"/><path d="M101.669 68.192c1.718-6.816 3.704-13.564 6.032-20.186 2.336-6.617 5.013-13.117 8.22-19.336 3.218-6.195 6.963-12.171 11.696-17.22 2.381-2.492 5.011-4.76 7.976-6.406 2.945-1.66 6.235-2.675 9.56-2.65V.12c-3.775.008-7.452 1.203-10.627 3.038-3.204 1.824-5.953 4.257-8.413 6.883-4.88 5.316-8.626 11.46-11.837 17.788-3.194 6.351-5.832 12.945-8.119 19.643-2.281 6.7-4.21 13.51-5.868 20.38-3.297 13.745-5.561 27.716-6.99 41.757a353.734 353.734 0 00-1.755 30.466l-.094-.002a348.59 348.59 0 001.605 42.291c1.4 14.048 3.634 28.028 6.954 41.77 1.664 6.868 3.6 13.677 5.903 20.37 2.306 6.69 4.976 13.273 8.212 19.597 1.619 3.161 3.384 6.256 5.362 9.225 1.963 2.976 4.154 5.82 6.617 8.44 2.488 2.591 5.26 4.981 8.471 6.757 3.183 1.787 6.839 2.932 10.578 2.932l-.008-2.274c-3.304.03-6.579-.943-9.53-2.56-2.972-1.603-5.623-3.828-8.026-6.285-2.386-2.487-4.539-5.22-6.483-8.104-1.957-2.875-3.719-5.893-5.343-8.987-6.47-12.412-10.904-25.853-14.374-39.456-3.439-13.634-5.807-27.539-7.343-41.53a348.023 348.023 0 01-1.97-30.384h.06a351.91 351.91 0 012.154-42.16c1.566-13.986 3.962-27.884 7.38-41.523"/><path d="M107.677 69.89c2.854-13.403 6.488-26.691 11.779-39.297 2.68-6.267 5.776-12.401 9.811-17.821 2.037-2.677 4.303-5.203 6.971-7.14 2.643-1.94 5.74-3.25 8.914-3.228V.13c-3.79.012-7.341 1.61-10.2 3.757-2.898 2.154-5.245 4.847-7.338 7.655-4.135 5.679-7.207 11.954-9.864 18.34-5.226 12.826-8.735 26.225-11.465 39.721-2.707 13.51-4.549 27.175-5.715 40.888a409.82 409.82 0 00-1.426 29.722h-.094c-.28 13.757.15 27.532 1.284 41.25 1.141 13.718 2.967 27.389 5.676 40.9 2.749 13.492 6.277 26.89 11.581 39.681 1.333 3.193 2.795 6.338 4.44 9.398 1.633 3.065 3.463 6.039 5.559 8.846 2.121 2.78 4.5 5.434 7.413 7.537 2.874 2.099 6.41 3.624 10.15 3.63l-.008-2.274c-3.146.025-6.23-1.227-8.885-3.122-2.68-1.889-4.973-4.375-7.033-7.023-2.042-2.677-3.853-5.549-5.482-8.53-1.638-2.976-3.107-6.054-4.455-9.19-5.364-12.563-9.017-25.848-11.888-39.244-2.835-13.42-4.798-27.028-6.078-40.698a401.652 401.652 0 01-1.65-29.652l.062-.001a406.945 406.945 0 011.825-41.141c1.304-13.665 3.284-27.27 6.116-40.69"/><path d="M108.858 111.374c1.067-13.368 2.665-26.694 4.947-39.9 2.312-13.189 5.212-26.311 9.478-38.974 2.16-6.308 4.643-12.535 7.945-18.267 1.672-2.836 3.537-5.584 5.834-7.84 1.147-1.123 2.399-2.121 3.764-2.846 1.368-.713 2.844-1.126 4.327-1.134V.14c-1.907.024-3.763.583-5.374 1.449-1.609.877-3 2.024-4.243 3.266-2.486 2.499-4.39 5.395-6.095 8.352-3.348 5.962-5.79 12.303-7.911 18.71-4.176 12.847-6.945 26.057-9.127 39.323-2.15 13.28-3.61 26.656-4.537 40.062a487.327 487.327 0 00-1.123 29.036l-.093-.001a478.592 478.592 0 00.992 40.292c.899 13.411 2.356 26.79 4.51 40.069 2.18 13.268 4.992 26.472 9.22 39.298 2.147 6.394 4.63 12.72 8.036 18.64 1.727 2.937 3.667 5.804 6.177 8.255 1.253 1.22 2.654 2.336 4.258 3.184 1.606.833 3.437 1.362 5.31 1.381l-.009-2.274c-1.462-.006-2.923-.396-4.287-1.082-1.359-.703-2.619-1.67-3.772-2.772-2.315-2.211-4.212-4.925-5.903-7.741-3.352-5.685-5.875-11.894-8.061-18.189-4.315-12.637-7.258-25.75-9.568-38.939-2.286-13.204-3.88-26.532-4.919-39.903a478.967 478.967 0 01-1.357-28.98h.062a483.407 483.407 0 011.519-40.201"/><path d="M120.047 72.918c1.794-12.988 4.055-25.931 7.346-38.597 1.669-6.318 3.585-12.588 6.152-18.55 1.304-2.96 2.755-5.873 4.612-8.438.93-1.271 1.953-2.476 3.14-3.39a8.582 8.582 0 011.864-1.112 5.765 5.765 0 011.991-.407V.149a8.015 8.015 0 00-2.853.606c-.875.384-1.667.88-2.374 1.442-1.423 1.127-2.532 2.482-3.53 3.872-1.976 2.8-3.433 5.83-4.746 8.891-2.566 6.15-4.43 12.506-6.045 18.902-3.181 12.81-5.308 25.822-6.965 38.871-2.79 22.47-4.152 45.091-4.287 67.711h-.102c-.363 26.287.91 52.613 4.166 78.727 1.67 13.047 3.81 26.059 7.042 38.853 1.649 6.385 3.534 12.736 6.156 18.856 1.328 3.05 2.82 6.059 4.824 8.824 1.01 1.372 2.14 2.7 3.56 3.795a10.725 10.725 0 002.361 1.386 8.073 8.073 0 002.793.57l-.006-2.275a5.795 5.795 0 01-1.955-.383 8.558 8.558 0 01-1.853-1.068c-1.18-.888-2.219-2.064-3.157-3.317-1.877-2.527-3.362-5.416-4.681-8.364-2.617-5.927-4.554-12.188-6.255-18.494-3.341-12.647-5.616-25.587-7.421-38.573-3.036-22.37-4.603-44.945-4.933-67.54h.052c-.017-26.257 1.59-52.523 5.104-78.523"/><path d="M126.387 74.18c1.323-12.802 2.978-25.577 5.378-38.201 1.212-6.305 2.606-12.583 4.468-18.692.948-3.044 2-6.064 3.372-8.881.69-1.4 1.457-2.765 2.388-3.92.92-1.131 2.08-2.09 3.16-2.052V.159c-1.124 0-2.155.455-2.929 1.018-.783.569-1.415 1.231-1.964 1.918-1.087 1.385-1.885 2.87-2.607 4.369-1.422 3.006-2.459 6.109-3.393 9.227-1.829 6.248-3.162 12.589-4.312 18.95-2.274 12.73-3.792 25.556-4.975 38.401-1.993 22.114-2.955 44.304-3.025 66.492l-.097-.001c-.295 25.785.608 51.592 2.94 77.29 1.192 12.846 2.732 25.67 5.044 38.391 1.178 6.356 2.527 12.692 4.398 18.923.95 3.111 2.015 6.202 3.461 9.187.732 1.487 1.553 2.955 2.645 4.314.56.67 1.19 1.318 1.969 1.861.768.54 1.77.956 2.845.956l-.006-2.275c-1.024.043-2.172-.855-3.1-1.96-.93-1.133-1.714-2.475-2.414-3.863-1.392-2.793-2.47-5.798-3.431-8.832-1.903-6.09-3.314-12.36-4.552-18.658-2.437-12.612-4.115-25.385-5.446-38.185-2.244-22.039-3.43-44.193-3.712-66.361h.055c.031-25.762 1.247-51.526 3.84-77.141M281.75 95.972c-6.714-18.527-17.299-35.63-30.814-49.98-13.505-14.363-29.945-25.973-48.05-33.84C184.794 4.25 165.05.172 145.293.145l.015 2.274c19.451-.113 38.94 3.763 56.857 11.434 17.927 7.638 34.27 18.995 47.744 33.122 13.486 14.113 24.11 30.994 30.908 49.344 4.904 13.228 7.798 27.192 8.66 41.29l-.05.003c1.025 19.556-1.903 39.306-8.681 57.654-6.775 18.348-17.375 35.238-30.845 49.367-13.458 14.143-29.79 25.523-47.72 33.186-17.917 7.697-37.416 11.597-56.888 11.507v2.274c19.776-.052 39.53-4.157 57.621-12.084 18.104-7.894 34.534-19.526 48.02-33.906 13.498-14.366 24.059-31.478 30.747-50.003 4.825-13.357 7.612-27.418 8.358-41.58l.1.006c1.15-19.644-1.672-39.534-8.39-58.061"/><path d="M274.704 97.283c-6.065-18.153-15.652-35.163-28.23-49.646-12.543-14.493-28.037-26.49-45.396-34.735C183.74 4.628 164.547.202 145.293.154V2.43c18.921-.094 37.84 4.114 54.998 12.145 17.179 8.004 32.585 19.74 45.113 33.997 12.559 14.246 22.2 31.045 28.359 49.032 4.455 12.97 7.073 26.561 7.852 40.265l-.067.004c.944 19.003-1.676 38.178-7.823 56.168-6.128 17.988-15.74 34.8-28.288 49.055-12.517 14.269-27.922 26.015-45.107 34.032-17.163 8.044-36.093 12.268-55.037 12.2l.015 2.273c19.272-.074 38.477-4.518 55.819-12.806 17.363-8.26 32.855-20.267 45.387-34.771 12.565-14.492 22.121-31.516 28.154-49.669 4.364-13.09 6.863-26.772 7.514-40.532l.086.004c1.051-19.085-1.477-38.387-7.564-56.543"/><path d="M267.828 98.515c-5.5-17.789-14.22-34.62-25.817-49.245-11.558-14.639-26.133-26.975-42.729-35.615C182.71 4.996 164.055.22 145.292.165v2.274c18.398-.085 36.752 4.455 53.143 12.858 16.413 8.385 30.912 20.454 42.467 34.861 11.592 14.392 20.376 31.022 25.977 48.655 4.048 12.717 6.424 25.958 7.145 39.298l-.067.003c.845 18.498-1.514 37.14-7.087 54.782-5.56 17.636-14.32 34.277-25.906 48.675-11.546 14.411-26.05 26.485-42.477 34.867-16.403 8.404-34.773 12.948-53.194 12.889l.014 2.273c18.783-.082 37.451-4.864 54.034-13.523 16.61-8.637 31.188-20.98 42.739-35.624 11.588-14.632 20.283-31.474 25.74-49.266 3.947-12.831 6.193-26.159 6.774-39.55l.093.004c.937-18.575-1.344-37.332-6.859-55.126"/><path d="M260.916 99.736c-4.963-17.416-12.836-34.051-23.5-48.747-5.328-7.343-11.353-14.194-18.03-20.36-1.654-1.557-3.423-2.988-5.128-4.49-1.76-1.437-3.577-2.805-5.365-4.21-1.87-1.292-3.71-2.633-5.607-3.885l-2.895-1.807c-.967-.599-1.919-1.225-2.928-1.752-7.9-4.518-16.352-8.1-25.14-10.534a103.281 103.281 0 00-27.03-3.777V2.45a101.15 101.15 0 0126.49 3.49c8.632 2.32 16.959 5.769 24.767 10.153.998.51 1.94 1.119 2.895 1.701l2.865 1.756c1.878 1.219 3.7 2.526 5.555 3.785 1.771 1.371 3.574 2.706 5.321 4.11 1.696 1.468 3.453 2.867 5.097 4.392 6.64 6.036 12.654 12.763 17.988 19.993 10.671 14.467 18.622 30.914 23.69 48.184 3.658 12.458 5.807 25.354 6.47 38.335l-.064.003c.75 18-1.363 36.12-6.39 53.404-5.018 17.276-12.941 33.733-23.61 48.204-5.33 7.23-11.347 13.958-17.994 19.99-6.638 6.039-13.927 11.366-21.756 15.731-7.818 4.378-16.157 7.822-24.8 10.14a101.883 101.883 0 01-26.524 3.506l.014 2.274a104.13 104.13 0 0027.06-3.793c8.797-2.435 17.257-6.01 25.168-10.523 7.922-4.5 15.271-9.965 21.945-16.133 6.683-6.162 12.711-13.013 18.038-20.358 10.659-14.699 18.505-31.347 23.417-48.768 3.546-12.566 5.555-25.543 6.07-38.573l.098.006c.83-18.075-1.219-36.297-6.187-53.722"/><path d="M253.967 100.943c-4.45-17.037-11.514-33.448-21.247-48.182-9.718-14.705-22.176-27.776-37.12-37.338a98.843 98.843 0 00-24.058-11.166C163.06 1.643 154.19.245 145.293.185v2.274c8.67-.01 17.336 1.282 25.65 3.77a96.868 96.868 0 0123.67 10.757c14.764 9.277 27.183 22.077 36.924 36.563 9.758 14.513 16.907 30.747 21.469 47.65 3.287 12.194 5.226 24.75 5.83 37.378l-.062.004c.665 17.51-1.22 35.12-5.725 52.04-4.504 16.91-11.623 33.158-21.378 47.673-9.739 14.488-22.182 27.274-36.974 36.527-14.763 9.234-32.009 14.535-49.404 14.505l.013 2.274c8.908-.074 17.79-1.473 26.283-4.079a99.037 99.037 0 0024.096-11.14c14.973-9.538 27.457-22.596 37.173-37.304 9.73-14.736 16.761-31.162 21.153-48.207 3.168-12.297 4.952-24.927 5.402-37.6l.097.003c.746-17.58-1.095-35.282-5.543-52.33"/><path d="M246.981 102.133c-3.966-16.654-10.255-32.816-19.068-47.555-8.805-14.7-20.2-28.05-34.262-38.063-7.015-4.996-14.693-9.135-22.887-11.909-8.172-2.808-16.804-4.34-25.47-4.411v2.274c8.412 0 16.813 1.416 24.806 4.087 8.012 2.638 15.56 6.622 22.488 11.47 13.888 9.713 25.268 22.798 34.108 37.288 8.851 14.526 15.237 30.524 19.318 47.054a187.627 187.627 0 015.227 36.431l-.06.004c.585 17.033-1.088 34.143-5.101 50.695-4.01 16.543-10.375 32.548-19.217 47.08-8.834 14.494-20.248 27.56-34.173 37.24-6.946 4.83-14.512 8.8-22.542 11.424-8.01 2.66-16.424 4.071-24.855 4.084l.012 2.274c8.682-.085 17.325-1.612 25.512-4.408 8.21-2.761 15.905-6.886 22.939-11.863 14.098-9.981 25.53-23.316 34.327-38.022 8.803-14.745 15.074-30.915 18.966-47.581 2.81-12.023 4.384-24.315 4.774-36.638l.092.002a188.939 188.939 0 00-4.934-50.957"/><path d="M239.958 103.302c-3.496-16.277-9.138-32.132-17.03-46.834-3.955-7.343-8.5-14.384-13.686-20.937-5.175-6.56-11.048-12.598-17.608-17.817-6.558-5.205-13.802-9.634-21.646-12.706C162.137 1.978 153.74.29 145.293.204V2.48c8.159.014 16.296 1.574 23.953 4.451 7.65 2.921 14.765 7.184 21.241 12.233 6.48 5.064 12.317 10.958 17.48 17.39 5.176 6.424 9.73 13.353 13.712 20.594 7.946 14.502 13.691 30.207 17.307 46.37a201.371 201.371 0 014.66 35.497l-.06.002c.512 16.567-.963 33.192-4.512 49.372-3.588 16.16-9.254 31.89-17.202 46.392-3.98 7.244-8.54 14.168-13.73 20.586-5.176 6.422-11.019 12.314-17.528 17.351-6.499 5.032-13.64 9.268-21.31 12.173-7.679 2.859-15.832 4.41-24.01 4.436l.012 2.274c8.463-.097 16.873-1.778 24.742-4.788 7.862-3.057 15.132-7.459 21.713-12.646 6.59-5.193 12.47-11.231 17.66-17.781 5.201-6.546 9.75-13.586 13.702-20.93 7.896-14.705 13.456-30.585 16.924-46.86 2.471-11.747 3.849-23.706 4.183-35.688l.088.002a202.053 202.053 0 00-4.36-49.607"/><path d="M232.898 104.446c-3.137-15.875-8.055-31.442-15.087-46.061-3.521-7.302-7.582-14.359-12.266-20.997-4.684-6.633-9.996-12.854-16.022-18.348-6.05-5.456-12.87-10.126-20.337-13.515-7.466-3.381-15.663-5.188-23.893-5.31v2.274c7.898.053 15.798 1.708 23.06 4.921 7.263 3.22 13.96 7.709 19.936 13.006 11.915 10.705 21.136 24.209 28.244 38.591 7.1 14.432 12.129 29.864 15.39 45.635a218.018 218.018 0 014.118 34.578l-.052.002c.435 16.108-.824 32.271-3.983 48.068-3.186 15.778-8.157 31.228-15.25 45.663-7.095 14.388-16.35 27.88-28.317 38.542-5.995 5.287-12.73 9.738-20.016 12.936-7.288 3.19-15.21 4.83-23.13 4.895l.013 2.274c8.246-.136 16.46-1.923 23.95-5.284 7.49-3.366 14.347-7.997 20.415-13.444 6.053-5.474 11.39-11.682 16.087-18.308 4.698-6.632 8.764-13.688 12.279-20.993 7.024-14.625 11.884-30.212 14.946-46.094 2.187-11.463 3.364-23.099 3.642-34.75l.096.003c.537-16.163-.767-32.387-3.823-48.284"/><path d="M212.56 60.314c-3.101-7.245-6.689-14.295-10.869-20.997-4.18-6.697-8.955-13.052-14.46-18.758-2.72-2.885-5.725-5.49-8.818-7.985-3.202-2.349-6.47-4.654-10.058-6.418C161.31 2.393 153.327.358 145.293.224V2.5c7.645.065 15.29 1.919 22.124 5.492 3.479 1.668 6.67 3.878 9.808 6.133 3.032 2.405 5.994 4.92 8.684 7.726 5.447 5.543 10.21 11.76 14.4 18.337 4.188 6.584 7.807 13.535 10.947 20.694 6.273 14.33 10.667 29.465 13.545 44.86 1.442 7.702 2.416 15.489 3.052 23.299.27 3.454.465 6.913.595 10.376l-.055.002c.192 7.835.004 15.677-.567 23.49-.562 7.814-1.53 15.6-2.933 23.303-2.79 15.405-7.125 30.558-13.382 44.896-3.133 7.162-6.754 14.113-10.956 20.69-4.203 6.57-8.99 12.776-14.466 18.296-2.703 2.799-5.683 5.297-8.731 7.689-3.152 2.245-6.363 4.436-9.856 6.092-6.869 3.543-14.536 5.377-22.209 5.452l.012 2.274c8.054-.145 16.056-2.159 23.132-5.889 3.6-1.752 6.892-4.036 10.106-6.376 3.11-2.481 6.136-5.071 8.867-7.95 5.536-5.685 10.336-12.029 14.53-18.72 4.194-6.696 7.785-13.748 10.878-20.998 6.176-14.513 10.394-29.79 13.055-45.288a217.454 217.454 0 002.734-23.42c.221-3.466.354-6.936.426-10.408l.09.002c.87-31.394-4.264-63.171-16.563-92.239"/><path d="M221.105 129.454c-.481-7.63-1.276-15.248-2.478-22.805-2.392-15.105-6.046-30.057-11.478-44.397-2.713-7.166-5.85-14.182-9.522-20.926-3.68-6.732-7.862-13.23-12.835-19.125-1.273-1.447-2.482-2.952-3.862-4.305l-2.015-2.08-2.139-1.958c-1.387-1.349-2.966-2.484-4.462-3.714-.764-.594-1.587-1.113-2.38-1.673-.799-.55-1.587-1.12-2.445-1.581l-2.524-1.465c-.861-.45-1.756-.843-2.632-1.268l-1.322-.625-1.375-.507c-.92-.324-1.824-.702-2.76-.983C153.126.905 149.22.337 145.294.234V2.51c3.697.067 7.386.564 10.954 1.608.891.258 1.754.612 2.632.912l1.315.468 1.267.587c.843.399 1.701.764 2.531 1.188l2.437 1.385c.828.434 1.593.979 2.37 1.502.769.534 1.568 1.025 2.314 1.594 1.46 1.18 3 2.262 4.363 3.565l2.1 1.885 1.986 2.013c1.359 1.308 2.557 2.773 3.818 4.178 4.93 5.732 9.115 12.101 12.815 18.721 3.692 6.633 6.867 13.558 9.625 20.646 5.525 14.182 9.3 29.025 11.823 44.046 1.27 7.514 2.13 15.097 2.68 22.7.236 3.36.41 6.727.53 10.095l-.06.002c.314 15.239-.602 30.516-3.048 45.557-2.41 15.037-6.165 29.885-11.665 44.074-2.746 7.091-5.92 14.018-9.621 20.646-3.715 6.613-7.909 12.98-12.866 18.696-1.28 1.39-2.472 2.864-3.844 4.16l-2.002 2c-.694.639-1.409 1.252-2.112 1.878-1.376 1.293-2.916 2.376-4.392 3.541-.745.574-1.553 1.053-2.327 1.584-.784.516-1.55 1.062-2.383 1.49l-2.452 1.371c-.833.425-1.697.783-2.544 1.179l-1.275.58-1.32.465c-.884.297-1.751.646-2.646.903-3.585 1.032-7.289 1.527-11.003 1.598l.01 2.273c3.94-.105 7.855-.674 11.62-1.797.938-.28 1.846-.65 2.772-.973l1.378-.503 1.33-.618c.881-.42 1.782-.805 2.645-1.257l2.54-1.449c.862-.456 1.65-1.03 2.458-1.57.796-.558 1.629-1.064 2.393-1.663 1.513-1.214 3.09-2.353 4.492-3.69.716-.651 1.446-1.289 2.15-1.951l2.033-2.067c1.393-1.344 2.596-2.858 3.888-4.29 5.002-5.88 9.194-12.377 12.89-19.103 3.682-6.741 6.817-13.76 9.517-20.93 5.408-14.35 9.041-29.307 11.32-44.427 1.667-10.904 2.526-21.916 2.71-32.935l.085.003c.25-7.642.043-15.293-.42-22.925"/><path d="M213.572 129.905c-.178-3.716-.51-7.421-.824-11.128l-.597-5.549c-.19-1.851-.475-3.69-.708-5.536a272.53 272.53 0 00-3.932-21.976 233.019 233.019 0 00-5.938-21.536c-2.335-7.077-5.039-14.04-8.227-20.793-3.192-6.745-6.864-13.29-11.217-19.393-4.323-6.113-9.483-11.713-15.578-16.217-.754-.571-1.579-1.048-2.367-1.577l-1.194-.773c-.41-.239-.837-.45-1.255-.676-.848-.433-1.668-.92-2.54-1.306l-2.647-1.09c-3.597-1.291-7.403-2.039-11.254-2.11v2.274c3.573.036 7.12.695 10.513 1.873l2.505 1.003c.826.356 1.61.815 2.416 1.215.4.211.807.406 1.2.63l1.147.729c.757.499 1.55.943 2.278 1.485 5.888 4.266 10.982 9.664 15.28 15.624 4.329 5.948 8.017 12.37 11.239 19.016 3.218 6.649 5.968 13.532 8.354 20.538a231.63 231.63 0 016.107 21.355 271.331 271.331 0 014.126 21.845c.249 1.837.55 3.667.756 5.509l.65 5.524c.347 3.692.714 7.383.927 11.087.205 3.272.359 6.548.465 9.826l-.062.001c.277 14.83-.532 29.686-2.629 44.365-2.047 14.68-5.337 29.197-10.062 43.228-2.37 7.011-5.114 13.896-8.34 20.544-3.227 6.643-6.935 13.057-11.296 18.989-4.329 5.942-9.45 11.326-15.391 15.549-.73.545-1.53.978-2.292 1.473l-1.156.722c-.393.226-.806.414-1.207.625-.813.397-1.603.847-2.434 1.202l-2.521.991c-3.412 1.166-6.98 1.818-10.573 1.859l.01 2.273c3.866-.076 7.685-.817 11.3-2.094l2.662-1.076c.874-.386 1.702-.864 2.554-1.292.42-.225.853-.429 1.262-.672l1.204-.765c.793-.525 1.628-.99 2.381-1.565 6.15-4.459 11.34-10.047 15.695-16.145 4.387-6.088 8.08-12.626 11.279-19.371 3.194-6.752 5.894-13.72 8.213-20.802 4.622-14.174 7.784-28.788 9.698-43.543 1.416-10.635 2.147-21.349 2.294-32.068l.08.002c.222-7.434.04-14.877-.354-22.303"/><path d="M204.246 108.678c-1.725-14.38-4.413-28.666-8.374-42.623-1.984-6.976-4.282-13.869-7.003-20.605-2.727-6.732-5.87-13.315-9.643-19.557-1.884-3.12-3.94-6.147-6.213-9.017-2.26-2.88-4.764-5.585-7.53-8.027a47.78 47.78 0 00-4.393-3.383 36.55 36.55 0 00-4.872-2.724C152.82 1.184 149.075.288 145.293.254v2.274c3.435 0 6.863.774 10.038 2.191a34.383 34.383 0 014.591 2.51 45.592 45.592 0 014.213 3.178c2.672 2.314 5.123 4.905 7.351 7.688 2.24 2.774 4.284 5.715 6.164 8.764 3.769 6.096 6.941 12.57 9.706 19.21 2.761 6.647 5.11 13.467 7.15 20.381 4.074 13.833 6.892 28.035 8.753 42.35a309.77 309.77 0 012.408 31.133l-.072.003c.135 7.22-.016 14.443-.358 21.653-.359 7.212-1.019 14.406-1.883 21.57a272.93 272.93 0 01-3.438 21.368c-1.423 7.071-3.113 14.089-5.126 21.01-2.01 6.922-4.36 13.744-7.125 20.39-2.763 6.642-5.945 13.116-9.756 19.19-.968 1.507-1.91 3.032-2.977 4.468-.524.724-1.024 1.467-1.568 2.175l-1.668 2.095c-.28.347-.55.704-.84 1.042l-.893.993c-.599.658-1.184 1.332-1.793 1.98-1.287 1.22-2.503 2.528-3.9 3.617-1.32 1.188-2.792 2.16-4.23 3.18-1.519.878-3.015 1.811-4.643 2.453-3.2 1.386-6.636 2.188-10.104 2.206l.012 2.274c3.805-.053 7.548-.974 10.968-2.497 1.744-.713 3.323-1.715 4.924-2.668 1.508-1.085 3.048-2.132 4.412-3.38 1.45-1.159 2.694-2.52 4.016-3.803.625-.676 1.22-1.374 1.831-2.06l.91-1.034c.295-.35.568-.719.852-1.078l1.691-2.167c.55-.732 1.053-1.495 1.582-2.24 1.077-1.48 2.022-3.043 2.993-4.588 3.818-6.223 6.971-12.808 9.694-19.542 2.726-6.737 5.025-13.634 6.98-20.618 1.958-6.984 3.586-14.054 4.944-21.17a273.936 273.936 0 003.24-21.482c.797-7.197 1.387-14.417 1.676-21.65.12-3.195.196-6.392.233-9.59l.075.002c.335-14.472-.378-28.972-2.08-43.357"/><path d="M197.003 109.625c-1.427-14.036-3.69-28-6.985-41.738-1.658-6.866-3.586-13.672-5.865-20.368-2.285-6.692-4.921-13.281-8.11-19.623-3.207-6.32-6.948-12.455-11.814-17.756-2.454-2.618-5.193-5.041-8.38-6.857-3.157-1.824-6.808-3.01-10.556-3.019V2.54c3.297-.025 6.562.98 9.49 2.63 2.948 1.638 5.568 3.896 7.942 6.38 4.719 5.034 8.457 11 11.672 17.188 3.203 6.21 5.88 12.705 8.212 19.317 2.327 6.617 4.312 13.361 6.028 20.173 3.416 13.631 5.812 27.523 7.377 41.503a352.682 352.682 0 012.055 30.361l-.074.002a347.508 347.508 0 01-1.881 42.14c-1.487 13.986-3.806 27.89-7.196 41.527-3.422 13.608-7.809 27.058-14.237 39.492-1.612 3.1-3.365 6.124-5.313 9.008-1.936 2.891-4.081 5.633-6.462 8.132-2.4 2.469-5.049 4.71-8.027 6.329-2.96 1.633-6.254 2.624-9.586 2.605l.012 2.273c3.767-.015 7.442-1.18 10.63-2.986 3.215-1.795 5.986-4.2 8.467-6.804 2.458-2.632 4.64-5.487 6.594-8.47 1.97-2.978 3.723-6.08 5.33-9.246 3.215-6.335 5.86-12.924 8.144-19.62 2.28-6.697 4.189-13.51 5.83-20.38 3.27-13.745 5.454-27.722 6.804-41.763a348.565 348.565 0 001.562-30.452l.07.002a352.277 352.277 0 00-1.733-42.255"/><path d="M189.732 110.504c-1.165-13.708-3.007-27.367-5.711-40.872-2.729-13.49-6.237-26.881-11.458-39.695-2.652-6.378-5.723-12.645-9.846-18.308-2.088-2.802-4.427-5.484-7.308-7.625-2.842-2.136-6.364-3.717-10.115-3.73V2.55c3.136-.022 6.202 1.272 8.83 3.2 2.65 1.924 4.909 4.44 6.94 7.11 4.025 5.405 7.117 11.53 9.794 17.79 5.285 12.591 8.918 25.874 11.77 39.27 2.83 13.415 4.81 27.014 6.113 40.674a407.949 407.949 0 011.73 29.635l-.077.001a400.655 400.655 0 01-1.56 41.125c-1.231 13.664-3.145 27.272-5.933 40.695-2.822 13.4-6.427 26.693-11.748 39.275-1.336 3.14-2.794 6.223-4.424 9.206-1.619 2.989-3.422 5.87-5.457 8.556-2.054 2.659-4.342 5.16-7.028 7.066-2.662 1.913-5.767 3.19-8.95 3.174l.01 2.274c3.778-.022 7.334-1.574 10.211-3.693 2.919-2.123 5.291-4.79 7.406-7.583 2.088-2.819 3.908-5.8 5.532-8.872 1.634-3.067 3.083-6.218 4.406-9.416 5.258-12.81 8.737-26.213 11.436-39.708 2.661-13.514 4.438-27.183 5.53-40.893a402.247 402.247 0 001.24-29.71h.07a407.275 407.275 0 00-1.403-41.22"/><path d="M182.438 111.311c-.928-13.402-2.387-26.774-4.537-40.047-2.181-13.261-4.95-26.466-9.122-39.303-2.117-6.4-4.558-12.734-7.898-18.683-1.701-2.95-3.6-5.836-6.072-8.321-1.236-1.235-2.617-2.373-4.21-3.242-1.594-.856-3.426-1.408-5.305-1.43v2.274c1.456.007 2.907.412 4.259 1.116 1.349.715 2.591 1.706 3.729 2.82 2.284 2.242 4.143 4.981 5.812 7.81 3.293 5.718 5.774 11.938 7.933 18.242 4.262 12.65 7.161 25.767 9.472 38.952 2.28 13.2 3.88 26.523 4.946 39.885a487.123 487.123 0 011.427 28.965l-.078.002a476.49 476.49 0 01-1.27 40.188c-.99 13.367-2.536 26.694-4.775 39.9-2.26 13.194-5.156 26.313-9.426 38.966-2.163 6.302-4.664 12.52-8 18.224-1.684 2.827-3.574 5.553-5.893 7.782-1.154 1.11-2.418 2.091-3.79 2.803-1.375.699-2.857 1.101-4.346 1.112l.01 2.274c1.9-.028 3.75-.57 5.368-1.418 1.614-.863 3.019-1.99 4.273-3.22 2.51-2.473 4.444-5.351 6.162-8.3 3.386-5.938 5.846-12.273 7.97-18.675 4.181-12.84 6.946-26.05 9.076-39.32 2.106-13.28 3.514-26.658 4.363-40.063.61-9.665.924-19.346.947-29.026h.069a484.638 484.638 0 00-1.094-40.267"/><path d="M171.666 72.752c-1.659-13.044-3.784-26.052-6.963-38.854-1.615-6.39-3.476-12.743-6.039-18.881-1.309-3.055-2.763-6.078-4.73-8.864-.992-1.382-2.095-2.727-3.5-3.841a10.634 10.634 0 00-2.341-1.423 7.852 7.852 0 00-2.799-.594v2.273c.65.01 1.299.15 1.937.397.632.272 1.25.64 1.83 1.092 1.17.9 2.188 2.097 3.113 3.36 1.846 2.551 3.294 5.457 4.595 8.411 2.562 5.951 4.477 12.215 6.144 18.53 3.29 12.656 5.55 25.595 7.343 38.579 3.024 22.366 4.628 44.931 5.008 67.517h-.07c.176 26.243-1.283 52.512-4.716 78.515-1.756 12.988-3.983 25.933-7.279 38.592-1.677 6.313-3.592 12.582-6.188 18.525-1.312 2.955-2.786 5.853-4.66 8.398-.94 1.26-1.98 2.449-3.172 3.35a8.712 8.712 0 01-1.88 1.092 5.99 5.99 0 01-2.005.4l.012 2.274a8.195 8.195 0 002.842-.594c.878-.37 1.67-.86 2.386-1.412 1.43-1.113 2.559-2.452 3.568-3.834 2-2.783 3.483-5.802 4.801-8.859 2.601-6.136 4.462-12.493 6.087-18.884 3.185-12.806 5.277-25.822 6.899-38.87 2.718-22.473 3.96-45.094 3.96-67.704h.08c.301-26.275-1.022-52.587-4.263-78.691"/><path d="M165.33 74.057c-1.184-12.843-2.7-25.667-4.974-38.39-1.15-6.357-2.481-12.695-4.308-18.934-.933-3.114-1.967-6.212-3.385-9.207-.718-1.493-1.513-2.97-2.589-4.34-.544-.68-1.167-1.333-1.935-1.89-.757-.553-1.758-.992-2.845-.992V2.58c1-.044 2.14.877 3.048 1.997.92 1.14 1.684 2.5 2.37 3.892 1.368 2.806 2.417 5.821 3.364 8.86 1.859 6.102 3.252 12.376 4.464 18.677 2.399 12.617 4.053 25.39 5.376 38.19 2.232 22.036 3.436 44.184 3.75 66.345l-.073.001c.108 25.752-.983 51.516-3.495 77.133-1.283 12.802-2.913 25.58-5.303 38.2-1.214 6.302-2.602 12.58-4.482 18.68-.952 3.04-2.019 6.053-3.406 8.858-.696 1.395-1.478 2.747-2.416 3.894-.933 1.118-2.097 2.054-3.197 2.02l.013 2.273c1.109-.007 2.138-.44 2.917-.993.792-.558 1.425-1.216 1.988-1.895 1.095-1.377 1.915-2.853 2.642-4.348 1.44-2.998 2.492-6.096 3.432-9.213 1.848-6.242 3.172-12.583 4.327-18.944 2.264-12.728 3.756-25.555 4.9-38.402 1.923-22.115 2.782-44.303 2.736-66.482h.075c.253-25.776-.679-51.573-2.993-77.265"/><path d="M289.46 1.582l.004-1.136-144.016.378-.002.555c1.199.001 2.395.016 3.588.046l109.261 1.008-72.743 4.643c.926.268 1.85.54 2.77.826l73.276-3.754-61.153 8.15c.672.277 1.34.56 2.007.847L264.637 5.7l-53.713 11.424c.542.276 1.077.564 1.615.847l54.87-10.863-48.124 14.652c.464.277.927.554 1.389.836l49.234-14.194-43.489 17.904c.404.275.804.557 1.205.836l44.514-17.52-39.412 21.23c.363.277.726.554 1.086.833l40.3-20.872-35.645 24.647c.331.28.665.557.995.841l36.391-24.275L243.8 40.194c.309.288.622.573.928.864l32.668-27.739-28.557 31.808c.293.301.591.599.88.902l29.064-31.283-25.11 35.597c.282.321.571.637.852.96l25.546-34.949-21.694 39.599c.278.35.558.698.832 1.05l22.106-38.818-18.292 43.922c.278.39.549.787.822 1.18l18.725-43.023-14.895 48.801c.278.442.556.883.83 1.328l15.384-47.79-11.454 54.592c.281.52.554 1.047.829 1.572l12.048-53.559-7.898 62.13c.28.631.56 1.264.832 1.901l8.626-61.156-4.025 73.5c.278.86.547 1.724.807 2.59l4.94-72.945.974 106.866c.063 1.2.112 2.403.146 3.61h.456l.428-140.125-1.137.003z"/></g></svg>