<svg width="291" height="292" xmlns="http://www.w3.org/2000/svg"><g fill="#707376" fill-rule="evenodd"><path d="M1.028 136.896l.96-104.203 4.618 72.352c.27-.918.545-1.834.833-2.744L3.704 29.398l8.118 60.919c.278-.668.563-1.33.852-1.992l-7.42-61.97L16.647 79.92c.279-.541.566-1.076.85-1.613L6.663 23.583 21.282 71.6c.278-.462.557-.922.84-1.38L7.959 21.088l17.873 43.415c.277-.405.557-.806.837-1.208l-17.49-44.44 21.202 39.36c.277-.362.553-.727.833-1.087L10.368 16.88l24.622 35.61c.281-.332.558-.667.843-.996L11.581 15.139l28.15 32.032c.288-.309.572-.622.863-.929l-27.72-32.644L44.67 42.143c.302-.293.599-.59.903-.88L14.301 12.21l35.593 25.107c.322-.283.64-.57.965-.85L15.91 10.924 55.515 32.62c.351-.278.703-.554 1.057-.83L17.74 9.68l43.944 18.3c.391-.277.79-.545 1.183-.82L19.817 8.423l48.85 14.908c.441-.276.881-.556 1.327-.828L22.156 7.104l54.678 11.472c.52-.28 1.045-.554 1.57-.828L24.766 5.682l62.266 7.914c.632-.278 1.26-.56 1.898-.83L27.639 4.123l73.762 4.038c.87-.276 1.741-.542 2.617-.802L30.774 2.4 141.26 1.392l-.002-.568L1.134.395l.004 1.13v.007L0 1.528.38 145.545h.366a146 146 0 01.283-8.649M290.597 289.855l-.428-140.125h-.442a146.332 146.332 0 01-.164 4.026l-.97 106.45-4.92-72.655c-.262.871-.532 1.74-.81 2.604l4.008 73.196-8.588-60.887c-.273.64-.554 1.274-.835 1.908l7.863 61.854-11.992-53.309c-.276.527-.55 1.054-.832 1.576l11.4 54.338-15.308-47.555c-.274.447-.553.888-.831 1.332l14.822 48.563-18.63-42.806c-.276.396-.544.796-.824 1.188l18.198 43.697-21.989-38.615c-.275.355-.554.707-.833 1.058l21.578 39.387-25.407-34.758c-.28.325-.568.644-.852.967l24.973 35.4-28.895-31.103c-.292.306-.59.603-.884.907l28.39 31.622-32.468-27.569c-.307.293-.621.578-.932.867l31.858 27.995-36.157-24.118c-.329.284-.666.562-.997.844l35.414 24.488-40.025-20.73c-.36.282-.725.558-1.09.836l39.139 21.084-44.185-17.39c-.403.28-.805.561-1.21.839l43.164 17.771-48.842-14.081c-.46.284-.92.567-1.383.846l47.727 14.53-54.379-10.767c-.539.287-1.077.574-1.618.854l53.226 11.32-61.545-7.368c-.663.29-1.324.579-1.99.858l60.49 8.062-72.323-3.706c-.907.29-1.818.57-2.732.84l71.758 4.582-101.273.933c-3.82.307-7.678.471-11.574.475v.2l144.016.379-.004-1.137 1.137.003zM133.948 289.975l-103.172-.94 72.267-4.893a139.4 139.4 0 01-2.58-.817l-72.82 3.986 60.672-8.557c-.64-.274-1.278-.553-1.912-.837l-61.636 7.835 53.164-11.96c-.526-.277-1.057-.55-1.579-.833l-54.194 11.37 47.46-15.277c-.446-.274-.891-.553-1.334-.833l-48.47 14.793 42.738-18.6c-.393-.275-.79-.548-1.18-.827l-43.632 18.17 38.564-21.96c-.353-.275-.702-.557-1.052-.837L15.91 280.51l34.725-25.38c-.325-.283-.643-.573-.964-.857l-35.372 24.951 31.086-28.879c-.305-.292-.603-.59-.906-.884l-31.606 28.375 27.564-32.46c-.293-.307-.578-.62-.868-.93L11.58 276.293l24.12-36.156c-.286-.33-.564-.666-.846-.999L10.37 274.553l20.735-40.035c-.282-.362-.558-.726-.836-1.09l-21.09 39.15 17.402-44.212c-.281-.403-.564-.806-.84-1.211l-17.781 43.19 14.094-48.888c-.284-.461-.564-.925-.843-1.39L6.662 267.851l10.785-54.465c-.285-.54-.576-1.076-.854-1.619L5.254 265.079l7.387-61.69c-.29-.666-.576-1.333-.855-2.003l-8.083 60.65 3.72-72.596c-.289-.914-.565-1.835-.836-2.757l-4.6 72.058-.956-103.787c-.185-2.996-.29-6.015-.29-9.059v-.006H.379L0 289.905l1.136-.004h.002v.007l-.003 1.131 140.123-.429v-.254c-2.453-.067-4.89-.194-7.31-.381"/><path d="M40.651 244.535c-13.456-14.116-24.045-30.989-30.814-49.319-4.881-13.216-7.754-27.16-8.598-41.235l.07-.004C.263 134.46 3.16 114.74 9.905 96.413 16.646 78.083 27.21 61.2 40.65 47.068c13.427-14.146 29.732-25.539 47.642-33.22 17.9-7.715 37.39-11.64 56.862-11.574L145.14 0c-19.774.076-39.517 4.21-57.589 12.156-18.084 7.914-34.486 19.56-47.94 33.942-13.466 14.37-23.99 31.474-30.642 49.979-4.8 13.342-7.563 27.381-8.29 41.516l-.081-.005c-1.17 19.604 1.62 39.463 8.305 57.97 6.681 18.506 17.232 35.6 30.716 49.953 13.473 14.365 29.887 25.986 47.972 33.872 18.074 7.919 37.808 12.02 57.564 12.073v-2.274c-19.453.09-38.933-3.807-56.832-11.496-17.91-7.655-34.225-19.023-47.67-33.151"/><path d="M44.934 48.476c12.54-14.273 27.963-26.02 45.16-34.032 17.177-8.042 36.117-12.253 55.06-12.16V.01C125.88.058 106.664 4.488 89.308 12.77 71.93 21.026 56.42 33.035 43.862 47.542 31.273 62.038 21.677 79.066 15.605 97.237 11.212 110.34 8.68 124.039 8 137.824l-.103-.004c-1.043 19.121 1.498 38.456 7.609 56.633 6.092 18.173 15.709 35.197 28.324 49.672 12.582 14.486 28.115 26.459 45.501 34.674 17.362 8.243 36.57 12.633 55.824 12.656l-.015-2.274c-18.922.116-37.85-4.057-55.034-12.06-17.203-7.973-32.647-19.686-45.21-33.937-12.598-14.238-22.265-31.05-28.45-49.056-4.471-12.984-7.1-26.595-7.888-40.322l.044-.001c-.907-19.042 1.76-38.242 7.946-56.248 6.164-18.006 15.814-34.82 28.386-49.08"/><path d="M49.432 50.067C61 35.647 75.512 23.563 91.946 15.17c16.41-8.414 34.788-12.96 53.208-12.875V.02c-18.786.055-37.464 4.838-54.056 13.507-16.616 8.65-31.205 21-42.775 35.653C36.715 63.819 27.987 80.667 22.48 98.472c-3.98 12.84-6.267 26.184-6.888 39.598l-.104-.005c-.945 18.608 1.333 37.397 6.863 55.214 5.517 17.812 14.27 34.655 25.909 49.271 11.601 14.63 26.222 26.938 42.856 35.532 16.607 8.615 35.276 13.342 54.038 13.374l-.013-2.275c-18.397.107-36.767-4.386-53.191-12.748-16.448-8.339-30.991-20.381-42.586-34.779-11.634-14.382-20.45-31.022-26.065-48.678-4.057-12.731-6.435-25.992-7.152-39.353l.036-.002c-.792-18.534 1.628-37.197 7.247-54.851 5.606-17.65 14.398-34.295 26.002-48.703"/><path d="M54.06 51.743c5.34-7.236 11.358-13.971 18.006-20.013 1.646-1.528 3.406-2.928 5.103-4.398 1.748-1.405 3.553-2.742 5.328-4.116 1.856-1.26 3.68-2.567 5.561-3.789l2.868-1.758c.959-.583 1.9-1.192 2.9-1.703 7.817-4.39 16.156-7.844 24.8-10.167a101.299 101.299 0 0126.528-3.495V.03a103.43 103.43 0 00-27.069 3.78c-8.8 2.44-17.263 6.026-25.172 10.55-1.011.527-1.964 1.154-2.933 1.753l-2.898 1.81c-1.9 1.254-3.742 2.595-5.614 3.889-1.79 1.407-3.609 2.777-5.37 4.215-1.709 1.503-3.479 2.936-5.134 4.496-6.685 6.172-12.716 13.03-18.05 20.381C42.24 65.614 34.357 82.265 29.39 99.695c-3.585 12.575-5.643 25.565-6.205 38.614l-.107-.005c-.851 18.104 1.181 36.358 6.156 53.806 4.968 17.44 12.872 34.09 23.582 48.776 5.351 7.337 11.404 14.178 18.107 20.326 6.696 6.153 14.063 11.6 21.997 16.077 7.922 4.491 16.391 8.042 25.189 10.451a104.035 104.035 0 0027.044 3.715l-.013-2.274a101.864 101.864 0 01-26.503-3.433c-8.643-2.295-16.987-5.715-24.817-10.073-7.84-4.343-15.145-9.655-21.802-15.679-6.668-6.018-12.705-12.735-18.061-19.958-10.718-14.456-18.696-30.916-23.768-48.209-3.663-12.473-5.804-25.39-6.454-38.39h.031c-.686-18.035 1.501-36.172 6.58-53.466 5.073-17.286 13.03-33.747 23.713-48.23"/><path d="M58.788 53.469c9.752-14.5 22.184-27.315 36.968-36.605A97.023 97.023 0 01119.461 6.09c8.329-2.492 17.009-3.786 25.693-3.776V.04c-8.91.06-17.796 1.46-26.291 4.078A98.977 98.977 0 0094.77 15.3c-14.965 9.574-27.436 22.66-37.165 37.38-9.742 14.748-16.81 31.174-21.265 48.225-3.21 12.302-5.056 24.944-5.561 37.635l-.108-.004c-.764 17.607 1.037 35.34 5.486 52.412 4.447 17.061 11.535 33.49 21.317 48.215C67.24 253.86 79.77 266.89 94.77 276.388a99.06 99.06 0 0024.12 11.067c8.495 2.58 17.37 3.952 26.264 4l-.013-2.274c-17.365.076-34.613-5.17-49.4-14.365-14.815-9.214-27.303-21.972-37.09-36.449-9.803-14.501-16.977-30.751-21.534-47.677-3.287-12.21-5.205-24.786-5.79-37.432l.033-.002c-.602-17.544 1.379-35.167 5.942-52.095 4.565-16.916 11.72-33.165 21.486-47.692"/><path d="M63.627 55.239c8.85-14.504 20.241-27.604 34.15-37.332 6.936-4.854 14.496-8.845 22.524-11.488 8.007-2.676 16.424-4.094 24.854-4.095V.05c-8.684.071-17.332 1.606-25.519 4.419-8.208 2.78-15.9 6.925-22.923 11.926-14.082 10.028-25.49 23.395-34.302 38.109-8.822 14.752-15.117 30.927-19.086 47.595a188.732 188.732 0 00-4.95 36.667l-.11-.003c-.683 17.12.903 34.344 4.853 51.036 3.947 16.682 10.272 32.855 19.126 47.59 8.848 14.695 20.328 28.005 34.455 37.945 7.049 4.959 14.754 9.058 22.965 11.793 8.189 2.77 16.824 4.269 25.49 4.329l-.012-2.275c-8.415.01-16.822-1.376-24.831-4.01-8.03-2.6-15.603-6.548-22.563-11.358-13.95-9.642-25.41-22.683-34.293-37.167-8.89-14.52-15.309-30.528-19.37-47.085-2.933-11.945-4.64-24.185-5.166-36.484l.036-.002a188.298 188.298 0 015.337-50.741C48.376 85.79 54.767 69.78 63.627 55.239"/><path d="M68.64 57.078c3.986-7.249 8.545-14.184 13.728-20.616 5.169-6.44 11.013-12.341 17.501-17.412 6.486-5.058 13.614-9.328 21.28-12.254 7.673-2.884 15.827-4.448 24.005-4.462V.06c-8.466.084-16.88 1.778-24.747 4.813-7.86 3.079-15.116 7.515-21.684 12.727-6.57 5.227-12.45 11.273-17.63 17.84C75.898 42 71.35 49.05 67.39 56.398c-7.899 14.716-13.545 30.584-17.043 46.873a202.306 202.306 0 00-4.378 35.712l-.11-.003c-.61 16.646.776 33.374 4.258 49.682 3.52 16.289 9.137 32.172 17.083 46.868 3.978 7.34 8.55 14.372 13.773 20.907 5.212 6.54 11.113 12.562 17.72 17.736 6.597 5.167 13.878 9.546 21.74 12.575 7.873 2.984 16.274 4.636 24.72 4.708l-.012-2.275c-8.16-.002-16.304-1.527-23.984-4.363-7.669-2.881-14.82-7.093-21.333-12.106-6.522-5.019-12.385-10.896-17.583-17.308-5.21-6.406-9.794-13.323-13.798-20.562-7.996-14.492-13.714-30.224-17.355-46.397-2.596-11.675-4.108-23.588-4.578-35.548l.042-.002a201.398 201.398 0 014.766-49.41c3.62-16.174 9.37-31.892 17.32-46.407"/><path d="M73.784 58.944C80.899 44.55 90.128 31.03 102.06 20.308c5.987-5.305 12.695-9.803 19.973-13.03 7.28-3.22 15.2-4.881 23.12-4.934V.07c-8.251.122-16.47 1.934-23.951 5.324-7.485 3.395-14.317 8.074-20.375 13.539-6.035 5.502-11.355 11.73-16.044 18.371-4.69 6.645-8.753 13.71-12.278 21.018-7.038 14.631-11.96 30.21-15.098 46.096a218.893 218.893 0 00-3.833 34.774l-.12-.004c-.53 16.181.64 32.437 3.726 48.35 3.115 15.895 8.026 31.485 15.102 46.103 3.542 7.301 7.63 14.351 12.352 20.971 4.721 6.617 10.077 12.81 16.148 18.266 6.084 5.428 12.955 10.036 20.447 13.376 7.493 3.333 15.698 5.092 23.924 5.202l-.011-2.275c-7.9-.042-15.81-1.653-23.1-4.821-7.287-3.174-14.031-7.601-20.042-12.872-11.999-10.625-21.3-24.098-28.445-38.478-7.14-14.427-12.163-29.879-15.4-45.67-2.314-11.397-3.626-22.99-4.041-34.621l.035-.002c-.394-16.135 1.05-32.3 4.232-48.104 3.264-15.782 8.296-31.224 15.402-45.669M281.75 95.972c-6.714-18.527-17.299-35.63-30.814-49.98-13.505-14.363-29.945-25.973-48.05-33.84C184.794 4.25 165.05.172 145.293.145l.015 2.274c19.451-.113 38.94 3.763 56.857 11.434 17.927 7.638 34.27 18.995 47.744 33.122 13.486 14.113 24.11 30.994 30.908 49.344 4.904 13.228 7.798 27.192 8.66 41.29l-.05.003c1.025 19.556-1.903 39.306-8.681 57.654-6.775 18.348-17.375 35.238-30.845 49.367-13.458 14.143-29.79 25.523-47.72 33.186-17.917 7.697-37.416 11.597-56.888 11.507v2.274c19.776-.052 39.53-4.157 57.621-12.084 18.104-7.894 34.534-19.526 48.02-33.906 13.498-14.366 24.059-31.478 30.747-50.003 4.825-13.357 7.612-27.418 8.358-41.58l.1.006c1.15-19.644-1.672-39.534-8.39-58.061"/><path d="M274.704 97.283c-6.065-18.153-15.652-35.163-28.23-49.646-12.543-14.493-28.037-26.49-45.396-34.735C183.74 4.628 164.547.202 145.293.154V2.43c18.921-.094 37.84 4.114 54.998 12.145 17.179 8.004 32.585 19.74 45.113 33.997 12.559 14.246 22.2 31.045 28.359 49.032 4.455 12.97 7.073 26.561 7.852 40.265l-.067.004c.944 19.003-1.676 38.178-7.823 56.168-6.128 17.988-15.74 34.8-28.288 49.055-12.517 14.269-27.922 26.015-45.107 34.032-17.163 8.044-36.093 12.268-55.037 12.2l.015 2.273c19.272-.074 38.477-4.518 55.819-12.806 17.363-8.26 32.855-20.267 45.387-34.771 12.565-14.492 22.121-31.516 28.154-49.669 4.364-13.09 6.863-26.772 7.514-40.532l.086.004c1.051-19.085-1.477-38.387-7.564-56.543"/><path d="M267.828 98.515c-5.5-17.789-14.22-34.62-25.817-49.245-11.558-14.639-26.133-26.975-42.729-35.615C182.71 4.996 164.055.22 145.292.165v2.274c18.398-.085 36.752 4.455 53.143 12.858 16.413 8.385 30.912 20.454 42.467 34.861 11.592 14.392 20.376 31.022 25.977 48.655 4.048 12.717 6.424 25.958 7.145 39.298l-.067.003c.845 18.498-1.514 37.14-7.087 54.782-5.56 17.636-14.32 34.277-25.906 48.675-11.546 14.411-26.05 26.485-42.477 34.867-16.403 8.404-34.773 12.948-53.194 12.889l.014 2.273c18.783-.082 37.451-4.864 54.034-13.523 16.61-8.637 31.188-20.98 42.739-35.624 11.588-14.632 20.283-31.474 25.74-49.266 3.947-12.831 6.193-26.159 6.774-39.55l.093.004c.937-18.575-1.344-37.332-6.859-55.126"/><path d="M260.916 99.736c-4.963-17.416-12.836-34.051-23.5-48.747-5.328-7.343-11.353-14.194-18.03-20.36-1.654-1.557-3.423-2.988-5.128-4.49-1.76-1.437-3.577-2.805-5.365-4.21-1.87-1.292-3.71-2.633-5.607-3.885l-2.895-1.807c-.967-.599-1.919-1.225-2.928-1.752-7.9-4.518-16.352-8.1-25.14-10.534a103.281 103.281 0 00-27.03-3.777V2.45a101.15 101.15 0 0126.49 3.49c8.632 2.32 16.959 5.769 24.767 10.153.998.51 1.94 1.119 2.895 1.701l2.865 1.756c1.878 1.219 3.7 2.526 5.555 3.785 1.771 1.371 3.574 2.706 5.321 4.11 1.696 1.468 3.453 2.867 5.097 4.392 6.64 6.036 12.654 12.763 17.988 19.993 10.671 14.467 18.622 30.914 23.69 48.184 3.658 12.458 5.807 25.354 6.47 38.335l-.064.003c.75 18-1.363 36.12-6.39 53.404-5.018 17.276-12.941 33.733-23.61 48.204-5.33 7.23-11.347 13.958-17.994 19.99-6.638 6.039-13.927 11.366-21.756 15.731-7.818 4.378-16.157 7.822-24.8 10.14a101.883 101.883 0 01-26.524 3.506l.014 2.274a104.13 104.13 0 0027.06-3.793c8.797-2.435 17.257-6.01 25.168-10.523 7.922-4.5 15.271-9.965 21.945-16.133 6.683-6.162 12.711-13.013 18.038-20.358 10.659-14.699 18.505-31.347 23.417-48.768 3.546-12.566 5.555-25.543 6.07-38.573l.098.006c.83-18.075-1.219-36.297-6.187-53.722"/><path d="M253.967 100.943c-4.45-17.037-11.514-33.448-21.247-48.182-9.718-14.705-22.176-27.776-37.12-37.338a98.843 98.843 0 00-24.058-11.166C163.06 1.643 154.19.245 145.293.185v2.274c8.67-.01 17.336 1.282 25.65 3.77a96.868 96.868 0 0123.67 10.757c14.764 9.277 27.183 22.077 36.924 36.563 9.758 14.513 16.907 30.747 21.469 47.65 3.287 12.194 5.226 24.75 5.83 37.378l-.062.004c.665 17.51-1.22 35.12-5.725 52.04-4.504 16.91-11.623 33.158-21.378 47.673-9.739 14.488-22.182 27.274-36.974 36.527-14.763 9.234-32.009 14.535-49.404 14.505l.013 2.274c8.908-.074 17.79-1.473 26.283-4.079a99.037 99.037 0 0024.096-11.14c14.973-9.538 27.457-22.596 37.173-37.304 9.73-14.736 16.761-31.162 21.153-48.207 3.168-12.297 4.952-24.927 5.402-37.6l.097.003c.746-17.58-1.095-35.282-5.543-52.33"/><path d="M246.981 102.133c-3.966-16.654-10.255-32.816-19.068-47.555-8.805-14.7-20.2-28.05-34.262-38.063-7.015-4.996-14.693-9.135-22.887-11.909-8.172-2.808-16.804-4.34-25.47-4.411v2.274c8.412 0 16.813 1.416 24.806 4.087 8.012 2.638 15.56 6.622 22.488 11.47 13.888 9.713 25.268 22.798 34.108 37.288 8.851 14.526 15.237 30.524 19.318 47.054a187.627 187.627 0 015.227 36.431l-.06.004c.585 17.033-1.088 34.143-5.101 50.695-4.01 16.543-10.375 32.548-19.217 47.08-8.834 14.494-20.248 27.56-34.173 37.24-6.946 4.83-14.512 8.8-22.542 11.424-8.01 2.66-16.424 4.071-24.855 4.084l.012 2.274c8.682-.085 17.325-1.612 25.512-4.408 8.21-2.761 15.905-6.886 22.939-11.863 14.098-9.981 25.53-23.316 34.327-38.022 8.803-14.745 15.074-30.915 18.966-47.581 2.81-12.023 4.384-24.315 4.774-36.638l.092.002a188.939 188.939 0 00-4.934-50.957"/><path d="M239.958 103.302c-3.496-16.277-9.138-32.132-17.03-46.834-3.955-7.343-8.5-14.384-13.686-20.937-5.175-6.56-11.048-12.598-17.608-17.817-6.558-5.205-13.802-9.634-21.646-12.706C162.137 1.978 153.74.29 145.293.204V2.48c8.159.014 16.296 1.574 23.953 4.451 7.65 2.921 14.765 7.184 21.241 12.233 6.48 5.064 12.317 10.958 17.48 17.39 5.176 6.424 9.73 13.353 13.712 20.594 7.946 14.502 13.691 30.207 17.307 46.37a201.371 201.371 0 014.66 35.497l-.06.002c.512 16.567-.963 33.192-4.512 49.372-3.588 16.16-9.254 31.89-17.202 46.392-3.98 7.244-8.54 14.168-13.73 20.586-5.176 6.422-11.019 12.314-17.528 17.351-6.499 5.032-13.64 9.268-21.31 12.173-7.679 2.859-15.832 4.41-24.01 4.436l.012 2.274c8.463-.097 16.873-1.778 24.742-4.788 7.862-3.057 15.132-7.459 21.713-12.646 6.59-5.193 12.47-11.231 17.66-17.781 5.201-6.546 9.75-13.586 13.702-20.93 7.896-14.705 13.456-30.585 16.924-46.86 2.471-11.747 3.849-23.706 4.183-35.688l.088.002a202.053 202.053 0 00-4.36-49.607"/><path d="M232.898 104.446c-3.137-15.875-8.055-31.442-15.087-46.061-3.521-7.302-7.582-14.359-12.266-20.997-4.684-6.633-9.996-12.854-16.022-18.348-6.05-5.456-12.87-10.126-20.337-13.515-7.466-3.381-15.663-5.188-23.893-5.31v2.274c7.898.053 15.798 1.708 23.06 4.921 7.263 3.22 13.96 7.709 19.936 13.006 11.915 10.705 21.136 24.209 28.244 38.591 7.1 14.432 12.129 29.864 15.39 45.635a218.018 218.018 0 014.118 34.578l-.052.002c.435 16.108-.824 32.271-3.983 48.068-3.186 15.778-8.157 31.228-15.25 45.663-7.095 14.388-16.35 27.88-28.317 38.542-5.995 5.287-12.73 9.738-20.016 12.936-7.288 3.19-15.21 4.83-23.13 4.895l.013 2.274c8.246-.136 16.46-1.923 23.95-5.284 7.49-3.366 14.347-7.997 20.415-13.444 6.053-5.474 11.39-11.682 16.087-18.308 4.698-6.632 8.764-13.688 12.279-20.993 7.024-14.625 11.884-30.212 14.946-46.094 2.187-11.463 3.364-23.099 3.642-34.75l.096.003c.537-16.163-.767-32.387-3.823-48.284"/><path d="M289.46 1.582l.004-1.136-144.016.378-.002.555c1.199.001 2.395.016 3.588.046l109.261 1.008-72.743 4.643c.926.268 1.85.54 2.77.826l73.276-3.754-61.153 8.15c.672.277 1.34.56 2.007.847L264.637 5.7l-53.713 11.424c.542.276 1.077.564 1.615.847l54.87-10.863-48.124 14.652c.464.277.927.554 1.389.836l49.234-14.194-43.489 17.904c.404.275.804.557 1.205.836l44.514-17.52-39.412 21.23c.363.277.726.554 1.086.833l40.3-20.872-35.645 24.647c.331.28.665.557.995.841l36.391-24.275L243.8 40.194c.309.288.622.573.928.864l32.668-27.739-28.557 31.808c.293.301.591.599.88.902l29.064-31.283-25.11 35.597c.282.321.571.637.852.96l25.546-34.949-21.694 39.599c.278.35.558.698.832 1.05l22.106-38.818-18.292 43.922c.278.39.549.787.822 1.18l18.725-43.023-14.895 48.801c.278.442.556.883.83 1.328l15.384-47.79-11.454 54.592c.281.52.554 1.047.829 1.572l12.048-53.559-7.898 62.13c.28.631.56 1.264.832 1.901l8.626-61.156-4.025 73.5c.278.86.547 1.724.807 2.59l4.94-72.945.974 106.866c.063 1.2.112 2.403.146 3.61h.456l.428-140.125-1.137.003z"/></g></svg>