<svg width="291" height="291" xmlns="http://www.w3.org/2000/svg" xmlns:xlink="http://www.w3.org/1999/xlink"><g fill="none" fill-rule="evenodd"><defs><path id="a" d="M0 0h291v291H0z"/></defs><mask id="b" fill="#fff"><use xlink:href="#a"/></mask><path d="M-14.972 120.896l.96-104.203 4.618 72.352c.27-.918.545-1.834.833-2.744l-3.735-72.903 8.118 60.919c.278-.668.563-1.33.852-1.992l-7.42-61.97L.647 63.92c.279-.541.566-1.076.85-1.613L-9.337 7.583 5.282 55.6c.278-.462.557-.922.84-1.38L-8.041 5.088 9.831 48.503c.277-.405.557-.806.837-1.208l-17.49-44.44 21.202 39.36c.277-.362.553-.727.833-1.087L-5.632.88l24.622 35.61c.281-.332.558-.667.843-.996L-4.419-.861l28.15 32.032c.288-.309.572-.622.863-.929L-3.126-2.402 28.67 26.143c.302-.293.599-.59.903-.88L-1.699-3.79l35.593 25.107c.322-.283.64-.57.965-.85L-.09-5.076 39.515 16.62c.351-.278.703-.554 1.057-.83L1.74-6.32l43.944 18.3c.391-.277.79-.545 1.183-.82L3.817-7.577 52.667 7.33c.441-.276.881-.556 1.327-.828L6.156-8.896 60.834 2.576c.52-.28 1.045-.554 1.57-.828L8.766-10.318l62.266 7.914c.632-.278 1.26-.56 1.898-.83l-61.292-8.644L85.401-7.84c.87-.276 1.741-.542 2.617-.802L14.774-13.6l110.486-1.007-.002-.568-140.124-.429.004 1.13v.007L-16-14.472l.379 144.017h.366a146 146 0 01.283-8.649M306.597 305.855l-.428-140.125h-.442a146.332 146.332 0 01-.164 4.026l-.97 106.45-4.92-72.655c-.262.871-.532 1.74-.81 2.604l4.008 73.196-8.588-60.887c-.273.64-.554 1.274-.835 1.908l7.863 61.854-11.992-53.309c-.276.527-.55 1.054-.832 1.576l11.4 54.338-15.308-47.555c-.274.447-.553.888-.831 1.332l14.822 48.563-18.63-42.806c-.276.396-.544.796-.824 1.188l18.198 43.697-21.989-38.615c-.275.355-.554.707-.833 1.058l21.578 39.387-25.407-34.758c-.28.325-.568.644-.852.967l24.973 35.4-28.895-31.103c-.292.306-.59.603-.884.907l28.39 31.622-32.468-27.569c-.307.293-.621.578-.932.867l31.858 27.995-36.157-24.118c-.329.284-.666.562-.997.844l35.414 24.488-40.025-20.73c-.36.282-.725.558-1.09.836l39.139 21.084-44.185-17.39c-.403.28-.805.561-1.21.839l43.164 17.771-48.842-14.081c-.46.284-.92.567-1.383.846l47.727 14.53-54.379-10.767c-.539.287-1.077.574-1.618.854l53.226 11.32-61.545-7.368c-.663.29-1.324.579-1.99.858l60.49 8.062-72.323-3.706c-.907.29-1.818.57-2.732.84l71.758 4.582-101.273.933c-3.82.307-7.678.471-11.574.475v.2l144.016.379-.004-1.137 1.137.003zM117.948 305.975l-103.172-.94 72.267-4.893c-.864-.263-1.722-.538-2.58-.817l-72.82 3.986 60.672-8.557c-.64-.274-1.278-.553-1.912-.837l-61.636 7.835 53.164-11.96c-.526-.277-1.057-.55-1.579-.833l-54.194 11.37 47.46-15.277c-.446-.274-.891-.553-1.334-.833l-48.47 14.793 42.738-18.6c-.393-.275-.79-.548-1.18-.827L1.74 297.755l38.564-21.96c-.353-.275-.702-.557-1.052-.837L-.09 296.51l34.725-25.38c-.325-.283-.643-.573-.964-.857l-35.372 24.951 31.086-28.879c-.305-.292-.603-.59-.906-.884l-31.606 28.375 27.564-32.46c-.293-.307-.578-.62-.868-.93L-4.42 292.293l24.12-36.156c-.286-.33-.564-.666-.846-.999L-5.63 290.553l20.735-40.035c-.282-.362-.558-.726-.836-1.09l-21.09 39.15 17.402-44.212c-.281-.403-.564-.806-.84-1.211l-17.781 43.19 14.094-48.888c-.284-.461-.564-.925-.843-1.39l-14.548 47.784 10.785-54.465c-.285-.54-.576-1.076-.854-1.619l-11.339 53.312 7.387-61.69c-.29-.666-.576-1.333-.855-2.003l-8.083 60.65 3.72-72.596c-.289-.914-.565-1.835-.836-2.757l-4.6 72.058-.956-103.787c-.185-2.996-.29-6.015-.29-9.059v-.006h-.362L-16 305.905l1.136-.004h.002v.007l-.003 1.131 140.123-.429v-.254c-2.453-.067-4.89-.194-7.31-.381M305.46-14.418l.004-1.136-144.016.378-.002.555c1.199.001 2.395.016 3.588.046l109.261 1.008-72.743 4.643c.926.268 1.85.54 2.77.826l73.276-3.754-61.153 8.15c.672.277 1.34.56 2.007.847l62.185-7.445-53.713 11.424c.542.276 1.077.564 1.615.847l54.87-10.863L235.284 5.76c.464.277.927.554 1.389.836l49.234-14.194-43.489 17.904c.404.275.804.557 1.205.836l44.514-17.52-39.412 21.23c.363.277.726.554 1.086.833l40.3-20.872-35.645 24.647c.331.28.665.557.995.841l36.391-24.275L259.8 24.194c.309.288.622.573.928.864L293.395-2.68l-28.557 31.808c.293.301.591.599.88.902l29.064-31.283-25.11 35.597c.282.321.571.637.852.96L296.07.355l-21.694 39.599c.278.35.558.698.832 1.05l22.106-38.818-18.292 43.922c.278.39.549.787.822 1.18L298.57 4.264l-14.895 48.801c.278.442.556.883.83 1.328l15.384-47.79-11.454 54.592c.281.52.554 1.047.829 1.572L301.31 9.208l-7.898 62.13c.28.631.56 1.264.832 1.901l8.626-61.156-4.025 73.5c.278.86.547 1.724.807 2.59l4.94-72.945.974 106.866c.063 1.2.112 2.403.146 3.61h.456l.428-140.125-1.137.003z" fill="#707376" mask="url(#b)"/></g></svg>
