<svg width="294" height="294" xmlns="http://www.w3.org/2000/svg"><g fill="#707376" fill-rule="evenodd"><path d="M292.222 292.84h1.147L293.12.546l-.288-.001z"/><path d="M283.395.546l8.827 292.313 1.147-.036L283.682.537z"/><path d="M273.958.547l18.265 292.33 1.145-.073L274.243.529z"/><path d="M264.52.549l27.704 292.346 1.142-.11L264.806.521z"/><path d="M255.082.55l37.145 292.363 1.138-.146L255.366.513z"/><path d="M245.645.55l46.584 292.381 1.131-.182L245.928.505z"/><path d="M236.207.552l56.025 292.396 1.127-.217L236.489.497z"/><path d="M226.77.552l65.467 292.414 1.117-.253L227.05.49z"/><path d="M217.332.553l74.908 292.43 1.11-.286L217.61.481z"/><path d="M207.895.553L292.245 293l1.1-.32L208.17.474z"/><path d="M198.459.554l93.79 292.462 1.091-.352L198.731.465z"/><path d="M189.021.554l103.233 292.478 1.082-.383L189.291.459z"/><path d="M179.584.555L292.26 293.047l1.07-.414L179.85.451z"/><path d="M170.148.555l122.119 292.507 1.057-.443L170.413.444z"/><path d="M160.71.555l131.563 292.521 1.044-.471L160.972.437z"/><path d="M151.274.555L292.28 293.09l1.032-.499L151.533.43z"/><path d="M141.838.555l150.448 292.548 1.019-.527L142.093.423z"/><path d="M132.4.554l159.893 292.562 1.005-.551L132.653.416z"/><path d="M122.965.554L292.3 293.128l.992-.576L123.213.41z"/><path d="M113.528.553L292.306 293.14l.979-.6L113.772.405zM.248 292.871h.286L1.147.405H0z"/><path d="M0 .424l9.687 292.45.286-.01L1.146.387z"/><path d="M0 .442l19.126 292.434.285-.018L1.145.368z"/><path d="M.002.46L28.563 292.88l.285-.027L1.144.35z"/><path d="M.004.478l37.998 292.403.285-.036L1.142.332z"/><path d="M.007.496l47.434 292.387.283-.045L1.139.314z"/><path d="M.01.514l56.87 292.372.282-.055L1.136.297z"/><path d="M.013.532L66.32 292.888l.28-.063L1.131.28z"/><path d="M.018.549l75.74 292.342.278-.072L1.128.262z"/><path d="M.022.565l85.176 292.328.275-.08L1.124.246z"/><path d="M.027.581l94.61 292.314.273-.088L1.119.229z"/><path d="M.032.597l104.045 292.3.27-.096L1.114.214z"/><path d="M.038.612l113.48 292.287.266-.104L1.108.198z"/><path d="M.043.627L122.956 292.9l.264-.111L1.102.184z"/><path d="M.05.641l132.346 292.261.26-.118L1.097.17z"/><path d="M.057.655l141.779 292.248.258-.124L1.09.156z"/><path d="M.063.668l151.214 292.237.254-.131L1.082.144z"/><path d="M.07.68l160.646 292.226.251-.138L1.076.13z"/><path d="M.077.693l170.08 292.215.247-.145L1.07.117z"/><path d="M.084.705l179.511 292.203.245-.15L1.062.105z"/></g></svg>