<svg width="294" height="294" xmlns="http://www.w3.org/2000/svg"><g fill="#FFF" fill-rule="evenodd" opacity=".6"><path d="M292.222 292.84h1.147L293.12.546l-.288-.001z"/><path d="M283.395.546l8.827 292.313 1.147-.036L283.682.537z"/><path d="M273.958.547l18.265 292.33 1.145-.073L274.243.529z"/><path d="M264.52.549l27.704 292.346 1.142-.11L264.806.521z"/><path d="M255.082.55l37.145 292.363 1.138-.146L255.366.513z"/><path d="M245.645.55l46.584 292.381 1.131-.182L245.928.505z"/><path d="M236.207.552l56.025 292.396 1.127-.217L236.489.497z"/><path d="M226.77.552l65.467 292.414 1.117-.253L227.05.49z"/><path d="M217.332.553l74.908 292.43 1.11-.286L217.61.481z"/><path d="M207.895.553L292.245 293l1.1-.32L208.17.474z"/><path d="M198.459.554l93.79 292.462 1.091-.352L198.731.465zM.248 292.871h.286L1.147.405H0z"/><path d="M0 .424l9.687 292.45.286-.01L1.146.387z"/><path d="M0 .442l19.126 292.434.285-.018L1.145.368z"/><path d="M.002.46L28.563 292.88l.285-.027L1.144.35z"/><path d="M.004.478l37.998 292.403.285-.036L1.142.332z"/><path d="M.007.496l47.434 292.387.283-.045L1.139.314z"/><path d="M.01.514l56.87 292.372.282-.055L1.136.297z"/><path d="M.013.532L66.32 292.888l.28-.063L1.131.28z"/><path d="M.018.549l75.74 292.342.278-.072L1.128.262z"/><path d="M.022.565l85.176 292.328.275-.08L1.124.246z"/><path d="M.027.581l94.61 292.314.273-.088L1.119.229z"/></g></svg>