<svg width="294" height="293" xmlns="http://www.w3.org/2000/svg"><g fill="#707376" fill-rule="evenodd"><path d="M292.222 292.84h1.147L293.12.546l-.288-.001z"/><path d="M283.395.546l8.827 292.313 1.147-.036L283.682.537z"/><path d="M273.958.547l18.265 292.33 1.145-.073L274.243.529z"/><path d="M264.52.549l27.704 292.346 1.142-.11L264.806.521z"/><path d="M255.082.55l37.145 292.363 1.138-.146L255.366.513zM.248 292.871h.286L1.147.405H0z"/><path d="M0 .424l9.687 292.45.286-.01L1.146.387z"/><path d="M0 .442l19.126 292.434.285-.018L1.145.368z"/><path d="M.002.46L28.563 292.88l.285-.027L1.144.35z"/><path d="M.004.478l37.998 292.403.285-.036L1.142.332z"/></g></svg>